<?xml version="1.0" encoding="UTF-8" standalone="no"?>
<!DOCTYPE svg PUBLIC "-//W3C//DTD SVG 1.1//EN" "http://www.w3.org/Graphics/SVG/1.1/DTD/svg11.dtd">
<svg width="100%" height="100%" viewBox="0 0 590 233" version="1.1" xmlns="http://www.w3.org/2000/svg" xmlns:xlink="http://www.w3.org/1999/xlink" xml:space="preserve" xmlns:serif="http://www.serif.com/" style="fill-rule:evenodd;clip-rule:evenodd;stroke-linejoin:round;stroke-miterlimit:2;">
    <g transform="matrix(1,0,0,1,-205.456,-656.908)">
        <g transform="matrix(1,0,0,1,-1026.61,273.412)">
            <g transform="matrix(1.20711,9.96293e-17,-9.96293e-17,1.20711,917.911,12.8605)">
                <path d="M399.994,358.383C399.994,366.747 398.119,374.415 394.37,381.385C390.62,388.355 384.419,394.148 375.766,398.763L375.766,399.34C380.573,400.974 384.972,403.065 388.962,405.613C392.952,408.161 396.365,411.189 399.201,414.698C402.037,418.207 404.248,422.173 405.835,426.596C407.421,431.018 408.214,435.97 408.214,441.45C408.214,446.161 407.469,451.208 405.979,456.592C404.489,461.976 401.869,467.192 398.119,472.239C394.37,477.286 389.37,481.925 383.121,486.156C376.872,490.386 368.988,493.751 359.47,496.25C357.067,496.827 354.447,497.356 351.611,497.837C348.774,498.318 345.626,498.726 342.165,499.063C338.704,499.399 334.858,499.639 330.628,499.784C326.397,499.928 321.638,500 316.351,500L260.252,500L260.252,307.043L327.311,307.043C341.636,307.043 353.173,308.485 361.922,311.37C368.459,313.485 374.132,316.249 378.939,319.662C383.746,323.075 387.712,326.873 390.836,331.055C393.961,335.237 396.268,339.659 397.759,344.322C399.249,348.985 399.994,353.672 399.994,358.383ZM295.584,416.068L295.584,470.436L318.658,470.436C324.811,470.436 330.099,470.268 334.521,469.932C338.944,469.595 342.741,469.042 345.914,468.273C350.817,467.216 354.903,465.798 358.172,464.019C361.441,462.24 364.085,460.221 366.104,457.962C368.123,455.703 369.565,453.203 370.43,450.463C371.296,447.723 371.728,444.815 371.728,441.738C371.728,436.354 370.238,431.643 367.258,427.605C364.277,423.567 359.614,420.539 353.269,418.52C350.481,417.655 347.212,417.03 343.463,416.645C339.713,416.26 334.906,416.068 329.041,416.068L295.584,416.068ZM327.455,386.505C337.069,386.505 344.232,385.543 348.943,383.62C354.23,381.409 358.004,378.357 360.263,374.463C362.523,370.569 363.652,366.171 363.652,361.267C363.652,356.172 362.354,351.629 359.759,347.639C357.163,343.649 352.74,340.693 346.491,338.77C343.895,338.001 340.867,337.448 337.406,337.112C333.944,336.775 329.666,336.607 324.571,336.607L295.584,336.607L295.584,386.505L327.455,386.505Z" style="fill:rgb(242,13,94);fill-rule:nonzero;"/>
                <rect x="444.267" y="307.043" width="35.332" height="192.957" style="fill:rgb(242,13,94);fill-rule:nonzero;"/>
                <rect x="525.747" y="307.043" width="35.332" height="192.957" style="fill:rgb(242,13,94);fill-rule:nonzero;"/>
                <path d="M686.112,500L650.78,500L650.78,336.607L588.48,336.607L588.48,307.043L748.268,307.043L748.268,336.607L686.112,336.607L686.112,500Z" style="fill:rgb(242,13,94);fill-rule:nonzero;"/>
            </g>
        </g>
    </g>
</svg>
