<?xml version="1.0" encoding="UTF-8" standalone="no"?>
<!DOCTYPE svg PUBLIC "-//W3C//DTD SVG 1.1//EN" "http://www.w3.org/Graphics/SVG/1.1/DTD/svg11.dtd">
<svg width="100%" height="100%" viewBox="0 0 411 332" version="1.1" xmlns="http://www.w3.org/2000/svg" xmlns:xlink="http://www.w3.org/1999/xlink" xml:space="preserve" xmlns:serif="http://www.serif.com/" style="fill-rule:evenodd;clip-rule:evenodd;stroke-linejoin:round;stroke-miterlimit:2;">
    <g transform="matrix(1,0,0,1,-292.366,-3566.12)">
        <g transform="matrix(1,0,0,1,-1026.61,3231.23)">
            <g transform="matrix(1,0,0,1,0,-257.882)">
                <g transform="matrix(-0.187381,0.982287,-0.982287,-0.187381,2095.4,1349.14)">
                    <path d="M-606.156,797.042L-626.623,751.63L-475.504,580.693L-455.373,625.362L-566.733,751.418L-566.332,752.309L-398.066,752.519L-378.001,797.042L-606.156,797.042Z" />
                </g>
                <g transform="matrix(1,0,0,1,873.583,-38.5703)">
                    <path d="M445.389,913.119L843.976,913.119L855.83,962.497L457.244,962.497L445.389,913.119Z" />
                </g>
            </g>
        </g>
    </g>
</svg>
