<?xml version="1.0" encoding="UTF-8" standalone="no"?>
<!DOCTYPE svg PUBLIC "-//W3C//DTD SVG 1.1//EN" "http://www.w3.org/Graphics/SVG/1.1/DTD/svg11.dtd">
<svg width="100%" height="100%" viewBox="0 0 500 500" version="1.1" xmlns="http://www.w3.org/2000/svg" xmlns:xlink="http://www.w3.org/1999/xlink" xml:space="preserve" xmlns:serif="http://www.serif.com/" style="fill-rule:evenodd;clip-rule:evenodd;stroke-linejoin:round;stroke-miterlimit:2;">
    <g transform="matrix(1,0,0,1,-5130.72,-24237.3)">
        <g transform="matrix(1,0,0,1,3854.11,23972.7)">
            <g transform="matrix(1,0,0,1,-3854.11,-23972.7)">
                <path d="M5440.87,24297.3L5630.72,24342.7L5630.72,24736.3L5570.56,24721.9L5570.56,24390.2L5440.87,24359.1L5440.87,24722.8L5380.72,24737.2L5380.72,24313.6L5190.87,24359.1L5190.87,24737.2L5130.72,24722.8L5130.72,24311.6L5440.87,24237.3L5440.87,24297.3Z" />
            </g>
            <g transform="matrix(-1.41119,0,0,1.04325,2414.67,-239.637)">
                <rect x="452.142" y="913.119" width="354.31" height="49.378" />
            </g>
            <g transform="matrix(1.5,0,0,0.932395,171.18,188.868)">
                <rect x="814.579" y="482.833" width="51.514" height="134.521" />
            </g>
            <g transform="matrix(6.12323e-17,1,-1,6.12323e-17,1981.78,-278.547)">
                <rect x="814.579" y="482.833" width="51.514" height="134.521" />
            </g>
            <g transform="matrix(6.12323e-17,1,-0.38294,2.34483e-17,1862.26,-278.547)">
                <rect x="814.579" y="482.833" width="51.514" height="134.521" />
            </g>
            <g transform="matrix(6.12323e-17,1,-1,6.12323e-17,1981.78,-355.817)">
                <rect x="814.579" y="482.833" width="51.514" height="134.521" />
            </g>
            <g transform="matrix(6.12323e-17,1,-0.38294,2.34483e-17,1862.26,-355.817)">
                <rect x="814.579" y="482.833" width="51.514" height="134.521" />
            </g>
        </g>
    </g>
</svg>
