<?xml version="1.0" encoding="UTF-8" standalone="no"?>
<!DOCTYPE svg PUBLIC "-//W3C//DTD SVG 1.1//EN" "http://www.w3.org/Graphics/SVG/1.1/DTD/svg11.dtd">
<svg width="100%" height="100%" viewBox="0 0 411 545" version="1.1" xmlns="http://www.w3.org/2000/svg" xmlns:xlink="http://www.w3.org/1999/xlink" xml:space="preserve" xmlns:serif="http://www.serif.com/" style="fill-rule:evenodd;clip-rule:evenodd;stroke-linejoin:round;stroke-miterlimit:2;">
    <g transform="matrix(1,0,0,1,-62026.7,-1521.75)">
        <g transform="matrix(1,0,0,1,60704.1,1239.86)">
            <g transform="matrix(1,-2.28848e-17,2.28848e-17,1,576.986,-200.949)">
                <rect x="814.579" y="482.833" width="51.514" height="134.521" style="fill:rgb(242,13,94);"/>
            </g>
            <g transform="matrix(1,-2.28848e-17,2.28848e-17,1,797.004,-200.949)">
                <rect x="814.579" y="482.833" width="51.514" height="134.521" style="fill:rgb(242,13,94);"/>
            </g>
            <g transform="matrix(6.12323e-17,1,-1,6.12323e-17,2285.11,-28.9843)">
                <path d="M445.389,913.119L843.976,913.119L855.83,962.497L457.244,962.497L445.389,913.119Z" style="fill:rgb(242,13,94);"/>
            </g>
            <g transform="matrix(-6.12323e-17,1,1,6.12323e-17,770.554,-28.9843)">
                <path d="M445.389,913.119L843.976,913.119L855.83,962.497L457.244,962.497L445.389,913.119Z" style="fill:rgb(242,13,94);"/>
            </g>
            <g transform="matrix(-1,-1.22465e-16,-1.22465e-16,1,2178.44,-135.651)">
                <path d="M445.389,913.119L843.976,913.119L855.83,962.497L445.389,962.497L445.389,913.119Z" style="fill:rgb(242,13,94);"/>
            </g>
            <g transform="matrix(-1,-1.22465e-16,-1.22465e-16,1,2178.44,-496.713)">
                <rect x="445.389" y="913.119" width="410.441" height="49.378" style="fill:rgb(242,13,94);"/>
            </g>
            <g transform="matrix(-1,-1.22465e-16,-1.22465e-16,1,2178.44,-544.092)">
                <rect x="445.389" y="913.119" width="410.441" height="49.378" style="fill:rgb(242,13,94);"/>
            </g>
        </g>
    </g>
</svg>
