<?xml version="1.0" encoding="UTF-8" standalone="no"?>
<svg
   width="100%"
   height="100%"
   viewBox="0 0 492 501"
   version="1.1"
   xml:space="preserve"
   style="fill-rule:evenodd;clip-rule:evenodd;stroke-linejoin:round;stroke-miterlimit:2;"
   id="svg606"
   xmlns="http://www.w3.org/2000/svg"
   xmlns:svg="http://www.w3.org/2000/svg"><defs
   id="defs610" />

<path
   id="rect563"
   style="stroke:none;stroke-width:56.5808;stroke-linecap:round;stroke-linejoin:round;stop-color:#000000"
   d="M 116.39265,64.962691 95.671293,104.84337 H 44.128224 C 19.681821,104.84337 -1.0549273e-6,124.52523 0,148.97159 v 242.93966 c 0,24.44641 19.681821,44.12606 44.128224,44.12606 H 447.87393 C 472.32035,436.03731 492,416.35766 492,391.91125 V 148.97159 c 0,-24.44636 -19.67965,-44.12822 -44.12607,-44.12822 H 396.32871 L 375.60735,64.962691 Z M 246.00108,178.25286 c 59.45796,0 107.94293,48.48497 107.94293,107.94293 0,59.45795 -48.48497,107.94294 -107.94293,107.94294 -59.45796,0 -107.94293,-48.48499 -107.94293,-107.94294 0,-59.45796 48.48497,-107.94293 107.94293,-107.94293 z m 0,26.54824 c -45.11025,0 -81.3947,36.28444 -81.3947,81.39469 0,45.11026 36.28445,81.3947 81.3947,81.3947 45.11026,0 81.3947,-36.28444 81.3947,-81.3947 0,-45.11025 -36.28444,-81.39469 -81.3947,-81.39469 z" /></svg>
