<?xml version="1.0" encoding="UTF-8" standalone="no"?>
<svg
  width="100%"
  height="100%"
  viewBox="0 0 492 501"
  version="1.1"
  xml:space="preserve"
  style="fill-rule:evenodd;clip-rule:evenodd;stroke-linejoin:round;stroke-miterlimit:2;"
  id="svg606"
  xmlns="http://www.w3.org/2000/svg"
  xmlns:svg="http://www.w3.org/2000/svg"><defs
   id="defs610">





            </defs>

  <path
    id="rect563"
    style="stroke:none;stroke-width:56.5808;stroke-linecap:round;stroke-linejoin:round;stop-color:#000000"
    d="M 116.39258 64.962891 L 95.671875 104.84375 L 44.128906 104.84375 C 19.682528 104.84375 -1.0549262e-06 124.52437 0 148.9707 L 0 391.91211 C 0 416.35849 19.682528 436.03711 44.128906 436.03711 L 447.87305 436.03711 C 472.31944 436.03711 492 416.35849 492 391.91211 L 492 148.9707 C 492 124.52437 472.31944 104.84375 447.87305 104.84375 L 396.32812 104.84375 L 375.60742 64.962891 L 116.39258 64.962891 z M 192.375 152.18945 L 206.42188 176.49414 L 184.17188 207.46875 C 236.66612 177.34542 299.69692 171.61608 356.76562 191.80273 L 359.65625 192.83203 L 351.08984 217.04688 L 348.19336 216.01758 C 298.4205 198.38224 243.46803 203.26052 197.59375 229.35547 L 234.82031 225.64062 L 248.82617 249.85547 L 143.28711 260.50977 L 130.45117 238.30859 L 192.375 152.18945 z M 348.71289 279.08398 L 361.54883 301.33008 L 299.625 387.44727 L 285.57812 363.14258 L 307.82812 332.16992 C 255.33387 362.29324 192.30308 368.02243 135.23438 347.79102 L 132.34375 346.76172 L 140.91016 322.5918 L 143.80273 323.62109 C 193.58007 341.25644 248.53197 336.37619 294.40625 310.28125 L 257.17969 313.99609 L 243.17383 289.73633 L 348.71289 279.08398 z "/></svg>
