<?xml version="1.0" encoding="UTF-8" standalone="no"?>
<svg
   width="100%"
   height="100%"
   viewBox="0 0 492 501"
   version="1.1"
   xml:space="preserve"
   style="fill-rule:evenodd;clip-rule:evenodd;stroke-linejoin:round;stroke-miterlimit:2;"
   id="svg606"
   xmlns="http://www.w3.org/2000/svg"
   xmlns:svg="http://www.w3.org/2000/svg"><defs
   id="defs610" />

<path
   id="rect563"
   style="stroke:none;stroke-width:51.1499;stroke-linecap:round;stroke-linejoin:round;stop-color:#000000"
   d="M 130.83789 57.982422 L 112.10547 94.035156 L 65.509766 94.035156 C 43.40985 94.035156 25.617187 111.82785 25.617188 133.92773 L 25.617188 353.54883 C 25.617188 375.64875 43.40985 393.43945 65.509766 393.43945 L 430.50195 393.43945 C 452.60188 393.43945 470.39258 375.64875 470.39258 353.54883 L 470.39258 133.92773 C 470.39258 111.82785 452.60188 94.035156 430.50195 94.035156 L 383.9043 94.035156 L 365.17188 57.982422 L 130.83789 57.982422 z M 248.00586 160.39844 C 301.75675 160.39844 345.58789 204.22958 345.58789 257.98047 C 345.58789 311.73135 301.75675 355.5625 248.00586 355.5625 C 194.25497 355.5625 150.42383 311.73135 150.42383 257.98047 C 150.42383 204.22958 194.25497 160.39844 248.00586 160.39844 z M 248.00586 184.39844 C 207.22551 184.39844 174.42383 217.20012 174.42383 257.98047 C 174.42383 298.76082 207.22551 331.5625 248.00586 331.5625 C 288.78621 331.5625 321.58789 298.76082 321.58789 257.98047 C 321.58789 217.20012 288.78621 184.39844 248.00586 184.39844 z " /></svg>
