<?xml version="1.0" encoding="UTF-8" standalone="no"?>
<!DOCTYPE svg PUBLIC "-//W3C//DTD SVG 1.1//EN" "http://www.w3.org/Graphics/SVG/1.1/DTD/svg11.dtd">
<svg width="100%" height="100%" viewBox="0 0 500 422" version="1.1" xmlns="http://www.w3.org/2000/svg" xmlns:xlink="http://www.w3.org/1999/xlink" xml:space="preserve" xmlns:serif="http://www.serif.com/" style="fill-rule:evenodd;clip-rule:evenodd;stroke-linejoin:round;stroke-miterlimit:2;">
    <g transform="matrix(1,0,0,1,-49931.4,-12534.7)">
        <g transform="matrix(1,0,0,1,48654.7,12231.2)">
            <g transform="matrix(0.33893,0,0,2.26365,-16033,-43910.1)">
                <rect x="51071.4" y="19671.2" width="393.057" height="30.307" style="fill:rgb(242,13,94);"/>
            </g>
        </g>
        <g transform="matrix(1,0,0,1,48654.7,12231.2)">
            <g transform="matrix(0.33893,0,0,2.26365,-15850.2,-44166.8)">
                <rect x="51071.4" y="19671.2" width="393.057" height="30.307" style="fill:rgb(242,13,94);"/>
            </g>
        </g>
        <g transform="matrix(1,0,0,1,48654.7,12231.2)">
            <g transform="matrix(0.33893,0,0,2.26365,-15666.2,-44166.8)">
                <rect x="51071.4" y="19671.2" width="393.057" height="30.307" style="fill:rgb(242,13,94);"/>
            </g>
        </g>
        <g transform="matrix(1,0,0,1,48654.7,12231.2)">
            <g transform="matrix(6.57373e-17,1.07357,-1.86482,1.14187e-16,38054.6,-54525.3)">
                <rect x="51071.4" y="19671.2" width="393.057" height="30.307" style="fill:rgb(242,13,94);"/>
            </g>
        </g>
        <g transform="matrix(1,0,0,1,48654.7,12231.2)">
            <g transform="matrix(6.57373e-17,1.07357,-1.86482,1.14187e-16,38237.5,-54525.3)">
                <rect x="51071.4" y="19671.2" width="393.057" height="30.307" style="fill:rgb(242,13,94);"/>
            </g>
        </g>
        <g transform="matrix(1,0,0,1,48654.7,12231.2)">
            <g transform="matrix(6.57373e-17,1.07357,-1.86482,1.14187e-16,38421.4,-54525.3)">
                <rect x="51071.4" y="19671.2" width="393.057" height="30.307" style="fill:rgb(242,13,94);"/>
            </g>
        </g>
    </g>
</svg>
