<?xml version="1.0" encoding="UTF-8" standalone="no"?>
<!DOCTYPE svg PUBLIC "-//W3C//DTD SVG 1.1//EN" "http://www.w3.org/Graphics/SVG/1.1/DTD/svg11.dtd">
<svg width="100%" height="100%" viewBox="0 0 500 423" version="1.1" xmlns="http://www.w3.org/2000/svg" xmlns:xlink="http://www.w3.org/1999/xlink" xml:space="preserve" xmlns:serif="http://www.serif.com/" style="fill-rule:evenodd;clip-rule:evenodd;stroke-linejoin:round;stroke-miterlimit:2;">
    <g transform="matrix(1,0,0,1,-5130.72,-22028)">
        <g transform="matrix(1,0,0,1,3854.11,21724.6)">
            <g transform="matrix(4.97007,0,0,4.97007,1265.68,317.975)">
                <circle cx="33.5" cy="32.297" r="6.5" />
            </g>
        </g>
        <g transform="matrix(1,0,0,1,3854.11,21724.6)">
            <g transform="matrix(4.97007,0,0,4.97007,1265.68,317.975)">
                <circle cx="71.5" cy="32.297" r="6.5" />
            </g>
        </g>
        <g transform="matrix(1,0,0,1,3854.11,21724.6)">
            <g transform="matrix(4.97007,0,0,4.97007,1265.68,317.975)">
                <circle cx="52.5" cy="32.297" r="6.5" />
            </g>
        </g>
        <g transform="matrix(1,0,0,1,3854.11,21724.6)">
            <g transform="matrix(1,0,0,1,-4883.31,-21688.6)">
                <path d="M6474.1,22342.1L6506.55,22414.1L6569.75,22414.1L6602.2,22342.1L6659.92,22342.1L6659.92,21992L6599.92,21992L6599.92,21992L6159.92,21992L6159.92,22052L6159.92,22052L6159.92,22342.1L6474.1,22342.1ZM6509.03,22282.1L6537.53,22344.7L6538.77,22344.7L6567.02,22282.2L6586.03,22282.2L6586.03,22282.1L6599.92,22282.1L6599.92,22052.1L6219.92,22052.1L6219.92,22282.1L6509.03,22282.1Z" />
            </g>
        </g>
    </g>
</svg>
