<svg viewBox="0 0 110 107" fill="none" xmlns="http://www.w3.org/2000/svg">
<path d="M45.4717 57.0827L46.5886 64.1079L37.5318 70.9702L44.7135 84.6516L62.353 95.9614L84.4235 92.7839L98.5859 77.5809L101.919 58.5613L94.5747 42.5609L80.4619 33.1092L72.0992 32.5309L69.958 40.7872L63.343 44.9737L58.0531 43.9745L59.499 50.0156L54.8564 54.8709L45.2417 55.4032L45.4717 57.0827Z" fill="white"/>
<path d="M91.0508 35.0795C92.8067 36.4121 94.3382 37.8012 95.6707 39.2434C97.0048 40.6982 98.1583 42.1519 99.1599 43.6265C100.149 45.1028 100.993 46.5603 101.668 48.0023C102.343 49.4443 102.891 50.8133 103.314 52.1093C103.736 53.4053 104.042 54.6013 104.244 55.6955C104.445 56.7897 104.572 57.7136 104.627 58.4926L99.6162 59.3852C99.3414 57.8498 98.9204 56.2828 98.3624 54.6572C97.8061 53.0442 97.0531 51.4067 96.0922 49.7589C95.1314 48.1111 93.9266 46.4709 92.4922 44.8493C91.0561 43.2151 89.3035 41.6242 87.2597 40.0731C85.2159 38.5221 83.2137 37.2748 81.2515 36.3187C79.2909 35.3752 77.3995 34.6543 75.5538 34.1722C73.708 33.69 71.9262 33.3925 70.2245 33.3033C68.5229 33.214 66.8874 33.2317 65.3326 33.3673L64.8451 28.3022C65.5977 28.1475 66.5328 28.0066 67.6428 27.919C68.7511 27.8188 69.9854 27.7915 71.3475 27.8499C72.7097 27.9083 74.176 28.0685 75.7466 28.3305C77.3172 28.5924 78.9465 29.001 80.6364 29.569C82.3245 30.1243 84.0496 30.8551 85.8116 31.7613C87.5736 32.6675 89.3236 33.7688 91.0634 35.0778L91.0508 35.0795Z" fill="currentColor"/>
<path d="M48.2113 91.5075C46.4554 90.1749 44.9239 88.7858 43.5914 87.3436C42.2573 85.8888 41.1038 84.4351 40.1022 82.9605C39.1006 81.4859 38.2688 80.0267 37.5941 78.5847C36.9194 77.1428 36.3708 75.7738 35.9482 74.4777C35.5257 73.1817 35.22 71.9858 35.0185 70.8916C34.817 69.7974 34.7031 68.8717 34.6354 68.0944L39.6459 67.2018C39.9207 68.7372 40.3417 70.3042 40.8997 71.9298C41.456 73.5428 42.209 75.1803 43.1698 76.8281C44.1307 78.4759 45.3355 80.1161 46.7699 81.7377C48.2043 83.3593 49.946 84.9646 52.0024 86.5139C54.0462 88.0649 56.0483 89.3122 58.0106 90.2683C59.9712 91.2118 61.8626 91.9327 63.7083 92.4148C65.5541 92.897 67.3359 93.1945 69.0376 93.2837C70.741 93.3857 72.3747 93.3553 73.9295 93.2197L74.4152 98.2721C73.6626 98.4268 72.7276 98.5678 71.6176 98.6554C70.5076 98.7429 69.275 98.7828 67.9128 98.7244C66.5507 98.666 65.0843 98.5058 63.5137 98.2439C61.9432 97.9819 60.3138 97.5733 58.6239 97.0054C56.9358 96.45 55.2107 95.7193 53.4487 94.813C51.6885 93.9195 49.9367 92.8055 48.1969 91.4965L48.2113 91.5075Z" fill="currentColor"/>
<path d="M41.4147 41.8811C40.0818 43.6367 38.9802 45.3865 38.0847 47.1339C37.1891 48.8812 36.4708 50.6043 35.9027 52.2939C35.3472 53.9817 34.9257 55.6126 34.6637 57.1829C34.4016 58.7532 34.2413 60.2193 34.1828 61.5812C34.1244 62.9431 34.1515 64.1772 34.2517 65.2853C34.3519 66.3934 34.4785 67.3173 34.6349 68.0824L39.7009 67.5948C39.5527 66.042 39.5368 64.4195 39.6371 62.7037C39.7391 61.0006 40.0241 59.2209 40.5064 57.3754C40.9887 55.5299 41.7081 53.6262 42.6536 51.6786C43.5973 49.7183 44.8449 47.7165 46.409 45.6713C47.9604 43.6278 49.5534 41.888 51.1862 40.4394C52.8209 39.0034 54.4487 37.8005 56.0968 36.8398C57.745 35.879 59.3811 35.1134 60.9961 34.5698C62.6111 34.0262 64.1911 33.6035 65.7251 33.316L64.8342 28.319C64.0677 28.3724 63.1292 28.4881 62.0366 28.7022C60.9422 28.9037 59.746 29.2094 58.4497 29.632C57.1535 30.0545 55.7842 30.6031 54.3419 31.2778C52.8996 31.9524 51.4402 32.7841 49.9653 33.7856C48.4887 34.7744 47.0237 35.9422 45.5703 37.2888C44.1151 38.6229 42.7274 40.1668 41.4037 41.8955L41.4147 41.8811Z" fill="currentColor"/>
<path d="M97.8463 84.6946C99.1792 82.9389 100.281 81.1892 101.176 79.4418C102.07 77.6818 102.79 75.9714 103.358 74.2818C103.914 72.5939 104.335 70.9631 104.597 69.3928C104.859 67.8225 105.02 66.3564 105.078 64.9945C105.137 63.6326 105.109 62.3985 105.009 61.2904C104.909 60.1823 104.783 59.2584 104.626 58.4932L99.5601 58.9809C99.7083 60.5337 99.7242 62.1562 99.6239 63.8719C99.5219 65.5751 99.2369 67.3548 98.7546 69.2003C98.2723 71.0458 97.553 72.9495 96.6075 74.8971C95.6637 76.8573 94.4161 78.8592 92.8521 80.9044C91.3007 82.9479 89.7077 84.6876 88.0748 86.1363C86.4402 87.5722 84.8123 88.7752 83.1642 89.7359C81.5161 90.6966 79.8799 91.4623 78.2649 92.0059C76.6517 92.5621 75.07 92.9722 73.536 93.2597L74.4268 98.2567C75.1933 98.2032 76.1318 98.0876 77.2244 97.8734C78.3188 97.672 79.515 97.3663 80.8113 96.9437C82.1076 96.5212 83.4768 95.9726 84.9191 95.2979C86.3614 94.6233 87.8208 93.7915 89.2957 92.7901C90.7724 91.8012 92.2374 90.6335 93.6908 89.2868C95.1459 87.9528 96.5336 86.4088 97.8573 84.6802L97.8463 84.6946Z" fill="currentColor"/>
<path d="M68.853 45.91L66.0752 43.8019L71.5706 36.5633L74.3484 38.6714L68.853 45.91ZM73.8041 49.6674L71.0263 47.5593L76.5217 40.3207L79.2995 42.4288L73.8041 49.6674Z" fill="currentColor"/>
<path d="M69.8924 39.2818L72.001 36.5044L79.2406 41.9985L77.132 44.7759L69.8924 39.2818ZM66.1341 44.2322L68.2427 41.4548L75.4823 46.9489L73.3737 49.7263L66.1341 44.2322Z" fill="currentColor"/>
<path d="M54.8996 83.3691L51.6396 82.1652L54.7916 73.6359L58.0516 74.8398L54.8996 83.3691ZM60.7274 85.5236L57.4673 84.3197L60.6193 75.7904L63.8794 76.9943L60.7274 85.5236Z" fill="currentColor"/>
<path d="M53.9752 76.7265L55.1794 73.4669L63.7101 76.6179L62.5058 79.8775L53.9752 76.7265ZM51.82 82.5533L53.0243 79.2937L61.555 82.4448L60.3507 85.7043L51.82 82.5533Z" fill="currentColor"/>
<path d="M44.7381 59.1019L43.3706 55.898L51.7271 52.3163L53.0945 55.5202L44.7381 59.1019ZM47.1842 64.8142L45.8168 61.6103L54.1732 58.0286L55.5406 61.2325L47.1842 64.8142Z" fill="currentColor"/>
<path d="M48.933 53.8578L52.1375 52.4905L55.7194 60.8453L52.5149 62.2126L48.933 53.8578ZM43.2196 56.3038L46.4241 54.9364L50.006 63.2912L46.8015 64.6586L43.2196 56.3038Z" fill="currentColor"/>
<path d="M64.3652 62.7465L65.8705 59.6133L74.0587 63.5591L72.5534 66.6923L64.3652 62.7465ZM61.6639 68.3516L63.1692 65.2184L71.3573 69.1642L69.852 72.2974L61.6639 68.3516Z" fill="currentColor"/>
<path d="M71.0692 62.445L74.2029 63.9498L70.256 72.1368L67.1223 70.6319L71.0692 62.445ZM65.4633 59.7443L68.5969 61.2492L64.65 69.4361L61.5164 67.9312L65.4633 59.7443Z" fill="currentColor"/>
<path d="M81.2763 74.0845L84.0425 71.9649L89.5699 79.1764L86.8037 81.296L81.2763 74.0845ZM76.3394 77.8683L79.1055 75.7487L84.6329 82.9602L81.8668 85.0798L76.3394 77.8683Z" fill="currentColor"/>
<path d="M87.3965 76.8526L89.5164 79.6181L82.3034 85.1449L80.1835 82.3794L87.3965 76.8526ZM83.6124 71.9167L85.7322 74.6822L78.5192 80.209L76.3993 77.4435L83.6124 71.9167Z" fill="currentColor"/>
<path d="M87.8824 51.2461L91.3657 51.3492L91.0873 60.4262L87.604 60.3231L87.8824 51.2461ZM81.6656 51.0532L85.1489 51.1563L84.8705 60.2333L81.3872 60.1302L81.6656 51.0532Z" fill="currentColor"/>
<path d="M90.8749 57.2556L90.7716 60.7383L81.6931 60.4604L81.7964 56.9777L90.8749 57.2556ZM91.0681 51.0399L90.9649 54.5226L81.8863 54.2447L81.9896 50.762L91.0681 51.0399Z" fill="currentColor"/>
<path d="M16.1749 36.8073L17.2918 43.8325L8.23489 50.6948L15.4166 64.3762L33.0561 75.6861L55.1267 72.5085L69.2891 57.3055L72.6226 38.2859L65.2778 22.2855L51.165 12.8338L42.8023 12.2556L40.6611 20.5118L34.0461 24.6983L28.7562 23.6991L30.2021 29.7402L25.5596 34.5955L15.9448 35.1279L16.1749 36.8073Z" fill="white"/>
<path d="M40.5469 8.12891C42.3412 8.19263 44.5505 8.43163 46.5179 8.80695C48.4852 9.18226 50.4913 9.74571 52.5415 10.5353C54.6172 11.3213 56.5004 12.224 58.191 13.2433C59.8944 14.2609 61.4239 15.341 62.8051 16.4801C64.1863 17.6192 65.4011 18.7811 66.4642 19.9766C67.5273 21.1722 68.4427 22.3364 69.2087 23.4566C69.9765 24.5895 70.617 25.6495 71.1174 26.6384C71.6178 27.6273 71.9967 28.491 72.2654 29.2151L67.6607 31.4708C66.9624 30.0834 66.1181 28.6773 65.1185 27.2796C64.1318 25.8801 62.9293 24.5231 61.5384 23.2177C60.1457 21.8996 58.5169 20.6655 56.663 19.5009C54.8091 18.3362 52.6731 17.3005 50.2533 16.3811C47.8335 15.4616 45.5431 14.8211 43.3693 14.4611" fill="currentColor"/>
<path d="M27.0502 76.448C24.9863 75.6604 23.1137 74.7563 21.4324 73.7358C19.7383 72.717 18.2171 71.6358 16.8433 70.4958C15.4695 69.3557 14.261 68.193 13.2033 66.9968C12.1456 65.8005 11.2347 64.6358 10.4724 63.5151C9.70832 62.3818 9.07083 61.3215 8.57262 60.3323C8.07441 59.3431 7.697 58.4792 7.42941 57.7551L12.0046 55.5035C12.6999 56.8913 13.5403 58.2978 14.5349 59.6961C15.5169 61.0962 16.7133 62.4539 18.0969 63.7603C19.4823 65.0793 21.1024 66.3145 22.9461 67.4805C24.7898 68.6464 26.9138 69.6837 29.3199 70.605C31.726 71.5263 34.0031 72.1686 36.1642 72.5302C38.3125 72.8936 40.355 73.0523 42.2646 72.997C44.1742 72.9418 45.9723 72.7342 47.6553 72.3489C49.3256 71.9654 50.8931 71.4927 52.3559 70.9184L54.2331 75.6389C53.5448 76.004 52.6911 76.3917 51.645 76.7929C50.5989 77.1941 49.4187 77.5621 48.0899 77.886C46.7612 78.2098 45.2931 78.4625 43.713 78.6532C42.1184 78.8329 40.4301 78.8965 38.6465 78.8313C36.8629 78.7662 34.9932 78.5452 33.0374 78.1683C31.0815 77.7914 29.087 77.2264 27.0485 76.4354L27.0502 76.448Z" fill="currentColor"/>
<path d="M5.09247 49.3554C4.90295 51.2748 6.03029 54.2589 6.45107 55.2906C6.85878 56.3242 7.25689 57.1904 7.63059 57.8785L12.5069 55.9785C11.9223 54.5282 11.2845 52.3979 10.8958 50.7263" fill="currentColor"/>
<path d="M72.8102 56.2857C73.5978 54.2218 74.1754 52.2255 74.5414 50.2841C74.9073 48.3427 75.1284 46.473 75.1935 44.6894C75.2587 42.9058 75.2078 41.2158 75.0154 39.6229C74.8229 38.0301 74.572 36.5747 74.2482 35.246C73.9243 33.9173 73.5563 32.7371 73.1551 31.6909C72.743 30.6593 72.3662 29.7912 72.0011 29.1028L67.2806 30.98C67.8532 32.4301 68.3258 33.9976 68.7111 35.6806C69.0946 37.3509 69.3022 39.149 69.3592 41.0713C69.4145 42.9809 69.2558 45.0234 68.8924 47.1717C68.529 49.32 67.8884 51.6099 66.9671 54.016C66.0459 56.4221 65.0086 58.5461 63.8426 60.3898C62.6767 62.2335 61.4414 63.8535 60.1224 65.2389C58.8034 66.6243 57.4566 67.8062 56.0582 68.8009C54.6582 69.7829 53.266 70.6342 51.8657 71.3312L54.1172 75.9064C54.8414 75.6388 55.7052 75.2614 56.6944 74.7632C57.6836 74.265 58.7457 73.6402 59.8773 72.8634C61.0106 72.0994 62.1627 71.1902 63.3589 70.1326C64.5552 69.0749 65.7179 67.8664 66.8579 66.4925C67.998 65.1187 69.0774 63.5848 70.1089 61.8891C71.1403 60.1933 72.0318 58.3224 72.8211 56.2712L72.8102 56.2857Z" fill="currentColor"/>
<path d="M31.1776 66.7097L27.6966 66.4869L28.3991 57.6948L31.8802 57.9176L31.1776 66.7097ZM37.4065 67.1059L33.9255 66.8831L34.628 58.091L38.1091 58.3138L37.4065 67.1059Z" fill="currentColor"/>
<path d="M28.6438 60.6671L28.8952 57.1821L38.043 57.8359L37.7916 61.3209L28.6438 60.6671ZM28.1965 66.9029L28.448 63.418L37.5957 64.0718L37.3443 67.5568L28.1965 66.9029Z" fill="currentColor"/>
<path d="M21.5081 50.1141L19.3133 47.3853L26.2885 41.5723L28.4833 44.3011L21.5081 50.1141ZM25.4467 54.9937L23.2519 52.2649L30.2271 46.4519L32.4219 49.1807L25.4467 54.9937Z" fill="currentColor"/>
<path d="M24.047 43.7003L26.6767 41.5191L32.3308 48.516L29.7011 50.6973L24.047 43.7003ZM19.3447 47.6146L21.9744 45.4334L27.6285 52.4303L24.9988 54.6116L19.3447 47.6146Z" fill="currentColor"/>
<path d="M36.218 43.9836L36.7838 40.5796L45.6414 42.0787L45.0755 45.4828L36.218 43.9836ZM35.2025 50.0593L35.7684 46.6553L44.626 48.1544L44.0601 51.5584L35.2025 50.0593Z" fill="currentColor"/>
<path d="M42.6952 41.6175L46.0993 42.1834L44.6001 51.0409L41.1961 50.4751L42.6952 41.6175ZM36.6195 40.6021L40.0236 41.168L38.5244 50.0255L35.1204 49.4596L36.6195 40.6021Z" fill="currentColor"/>
<path d="M53.9422 50.4825L56.0748 47.6954L63.5529 53.0171L61.4203 55.8042L53.9422 50.4825ZM50.139 55.4687L52.2716 52.6816L59.7497 58.0033L57.6171 60.7904L50.139 55.4687Z" fill="currentColor"/>
<path d="M60.7528 51.3961L63.6105 53.438L58.0519 60.7308L55.1942 58.689L60.7528 51.3961ZM55.6399 47.755L58.4977 49.7968L52.9391 57.0897L50.0813 55.0479L55.6399 47.755Z" fill="currentColor"/>
<path d="M54.1211 26.6275L57.4587 25.772L59.6937 34.5495L56.356 35.405L54.1211 26.6275ZM48.1737 28.1617L51.5114 27.3062L53.7463 36.0836L50.4087 36.9391L48.1737 28.1617Z" fill="currentColor"/>
<path d="M58.4739 31.7904L59.3294 35.1281L50.5519 37.363L49.6964 34.0254L58.4739 31.7904ZM56.9398 25.8431L57.7953 29.1807L49.0178 31.4157L48.1623 28.0781L56.9398 25.8431Z" fill="currentColor"/>
<path d="M41.577 22.1326L44.8458 23.317L41.8118 31.9065L38.543 30.722L41.577 22.1326ZM34.9415 22.329L39.0104 21.2017L35.9765 29.7912L32.7077 28.6067L34.9415 22.329Z" fill="currentColor"/>
<path d="M42.6801 29.0165L41.4926 32.3956L32.7936 29.2277L33.9811 25.8485L42.6801 29.0165ZM44.801 22.9841L43.6134 26.3633L34.9144 23.1953L38.1981 20.8714L44.7899 22.9989L44.801 22.9841Z" fill="currentColor"/>
<path d="M13.5449 31.4316C13.3726 31.3146 12.9322 31.426 13.5449 31.4316C16.11 33.2399 20.624 36.826 20.5018 40.306C20.3797 43.7859 18.5544 47.4736 15.484 49.3894C12.6298 51.1733 9.1703 51.8644 5.36725 52.4237L4.93425 49.2626L4.93564 48.2273C8.60821 47.5709 11.6254 48.3077 14.6155 44.6649C17.6184 41.0204 16.0874 37.4474 11.608 35.1601C12.3556 33.8692 12.8816 32.6726 13.5576 31.4298L13.5449 31.4316Z" fill="currentColor"/>
<path d="M23.5688 22.9513C25.9338 26.5134 28.5549 30.3383 24.1968 33.1114C21.184 35.0267 18.2222 33.7226 13.6586 30.8373C13.6014 30.7027 11.6252 34.7039 11.4198 35.0948C11.4198 35.0948 16.7381 38.5761 20.8117 38.6399C24.8979 38.7019 27.4659 36.8476 30.9677 32.171C32.7423 29.8165 29.8418 22.8174 27.297 20.5883" fill="currentColor"/>
<path d="M41.9287 8.12651C44.6639 11.4738 45.2812 16.1652 43.7441 19.9025C41.3752 25.6928 38.4824 27.1041 33.8812 27.0316C29.2817 26.9719 27.1947 25.0325 23.9798 23.1694L27.5707 20.1138C30.9293 21.9182 35.193 23.3122 37.2849 21.5941C39.9576 19.4061 39.5094 13.3641 37.8396 9.20718C37.5907 8.59058 38.0423 7.91708 38.693 7.95809L41.9269 8.11373L41.9287 8.12651Z" fill="currentColor"/>
</svg>
