<?xml version="1.0" encoding="UTF-8" standalone="no"?>
<!DOCTYPE svg PUBLIC "-//W3C//DTD SVG 1.1//EN" "http://www.w3.org/Graphics/SVG/1.1/DTD/svg11.dtd">
<svg width="100%" height="100%" viewBox="0 0 632 700" version="1.1" xmlns="http://www.w3.org/2000/svg" xmlns:xlink="http://www.w3.org/1999/xlink" xml:space="preserve" xmlns:serif="http://www.serif.com/" style="fill-rule:evenodd;clip-rule:evenodd;stroke-linejoin:round;stroke-miterlimit:2;">
    <g transform="matrix(1,0,0,1,-18158.8,-1404.39)">
        <g transform="matrix(1,0,0,1,16947.8,1231.23)">
            <g transform="matrix(1,0,0,1,-16947.8,-1231.23)">
                <path d="M18486.6,1404.39C18490.1,1404.4 18493.9,1404.49 18498,1404.67C18507.2,1405.07 18517.5,1406.28 18528.7,1408.29C18539.9,1410.31 18551.9,1413.3 18564.6,1417.27C18577.3,1421.24 18590.4,1426.51 18603.7,1433.07C18617.1,1439.63 18630.5,1447.62 18644.1,1457.06C18657.7,1466.5 18670.9,1477.66 18683.8,1490.55C18696.8,1503.56 18708,1516.82 18717.4,1530.35C18726.8,1543.87 18734.7,1557.31 18741.3,1570.65C18747.9,1584.01 18753.1,1597.04 18757.1,1609.76C18761.1,1622.47 18764.1,1634.44 18766.1,1645.66C18768.1,1656.89 18769.3,1667.13 18769.7,1676.39C18770.1,1685.66 18770.1,1693.51 18769.6,1699.96L18769.6,1699.96L18769.6,1699.96C18770.1,1706.41 18770.1,1714.26 18769.7,1723.53C18769.3,1732.79 18768.1,1743.03 18766.1,1754.26C18764,1765.48 18761.1,1777.44 18757.1,1790.16C18753.1,1802.88 18747.9,1815.91 18741.3,1829.26C18734.7,1842.61 18726.8,1856.05 18717.4,1869.57C18708,1883.1 18696.8,1896.36 18683.8,1909.37C18679.2,1913.96 18674.6,1918.33 18669.9,1922.48L18790,2058.3L18769.5,2103.71L18541.3,2103.71L18561.4,2059.19L18729.7,2058.98L18730.1,2058.09L18634.2,1949.51C18623.9,1956.12 18613.8,1961.89 18603.7,1966.85C18590.4,1973.41 18577.3,1978.68 18564.6,1982.65C18551.9,1986.62 18539.9,1989.61 18528.7,1991.63C18517.5,1993.64 18507.2,1994.85 18498,1995.25C18493.9,1995.43 18490.1,1995.52 18486.6,1995.53L18485.9,1995.53C18481.6,1995.53 18477.8,1995.41 18474.4,1995.16L18474.4,1995.12L18474.4,1995.17C18471.2,1995.4 18467.6,1995.52 18463.7,1995.53L18462.9,1995.54C18459.2,1995.54 18455.2,1995.44 18450.8,1995.25C18441.6,1994.85 18431.3,1993.64 18420.1,1991.63C18408.9,1989.61 18396.9,1986.62 18384.2,1982.65C18371.5,1978.68 18358.4,1973.41 18345.1,1966.86C18335,1961.9 18324.8,1956.12 18314.6,1949.52L18218.7,2058.09L18219.1,2058.98L18387.4,2059.19L18407.4,2103.71L18179.3,2103.71L18158.8,2058.3L18278.9,1922.48C18274.2,1918.33 18269.6,1913.96 18265,1909.37C18252,1896.36 18240.8,1883.1 18231.4,1869.58C18222,1856.05 18214.1,1842.62 18207.5,1829.27C18200.9,1815.92 18195.7,1802.88 18191.7,1790.16C18187.7,1777.45 18184.7,1765.48 18182.7,1754.26C18180.7,1743.04 18179.5,1732.79 18179.1,1723.53C18178.7,1714.26 18178.7,1706.41 18179.2,1699.96L18179.2,1699.96L18179.2,1699.96C18178.7,1693.52 18178.7,1685.66 18179.1,1676.39C18179.5,1667.13 18180.7,1656.89 18182.7,1645.67C18184.7,1634.44 18187.7,1622.48 18191.7,1609.76C18195.7,1597.04 18200.9,1584.01 18207.5,1570.66C18214.1,1557.31 18222,1543.87 18231.4,1530.35C18240.8,1516.82 18252,1503.56 18265,1490.56C18277.9,1477.66 18291.1,1466.5 18304.7,1457.06C18318.3,1447.63 18331.7,1439.63 18345.1,1433.07C18358.4,1426.51 18371.5,1421.24 18384.2,1417.27C18396.9,1413.3 18408.9,1410.31 18420.1,1408.3C18431.3,1406.28 18441.6,1405.07 18450.8,1404.67C18460.1,1404.27 18468,1404.3 18474.4,1404.76L18474.4,1404.8L18474.4,1404.75C18477.8,1404.51 18481.6,1404.39 18485.9,1404.39L18486.6,1404.39ZM18474.4,1447.31C18461.9,1447.95 18449,1449.59 18435.6,1452.23C18421.5,1454.99 18407.1,1459.42 18392.4,1465.52C18380.5,1470.43 18368.6,1476.62 18356.5,1484.09L18356.5,1484.13L18261.2,1577.81C18252.5,1591.35 18245.4,1604.74 18240,1617.96C18233.9,1632.69 18229.4,1647.08 18226.7,1661.12C18224,1674.54 18222.4,1687.5 18221.7,1699.98C18222.4,1712.45 18224,1725.39 18226.7,1738.81C18229.4,1752.85 18233.9,1767.23 18240,1781.96C18246.1,1796.7 18254.1,1811.63 18264.2,1826.76C18274.3,1841.9 18286.9,1857.06 18302.1,1872.25C18317.3,1887.44 18332.5,1900.08 18347.6,1910.14C18362.7,1920.22 18377.7,1928.3 18392.4,1934.4C18407.1,1940.5 18421.5,1944.93 18435.6,1947.69C18449,1950.33 18461.9,1951.97 18474.4,1952.62C18486.9,1951.97 18499.8,1950.33 18513.2,1947.69C18527.3,1944.93 18541.7,1940.5 18556.4,1934.4C18571.1,1928.3 18586.1,1920.21 18601.2,1910.14C18616.3,1900.07 18631.5,1887.44 18646.7,1872.25C18661.9,1857.06 18674.5,1841.89 18684.6,1826.76C18694.7,1811.63 18702.7,1796.69 18708.8,1781.96C18714.9,1767.23 18719.4,1752.85 18722.1,1738.8C18724.8,1725.39 18726.4,1712.45 18727.1,1699.98L18727.1,1699.94C18726.4,1687.47 18724.8,1674.53 18722.1,1661.12C18719.4,1647.07 18714.9,1632.69 18708.8,1617.96C18702.7,1603.23 18694.7,1588.29 18684.6,1573.16C18674.5,1558.02 18661.9,1542.86 18646.7,1527.67C18631.5,1512.48 18616.3,1499.85 18601.2,1489.78C18586.1,1479.71 18571.1,1471.62 18556.4,1465.52C18541.7,1459.42 18527.3,1454.99 18513.2,1452.23C18499.8,1449.59 18486.9,1447.95 18474.4,1447.31ZM18421,1549.78L18384.9,1513.04L18289,1607.33L18325.1,1644.07L18421,1549.78Z" style="fill:currentColor;fill-rule:nonzero;"/>
            </g>
        </g>
    </g>
</svg>
