<?xml version="1.0" encoding="UTF-8" standalone="no"?>
<!DOCTYPE svg PUBLIC "-//W3C//DTD SVG 1.1//EN" "http://www.w3.org/Graphics/SVG/1.1/DTD/svg11.dtd">
<svg width="100%" height="100%" viewBox="0 0 35 39" version="1.1" xmlns="http://www.w3.org/2000/svg" xmlns:xlink="http://www.w3.org/1999/xlink" xml:space="preserve" xmlns:serif="http://www.serif.com/" style="fill-rule:evenodd;clip-rule:evenodd;">
    <g transform="matrix(1,0,0,1,2.23442,2.17045)">
        <path d="M28.834,33.575L0.858,33.575L0.858,0.922L19.777,0.922L28.834,9.98L28.834,33.575Z" style="fill:white;fill-rule:nonzero;stroke:black;stroke-width:1.5px;"/>
        <path d="M20.19,1.211L20.283,10.04L28.652,10.04" style="fill:none;fill-rule:nonzero;stroke:black;stroke-width:1.5px;"/>
        <path d="M7.324,29.997C7.138,29.997 6.977,29.934 6.841,29.808C6.711,29.678 6.645,29.512 6.645,29.311C6.645,29.111 6.711,28.95 6.841,28.828C6.977,28.702 7.138,28.639 7.324,28.639C7.516,28.639 7.677,28.702 7.807,28.828C7.938,28.95 8.003,29.111 8.003,29.311C8.003,29.512 7.938,29.678 7.807,29.808C7.677,29.934 7.516,29.997 7.324,29.997ZM10.499,30.025C10.107,30.025 9.731,29.974 9.372,29.871C9.012,29.764 8.723,29.626 8.504,29.458L8.889,28.604C9.099,28.754 9.346,28.877 9.631,28.975C9.92,29.069 10.212,29.115 10.506,29.115C10.73,29.115 10.909,29.094 11.045,29.052C11.185,29.006 11.287,28.943 11.353,28.863C11.418,28.784 11.451,28.693 11.451,28.59C11.451,28.46 11.399,28.357 11.297,28.282C11.194,28.203 11.059,28.14 10.891,28.093C10.723,28.042 10.536,27.995 10.331,27.953C10.13,27.907 9.927,27.851 9.722,27.785C9.521,27.72 9.337,27.636 9.169,27.533C9.001,27.431 8.863,27.295 8.756,27.127C8.653,26.959 8.602,26.745 8.602,26.483C8.602,26.203 8.676,25.949 8.826,25.72C8.98,25.487 9.208,25.303 9.512,25.167C9.82,25.027 10.205,24.957 10.667,24.957C10.975,24.957 11.278,24.995 11.577,25.069C11.875,25.139 12.139,25.247 12.368,25.391L12.018,26.252C11.789,26.122 11.56,26.026 11.332,25.965C11.103,25.9 10.879,25.867 10.66,25.867C10.44,25.867 10.261,25.893 10.121,25.944C9.981,25.996 9.88,26.063 9.82,26.147C9.759,26.227 9.729,26.32 9.729,26.427C9.729,26.553 9.78,26.656 9.883,26.735C9.985,26.81 10.121,26.871 10.289,26.917C10.457,26.964 10.641,27.011 10.842,27.057C11.047,27.104 11.25,27.158 11.451,27.218C11.656,27.279 11.843,27.361 12.011,27.463C12.179,27.566 12.314,27.701 12.417,27.869C12.524,28.037 12.578,28.25 12.578,28.506C12.578,28.782 12.501,29.034 12.347,29.262C12.193,29.491 11.962,29.675 11.654,29.815C11.35,29.955 10.965,30.025 10.499,30.025ZM14.823,29.941L12.709,25.041L13.934,25.041L15.781,29.381L15.06,29.381L16.937,25.041L18.064,25.041L15.943,29.941L14.823,29.941ZM20.777,30.025C20.39,30.025 20.033,29.965 19.706,29.843C19.384,29.717 19.102,29.54 18.859,29.311C18.621,29.083 18.434,28.814 18.299,28.506C18.168,28.198 18.103,27.86 18.103,27.491C18.103,27.123 18.168,26.784 18.299,26.476C18.434,26.168 18.623,25.9 18.866,25.671C19.109,25.443 19.393,25.268 19.72,25.146C20.047,25.02 20.406,24.957 20.798,24.957C21.232,24.957 21.622,25.03 21.967,25.174C22.317,25.319 22.611,25.529 22.849,25.804L22.121,26.476C21.944,26.29 21.75,26.152 21.54,26.063C21.33,25.97 21.101,25.923 20.854,25.923C20.616,25.923 20.399,25.961 20.203,26.035C20.007,26.11 19.837,26.217 19.692,26.357C19.552,26.497 19.442,26.663 19.363,26.854C19.288,27.046 19.251,27.258 19.251,27.491C19.251,27.72 19.288,27.93 19.363,28.121C19.442,28.313 19.552,28.481 19.692,28.625C19.837,28.765 20.005,28.873 20.196,28.947C20.392,29.022 20.607,29.059 20.84,29.059C21.064,29.059 21.281,29.024 21.491,28.954C21.706,28.88 21.913,28.756 22.114,28.583L22.758,29.402C22.492,29.603 22.182,29.757 21.827,29.864C21.477,29.972 21.127,30.025 20.777,30.025ZM21.722,29.255L21.722,27.414L22.758,27.414L22.758,29.402L21.722,29.255Z" style="fill-rule:nonzero;"/>
        <path d="M14.472,12.905L6.844,17.149L6.844,4.883" style="fill:none;fill-rule:nonzero;stroke:rgb(217,217,217);stroke-width:1.4px;"/>
        <g transform="matrix(-0.125517,-0.992091,0.992091,-0.125517,-11.4942,26.4926)">
            <rect x="5.929" y="18.312" width="2.277" height="2.277" style="fill:white;stroke:rgb(217,217,217);stroke-width:0.7px;"/>
        </g>
        <path d="M13.972,12.938L20.497,20.552L24.941,16.045" style="fill:none;fill-rule:nonzero;stroke:rgb(217,217,217);stroke-width:1.4px;"/>
        <path d="M12.685,12.611L14.533,11.281L15.863,13.129L14.015,14.459L12.685,12.611Z" style="fill:white;fill-rule:nonzero;stroke:rgb(217,217,217);stroke-width:0.7px;"/>
        <g transform="matrix(0.751483,-0.659753,0.659753,0.751483,-8.73628,17.5667)">
            <rect x="18.95" y="20.38" width="2.273" height="2.273" style="fill:white;stroke:rgb(217,217,217);stroke-width:0.7px;"/>
        </g>
    </g>
</svg>
