<?xml version="1.0" encoding="UTF-8" standalone="no"?>
<!DOCTYPE svg PUBLIC "-//W3C//DTD SVG 1.1//EN" "http://www.w3.org/Graphics/SVG/1.1/DTD/svg11.dtd">
<svg width="100%" height="100%" viewBox="0 0 35 39" version="1.1" xmlns="http://www.w3.org/2000/svg" xmlns:xlink="http://www.w3.org/1999/xlink" xml:space="preserve" xmlns:serif="http://www.serif.com/" style="fill-rule:evenodd;clip-rule:evenodd;">
    <g transform="matrix(1,0,0,1,2.20561,2.17045)">
        <path d="M28.863,33.575L0.887,33.575L0.887,0.922L19.805,0.922L28.863,9.98L28.863,33.575Z" style="fill:white;fill-rule:nonzero;stroke:black;stroke-width:1.5px;"/>
        <path d="M20.219,1.211L20.312,10.04L28.681,10.04" style="fill:none;fill-rule:nonzero;stroke:black;stroke-width:1.5px;"/>
        <path d="M7.22,29.997C7.033,29.997 6.872,29.934 6.737,29.808C6.606,29.678 6.541,29.512 6.541,29.311C6.541,29.111 6.606,28.95 6.737,28.828C6.872,28.702 7.033,28.639 7.22,28.639C7.411,28.639 7.572,28.702 7.703,28.828C7.833,28.95 7.899,29.111 7.899,29.311C7.899,29.512 7.833,29.678 7.703,29.808C7.572,29.934 7.411,29.997 7.22,29.997ZM8.716,29.941L8.716,25.041L10.837,25.041C11.275,25.041 11.653,25.114 11.971,25.258C12.288,25.398 12.533,25.601 12.706,25.867C12.878,26.133 12.965,26.451 12.965,26.819C12.965,27.183 12.878,27.498 12.706,27.764C12.533,28.03 12.288,28.236 11.971,28.38C11.653,28.52 11.275,28.59 10.837,28.59L9.346,28.59L9.85,28.079L9.85,29.941L8.716,29.941ZM9.85,28.205L9.346,27.666L10.774,27.666C11.124,27.666 11.385,27.592 11.558,27.442C11.73,27.293 11.817,27.085 11.817,26.819C11.817,26.549 11.73,26.339 11.558,26.189C11.385,26.04 11.124,25.965 10.774,25.965L9.346,25.965L9.85,25.426L9.85,28.205ZM13.774,29.941L13.774,25.041L16,25.041C16.532,25.041 17.001,25.144 17.407,25.349C17.813,25.55 18.131,25.832 18.359,26.196C18.588,26.56 18.702,26.992 18.702,27.491C18.702,27.986 18.588,28.418 18.359,28.786C18.131,29.15 17.813,29.435 17.407,29.64C17.001,29.841 16.532,29.941 16,29.941L13.774,29.941ZM14.908,29.01L15.944,29.01C16.271,29.01 16.553,28.95 16.791,28.828C17.034,28.702 17.221,28.525 17.351,28.296C17.487,28.068 17.554,27.799 17.554,27.491C17.554,27.179 17.487,26.91 17.351,26.686C17.221,26.458 17.034,26.283 16.791,26.161C16.553,26.035 16.271,25.972 15.944,25.972L14.908,25.972L14.908,29.01ZM20.608,27.246L22.96,27.246L22.96,28.156L20.608,28.156L20.608,27.246ZM20.692,29.941L19.558,29.941L19.558,25.041L23.261,25.041L23.261,25.951L20.692,25.951L20.692,29.941Z" style="fill-rule:nonzero;"/>
        <path d="M5.243,13.316L24.404,13.316" style="fill:none;fill-rule:nonzero;stroke:rgb(217,217,217);stroke-width:2px;"/>
        <path d="M5.243,9.469L17.083,9.469" style="fill:none;fill-rule:nonzero;stroke:rgb(217,217,217);stroke-width:2px;"/>
        <path d="M5.243,5.621L17.083,5.621" style="fill:none;fill-rule:nonzero;stroke:rgb(217,217,217);stroke-width:2px;"/>
        <path d="M5.249,17.164L24.409,17.164" style="fill:none;fill-rule:nonzero;stroke:rgb(217,217,217);stroke-width:2px;"/>
        <path d="M5.243,21.012L24.403,21.012" style="fill:none;fill-rule:nonzero;stroke:rgb(217,217,217);stroke-width:2px;"/>
    </g>
</svg>
