<?xml version="1.0" encoding="UTF-8" standalone="no"?>
<!DOCTYPE svg PUBLIC "-//W3C//DTD SVG 1.1//EN" "http://www.w3.org/Graphics/SVG/1.1/DTD/svg11.dtd">
<svg width="100%" height="100%" viewBox="0 0 35 39" version="1.1" xmlns="http://www.w3.org/2000/svg" xmlns:xlink="http://www.w3.org/1999/xlink" xml:space="preserve" xmlns:serif="http://www.serif.com/" style="fill-rule:evenodd;clip-rule:evenodd;">
    <g transform="matrix(1,0,0,1,2.20561,2.17045)">
        <g>
            <path d="M28.863,33.575L0.887,33.575L0.887,0.922L19.805,0.922L28.863,9.98L28.863,33.575Z" style="fill:white;fill-rule:nonzero;stroke:black;stroke-width:1.5px;"/>
            <path d="M20.219,1.211L20.312,10.04L28.681,10.04" style="fill:none;fill-rule:nonzero;stroke:black;stroke-width:1.5px;"/>
            <path d="M8.238,29.941L8.238,25.041L9.372,25.041L9.372,29.941L8.238,29.941ZM10.535,29.941L10.535,25.041L11.473,25.041L13.559,28.499L13.062,28.499L15.113,25.041L16.044,25.041L16.058,29.941L14.994,29.941L14.987,26.672L15.183,26.672L13.545,29.423L13.034,29.423L11.361,26.672L11.599,26.672L11.599,29.941L10.535,29.941ZM19.587,30.025C19.199,30.025 18.842,29.965 18.516,29.843C18.194,29.717 17.911,29.54 17.669,29.311C17.431,29.083 17.244,28.814 17.109,28.506C16.978,28.198 16.913,27.86 16.913,27.491C16.913,27.123 16.978,26.784 17.109,26.476C17.244,26.168 17.433,25.9 17.676,25.671C17.918,25.443 18.203,25.268 18.53,25.146C18.856,25.02 19.216,24.957 19.608,24.957C20.042,24.957 20.431,25.03 20.777,25.174C21.127,25.319 21.421,25.529 21.659,25.804L20.931,26.476C20.753,26.29 20.56,26.152 20.35,26.063C20.14,25.97 19.911,25.923 19.664,25.923C19.426,25.923 19.209,25.961 19.013,26.035C18.817,26.11 18.646,26.217 18.502,26.357C18.362,26.497 18.252,26.663 18.173,26.854C18.098,27.046 18.061,27.258 18.061,27.491C18.061,27.72 18.098,27.93 18.173,28.121C18.252,28.313 18.362,28.481 18.502,28.625C18.646,28.765 18.814,28.873 19.006,28.947C19.202,29.022 19.416,29.059 19.65,29.059C19.874,29.059 20.091,29.024 20.301,28.954C20.515,28.88 20.723,28.756 20.924,28.583L21.568,29.402C21.302,29.603 20.991,29.757 20.637,29.864C20.287,29.972 19.937,30.025 19.587,30.025ZM20.532,29.255L20.532,27.414L21.568,27.414L21.568,29.402L20.532,29.255Z" style="fill-rule:nonzero;"/>
            <path d="M9.151,8.961L1.63,15.877L1.63,22.066L28.068,22.066L28.068,16.788L23.24,13.633L15.96,16.788L9.151,8.961Z" style="fill:rgb(217,217,217);fill-rule:nonzero;"/>
            <circle cx="15.835" cy="7.805" r="1.363" style="fill:rgb(217,217,217);stroke:rgb(217,217,217);stroke-width:1px;"/>
        </g>
    </g>
</svg>
