<?xml version="1.0" encoding="UTF-8" standalone="no"?>
<!DOCTYPE svg PUBLIC "-//W3C//DTD SVG 1.1//EN" "http://www.w3.org/Graphics/SVG/1.1/DTD/svg11.dtd">
<svg width="100%" height="100%" viewBox="0 0 35 39" version="1.1" xmlns="http://www.w3.org/2000/svg" xmlns:xlink="http://www.w3.org/1999/xlink" xml:space="preserve" xmlns:serif="http://www.serif.com/" style="fill-rule:evenodd;clip-rule:evenodd;">
    <g transform="matrix(1,0,0,1,2.09257,2.17045)">
        <path d="M28.976,33.575L1,33.575L1,0.922L19.918,0.922L28.976,9.98L28.976,33.575Z" style="fill:white;fill-rule:nonzero;stroke:black;stroke-width:1.5px;"/>
        <path d="M20.332,1.211L20.425,10.04L28.794,10.04" style="fill:none;fill-rule:nonzero;stroke:black;stroke-width:1.5px;"/>
        <path d="M7.851,29.978C7.664,29.978 7.503,29.915 7.368,29.789C7.237,29.658 7.172,29.493 7.172,29.292C7.172,29.091 7.237,28.93 7.368,28.809C7.503,28.683 7.664,28.62 7.851,28.62C8.042,28.62 8.203,28.683 8.334,28.809C8.464,28.93 8.53,29.091 8.53,29.292C8.53,29.493 8.464,29.658 8.334,29.789C8.203,29.915 8.042,29.978 7.851,29.978ZM9.127,29.922L9.127,29.187L12.158,25.533L12.298,25.946L9.183,25.946L9.183,25.022L13.306,25.022L13.306,25.757L10.282,29.411L10.142,28.998L13.411,28.998L13.411,29.922L9.127,29.922ZM14.139,29.922L14.139,25.022L15.273,25.022L15.273,29.922L14.139,29.922ZM16.436,29.922L16.436,25.022L18.557,25.022C18.995,25.022 19.373,25.094 19.691,25.239C20.008,25.379 20.253,25.582 20.426,25.848C20.598,26.114 20.685,26.431 20.685,26.8C20.685,27.164 20.598,27.479 20.426,27.745C20.253,28.011 20.008,28.216 19.691,28.361C19.373,28.501 18.995,28.571 18.557,28.571L17.066,28.571L17.57,28.06L17.57,29.922L16.436,29.922ZM17.57,28.186L17.066,27.647L18.494,27.647C18.844,27.647 19.105,27.572 19.278,27.423C19.45,27.273 19.537,27.066 19.537,26.8C19.537,26.529 19.45,26.319 19.278,26.17C19.105,26.02 18.844,25.946 18.494,25.946L17.066,25.946L17.57,25.407L17.57,28.186Z" style="fill-rule:nonzero;"/>
        <path d="M18.59,1.672L18.59,3.797L16.07,3.797L16.07,5.922L18.844,5.922L18.844,8.047L16.07,8.047L16.07,10.172L18.844,10.172L18.844,12.297L16.07,12.297L16.07,14.41L18.525,14.41L18.525,16.535L16.058,16.535L16.058,18.588C16.058,19.301 15.48,19.879 14.767,19.879C14.054,19.879 13.476,19.301 13.476,18.588L13.476,14.422L11.035,14.422L11.035,12.297L13.808,12.297L13.808,10.172L11.035,10.172L11.035,8.047L13.808,8.047L13.808,5.922L11.035,5.922L11.035,3.797L13.554,3.797L13.554,1.672L18.59,1.672Z" style="fill:rgb(217,217,217);"/>
    </g>
</svg>
