<?xml version="1.0" encoding="UTF-8" standalone="no"?>
<!DOCTYPE svg PUBLIC "-//W3C//DTD SVG 1.1//EN" "http://www.w3.org/Graphics/SVG/1.1/DTD/svg11.dtd">
<svg width="100%" height="100%" viewBox="0 0 500 500" version="1.1" xmlns="http://www.w3.org/2000/svg" xmlns:xlink="http://www.w3.org/1999/xlink" xml:space="preserve" xmlns:serif="http://www.serif.com/" style="fill-rule:evenodd;clip-rule:evenodd;stroke-linejoin:round;stroke-miterlimit:2;">
    <g transform="matrix(1,0,0,1,-49931.4,-3454.78)">
        <g transform="matrix(1,0,0,1,48654.7,3231.23)">
            <g transform="matrix(0.774815,0.00590313,-0.00590313,0.774815,-37319.6,-2693.09)">
                <path d="M49984.8,3896.8C49984.4,3897.46 49984.3,3897.79 49984.3,3897.76L49903.2,4029.02L49843.7,3969.26L50149,3475.01L50149.7,3474.03C50154.6,3467.69 50160.4,3461.05 50167.4,3454.12C50174.2,3447.22 50182.2,3440.27 50191.2,3433.28L50191.3,3433.16C50200.3,3426.13 50210.4,3419.51 50221.6,3413.3C50232.8,3407.09 50245,3401.51 50258.2,3396.56C50271.5,3391.61 50285.9,3387.74 50301.4,3384.93C50316.9,3382.14 50331.7,3380.75 50345.9,3380.74C50360.1,3380.74 50373.5,3381.69 50386.2,3383.6C50394.2,3384.82 50401.9,3386.34 50409.3,3388.22L50410.1,3388.41C50414,3389.37 50417.8,3390.45 50421.5,3391.61C50432.4,3395.04 50442.4,3398.8 50451.3,3402.87C50460.2,3406.95 50468,3411.12 50474.7,3415.37C50478.5,3417.73 50481.8,3419.96 50484.8,3422.09L50222.1,3847.33C50215.3,3844.68 50208.2,3842.31 50200.8,3840.21C50189.3,3836.97 50177,3834.85 50163.8,3833.83C50154.3,3833.1 50144.3,3833.08 50134,3833.81L50133.2,3833.86C50129.3,3834.11 50125.4,3834.48 50121.4,3834.95C50106.4,3836.73 50090.4,3840.39 50073.4,3845.94C50061.6,3849.79 50050.7,3854.1 50040.8,3858.86C50022.9,3867.62 50004.9,3879.4 49984.8,3896.8ZM50075.4,3752.27C50082.5,3750.58 50089.6,3749.27 50096.5,3748.31C50110.6,3746.36 50124,3745.46 50136.8,3745.63C50149.6,3745.79 50161.6,3746.83 50172.9,3748.73C50177.1,3749.43 50181.2,3750.2 50185.1,3751.07C50185.1,3751.07 50358.7,3469.98 50358.7,3469.98L50358.7,3469.98C50343.6,3469.68 50327.2,3471.12 50309.6,3474.3C50292,3477.47 50276.2,3481.84 50262.2,3487.4C50249.4,3492.45 50237.9,3498.16 50227.5,3504.57L50227,3504.88L50074,3752.62L50074.7,3752.44L50075.4,3752.27Z" />
            </g>
        </g>
    </g>
</svg>
