<?xml version="1.0" encoding="UTF-8" standalone="no"?>
<!DOCTYPE svg PUBLIC "-//W3C//DTD SVG 1.1//EN" "http://www.w3.org/Graphics/SVG/1.1/DTD/svg11.dtd">
<svg width="100%" height="100%" viewBox="0 0 120 510" version="1.1" xmlns="http://www.w3.org/2000/svg" xmlns:xlink="http://www.w3.org/1999/xlink" xml:space="preserve" xmlns:serif="http://www.serif.com/" style="fill-rule:evenodd;clip-rule:evenodd;stroke-linejoin:round;stroke-miterlimit:2;">
    <g transform="matrix(1,0,0,1,-50121.5,-8490.36)">
        <g transform="matrix(1,0,0,1,48654.7,8231.23)">
            <g transform="matrix(0.774838,0,0,0.774838,-37355.8,-6262.2)">
                <path d="M50141.6,8435.83L50223.1,8416.38L50223.1,8845.61L50141.6,8865.06L50141.6,8435.83Z" style="fill:currentColor;"/>
            </g>
        </g>
        <g transform="matrix(1,0,0,1,48654.7,8231.23)">
            <g transform="matrix(0.83441,0,0,0.83441,-7403.25,1356.15)">
                <path d="M10702,-810.822L10722.3,-799.122C10722.3,-799.122 10722.3,-775.724 10722.3,-775.724L10702,-764.025L10681.7,-775.724L10681.7,-799.122L10702,-810.822ZM10702,-704.542L10630.2,-745.982L10630.2,-828.864L10702,-870.304L10773.8,-828.864L10773.8,-745.982L10702,-704.542Z" style="fill:currentColor;"/>
            </g>
        </g>
    </g>
</svg>
