<?xml version="1.0" encoding="UTF-8" standalone="no"?>
<!DOCTYPE svg PUBLIC "-//W3C//DTD SVG 1.1//EN" "http://www.w3.org/Graphics/SVG/1.1/DTD/svg11.dtd">
<svg width="100%" height="100%" viewBox="0 0 750 1000" version="1.1" xmlns="http://www.w3.org/2000/svg" xmlns:xlink="http://www.w3.org/1999/xlink" xml:space="preserve" xmlns:serif="http://www.serif.com/" style="fill-rule:evenodd;clip-rule:evenodd;stroke-linejoin:round;stroke-miterlimit:2;">
    <g transform="matrix(1,0,0,1,-16177.6,-28855.8)">
        <g transform="matrix(1,0,0,1,15026,28855.8)">
            <g transform="matrix(1,0,0,1,-4971.3,-28855.8)">
                <path d="M6836.39,29080.1L6647.67,28892.3L6159.43,28892.3L6159.43,29819.3L6836.39,29819.3L6836.39,29080.1Z" style="fill:white;"/>
            </g>
            <g>
                <g transform="matrix(1,0,0,1,-3854.11,-29676.6)">
                    <path d="M5005.72,29676.6L5530.19,29676.6L5755.72,29902.7L5755.72,30676.6L5005.72,30676.6L5005.72,29676.6ZM5062.23,29733.1L5062.23,30620.1L5699.2,30620.1L5699.2,29959.2L5473.67,29959.2L5473.67,29733.1L5062.23,29733.1ZM5530.19,29902.7L5676.26,29902.7L5530.19,29756.6L5530.19,29902.7Z" style="fill:rgb(26,26,26);"/>
                </g>
                <g transform="matrix(1.21753,0,0,0.70255,-4211.28,-20770.6)">
                    <path d="M4543.92,30816.3C4538.97,30816.3 4534.81,30813.4 4531.42,30807.6C4528.04,30801.7 4526.35,30794.4 4526.35,30785.6C4526.35,30776.6 4528.04,30769.3 4531.42,30763.8C4534.81,30758.2 4538.97,30755.5 4543.92,30755.5C4548.87,30755.5 4553.04,30758.2 4556.42,30763.8C4559.8,30769.3 4561.49,30776.6 4561.49,30785.6C4561.49,30794.4 4559.8,30801.7 4556.42,30807.6C4553.04,30813.4 4548.87,30816.3 4543.92,30816.3Z" style="fill:rgb(26,26,26);fill-rule:nonzero;"/>
                    <path d="M4602.97,30635.5L4562.4,30635.5L4562.4,30594.1L4672.89,30594.1L4672.89,30635.5L4632.31,30635.5L4632.31,30813.8L4602.97,30813.8L4602.97,30635.5Z" style="fill:rgb(26,26,26);fill-rule:nonzero;"/>
                    <path d="M4763.09,30813.8L4732.48,30737.6L4702.41,30813.8L4668.72,30813.8L4715.63,30702.1L4671.07,30594.1L4704.4,30594.1L4733.56,30665.4L4762.18,30594.1L4793.88,30594.1L4749.68,30700.2L4796.96,30813.8L4763.09,30813.8Z" style="fill:rgb(26,26,26);fill-rule:nonzero;"/>
                    <path d="M4833.36,30635.5L4792.79,30635.5L4792.79,30594.1L4903.28,30594.1L4903.28,30635.5L4862.71,30635.5L4862.71,30813.8L4833.36,30813.8L4833.36,30635.5Z" style="fill:rgb(26,26,26);fill-rule:nonzero;"/>
                </g>
                <g transform="matrix(-2.09671e-17,1,0.328791,-1.02332e-16,-8040.36,-5017.68)">
                    <rect x="5130.72" y="28300.7" width="56.516" height="891.561" style="fill:rgb(26,26,26);fill-opacity:0.25;"/>
                </g>
                <g transform="matrix(1.07352e-17,1,0.58766,-8.64809e-17,-15366.5,-4791.62)">
                    <rect x="5130.72" y="28300.7" width="56.516" height="891.561" style="fill:rgb(26,26,26);fill-opacity:0.25;"/>
                </g>
                <g transform="matrix(-2.09671e-17,1,0.328791,-1.02332e-16,-8040.36,-4904.65)">
                    <rect x="5130.72" y="28300.7" width="56.516" height="891.561" style="fill:rgb(26,26,26);fill-opacity:0.25;"/>
                </g>
                <g transform="matrix(1.07352e-17,1,0.58766,-8.64809e-17,-15366.5,-4678.58)">
                    <rect x="5130.72" y="28300.7" width="56.516" height="891.561" style="fill:rgb(26,26,26);fill-opacity:0.25;"/>
                </g>
                <g transform="matrix(1.07352e-17,1,0.58766,-8.64809e-17,-15366.5,-4565.55)">
                    <rect x="5130.72" y="28300.7" width="56.516" height="891.561" style="fill:rgb(26,26,26);fill-opacity:0.25;"/>
                </g>
            </g>
        </g>
    </g>
</svg>
