<?xml version="1.0" encoding="UTF-8" standalone="no"?>
<!DOCTYPE svg PUBLIC "-//W3C//DTD SVG 1.1//EN" "http://www.w3.org/Graphics/SVG/1.1/DTD/svg11.dtd">
<svg width="100%" height="100%" viewBox="0 0 750 1000" version="1.1" xmlns="http://www.w3.org/2000/svg" xmlns:xlink="http://www.w3.org/1999/xlink" xml:space="preserve" xmlns:serif="http://www.serif.com/" style="fill-rule:evenodd;clip-rule:evenodd;stroke-linejoin:round;stroke-miterlimit:2;">
    <g transform="matrix(1,0,0,1,-9474.49,-28855.8)">
        <g transform="matrix(1,0,0,1,8322.88,28855.8)">
            <g transform="matrix(1,0,0,1,-4971.3,-28855.8)">
                <path d="M6836.39,29080.1L6647.67,28892.3L6159.43,28892.3L6159.43,29819.3L6836.39,29819.3L6836.39,29080.1Z" style="fill:white;"/>
            </g>
            <g>
                <g transform="matrix(1,0,0,1,-3854.11,-29676.6)">
                    <path d="M5005.72,29676.6L5530.19,29676.6L5755.72,29902.7L5755.72,30676.6L5005.72,30676.6L5005.72,29676.6ZM5062.23,29733.1L5062.23,30620.1L5699.2,30620.1L5699.2,29959.2L5473.67,29959.2L5473.67,29733.1L5062.23,29733.1ZM5530.19,29902.7L5676.26,29902.7L5530.19,29756.6L5530.19,29902.7Z" style="fill:rgb(26,26,26);"/>
                </g>
                <g transform="matrix(1.21692,0,0,0.702197,-4208.98,-20759.8)">
                    <path d="M4537.31,30816.3C4532.36,30816.3 4528.19,30813.4 4524.81,30807.6C4521.43,30801.7 4519.74,30794.4 4519.74,30785.6C4519.74,30776.6 4521.43,30769.3 4524.81,30763.8C4528.19,30758.2 4532.36,30755.5 4537.31,30755.5C4542.26,30755.5 4546.43,30758.2 4549.81,30763.8C4553.19,30769.3 4554.88,30776.6 4554.88,30785.6C4554.88,30794.4 4553.19,30801.7 4549.81,30807.6C4546.43,30813.4 4542.26,30816.3 4537.31,30816.3Z" style="fill:rgb(26,26,26);fill-rule:nonzero;"/>
                    <path d="M4655.95,30813.8L4625.34,30737.6L4595.27,30813.8L4561.58,30813.8L4608.49,30702.1L4563.94,30594.1L4597.26,30594.1L4626.43,30665.4L4655.04,30594.1L4686.74,30594.1L4642.55,30700.2L4689.82,30813.8L4655.95,30813.8Z" style="fill:rgb(26,26,26);fill-rule:nonzero;"/>
                    <path d="M4701.41,30594.1L4730.76,30594.1L4730.76,30772.4L4794.33,30772.4L4794.33,30813.8L4701.41,30813.8L4701.41,30594.1Z" style="fill:rgb(26,26,26);fill-rule:nonzero;"/>
                    <path d="M4851.75,30817.6C4841.73,30817.6 4832.03,30815.2 4822.68,30810.5C4813.32,30805.8 4805.8,30799.7 4800.13,30792.2L4810.09,30753.9C4815.52,30760.8 4821.98,30766.3 4829.47,30770.5C4836.96,30774.7 4844.44,30776.8 4851.93,30776.8C4860.26,30776.8 4866.42,30774.7 4870.4,30770.4C4874.39,30766.1 4876.38,30760.4 4876.38,30753.3C4876.38,30748 4875.2,30743.7 4872.85,30740.2C4870.49,30736.8 4867.48,30734 4863.79,30731.9C4860.11,30729.8 4855.13,30727.5 4848.85,30725C4839.19,30721 4831.28,30717.1 4825.12,30713.1C4818.96,30709.1 4813.68,30702.7 4809.27,30693.9C4804.87,30685.1 4802.66,30673.4 4802.66,30658.8C4802.66,30646 4804.65,30634.4 4808.64,30624.1C4812.62,30613.7 4818.63,30605.5 4826.66,30599.4C4834.69,30593.4 4844.5,30590.3 4856.1,30590.3C4864.19,30590.3 4872.1,30592 4879.82,30595.4C4887.55,30598.7 4894.31,30603.5 4900.11,30609.8L4891.05,30648.4C4879.34,30636.9 4867.63,30631.1 4855.91,30631.1C4847.7,30631.1 4841.64,30633.5 4837.71,30638.1C4833.79,30642.7 4831.82,30648.7 4831.82,30656.3C4831.82,30663.8 4834.09,30669.4 4838.62,30673.1C4843.14,30676.7 4850.06,30680.3 4859.36,30683.9C4869.02,30687.9 4876.93,30691.8 4883.08,30695.8C4889.24,30699.8 4894.52,30706.1 4898.93,30714.6C4903.34,30723.2 4905.54,30734.8 4905.54,30749.5C4905.54,30762 4903.52,30773.5 4899.48,30783.9C4895.43,30794.2 4889.36,30802.4 4881.27,30808.5C4873.18,30814.6 4863.34,30817.6 4851.75,30817.6Z" style="fill:rgb(26,26,26);fill-rule:nonzero;"/>
                </g>
                <g transform="matrix(-3.58433e-17,1,0.207317,-1.0977e-16,-4461.29,-4791.62)">
                    <rect x="5130.72" y="28300.7" width="56.516" height="891.561" style="fill:rgb(26,26,26);fill-opacity:0.25;"/>
                </g>
                <g transform="matrix(-3.58433e-17,1,0.207317,-1.0977e-16,-4461.29,-4678.58)">
                    <rect x="5130.72" y="28300.7" width="56.516" height="891.561" style="fill:rgb(26,26,26);fill-opacity:0.25;"/>
                </g>
                <g transform="matrix(-3.58433e-17,1,0.207317,-1.0977e-16,-4461.29,-4565.55)">
                    <rect x="5130.72" y="28300.7" width="56.516" height="891.561" style="fill:rgb(26,26,26);fill-opacity:0.25;"/>
                </g>
                <g transform="matrix(-3.79431e-17,1,0.190171,-1.1082e-16,-3762.95,-4791.62)">
                    <rect x="5130.72" y="28300.7" width="56.516" height="891.561" style="fill:rgb(26,26,26);fill-opacity:0.25;"/>
                </g>
                <g transform="matrix(-3.79431e-17,1,0.190171,-1.1082e-16,-3762.95,-4678.58)">
                    <rect x="5130.72" y="28300.7" width="56.516" height="891.561" style="fill:rgb(26,26,26);fill-opacity:0.25;"/>
                </g>
                <g transform="matrix(-3.79431e-17,1,0.190171,-1.1082e-16,-3762.95,-4565.55)">
                    <rect x="5130.72" y="28300.7" width="56.516" height="891.561" style="fill:rgb(26,26,26);fill-opacity:0.25;"/>
                </g>
                <g transform="matrix(-4.57062e-17,1,0.126781,-1.14702e-16,-2323.35,-4791.62)">
                    <rect x="5130.72" y="28300.7" width="56.516" height="891.561" style="fill:rgb(26,26,26);fill-opacity:0.25;"/>
                </g>
                <g transform="matrix(-4.57062e-17,1,0.126781,-1.14702e-16,-2323.35,-4678.58)">
                    <rect x="5130.72" y="28300.7" width="56.516" height="891.561" style="fill:rgb(26,26,26);fill-opacity:0.25;"/>
                </g>
                <g transform="matrix(-4.57062e-17,1,0.126781,-1.14702e-16,-2323.35,-4565.55)">
                    <rect x="5130.72" y="28300.7" width="56.516" height="891.561" style="fill:rgb(26,26,26);fill-opacity:0.25;"/>
                </g>
            </g>
        </g>
    </g>
</svg>
