<?xml version="1.0" encoding="UTF-8" standalone="no"?>
<!DOCTYPE svg PUBLIC "-//W3C//DTD SVG 1.1//EN" "http://www.w3.org/Graphics/SVG/1.1/DTD/svg11.dtd">
<svg width="100%" height="100%" viewBox="0 0 750 1000" version="1.1" xmlns="http://www.w3.org/2000/svg" xmlns:xlink="http://www.w3.org/1999/xlink" xml:space="preserve" xmlns:serif="http://www.serif.com/" style="fill-rule:evenodd;clip-rule:evenodd;stroke-linejoin:round;stroke-miterlimit:2;">
    <g transform="matrix(1,0,0,1,-11708.9,-28855.8)">
        <g transform="matrix(1,0,0,1,10557.3,28855.8)">
            <g transform="matrix(1,0,0,1,-4971.3,-28855.8)">
                <path d="M6836.39,29080.1L6647.67,28892.3L6159.43,28892.3L6159.43,29819.3L6836.39,29819.3L6836.39,29080.1Z" style="fill:white;"/>
            </g>
            <g>
                <g transform="matrix(1,0,0,1,-3854.11,-29676.6)">
                    <path d="M5005.72,29676.6L5530.19,29676.6L5755.72,29902.7L5755.72,30676.6L5005.72,30676.6L5005.72,29676.6ZM5062.23,29733.1L5062.23,30620.1L5699.2,30620.1L5699.2,29959.2L5473.67,29959.2L5473.67,29733.1L5062.23,29733.1ZM5530.19,29902.7L5676.26,29902.7L5530.19,29756.6L5530.19,29902.7Z" style="fill:rgb(26,26,26);"/>
                </g>
                <g transform="matrix(1.21753,0,0,0.70255,-4210.39,-20770.6)">
                    <path d="M4544.83,30816.3C4539.88,30816.3 4535.71,30813.4 4532.33,30807.6C4528.95,30801.7 4527.26,30794.4 4527.26,30785.6C4527.26,30776.6 4528.95,30769.3 4532.33,30763.8C4535.71,30758.2 4539.88,30755.5 4544.83,30755.5C4549.78,30755.5 4553.94,30758.2 4557.33,30763.8C4560.71,30769.3 4562.4,30776.6 4562.4,30785.6C4562.4,30794.4 4560.71,30801.7 4557.33,30807.6C4553.94,30813.4 4549.78,30816.3 4544.83,30816.3Z" style="fill:rgb(26,26,26);fill-rule:nonzero;"/>
                    <path d="M4698.61,30594.1L4643.72,30813.8L4614.74,30813.8L4560.04,30594.1L4591.74,30594.1L4630.32,30751.1L4669.44,30594.1L4698.61,30594.1Z" style="fill:rgb(26,26,26);fill-rule:nonzero;"/>
                    <rect x="4709.11" y="30594.1" width="29.343" height="219.728" style="fill:rgb(26,26,26);fill-rule:nonzero;"/>
                    <path d="M4768.52,30594.1L4826.12,30594.1C4839.88,30594.1 4852.05,30598.7 4862.62,30607.8C4873.18,30616.9 4881.39,30629.7 4887.25,30646.2C4893.11,30662.7 4896.03,30682 4896.03,30704C4896.03,30725.9 4893.11,30745.2 4887.25,30761.7C4881.39,30778.3 4873.18,30791.1 4862.62,30800.2C4852.05,30809.3 4839.88,30813.8 4826.12,30813.8L4768.52,30813.8L4768.52,30594.1ZM4824.67,30772.1C4837.35,30772.1 4847.46,30766 4855.01,30753.7C4862.56,30741.5 4866.33,30724.9 4866.33,30704C4866.33,30683 4862.56,30666.5 4855.01,30654.2C4847.46,30642 4837.35,30635.9 4824.67,30635.9L4797.86,30635.9L4797.86,30772.1L4824.67,30772.1Z" style="fill:rgb(26,26,26);fill-rule:nonzero;"/>
                </g>
                <g transform="matrix(1,0,0,1,-9540.66,-29676.6)">
                    <path d="M10943.4,30298.3L10943.4,30015.7L11191.1,30127.3L11191.1,30186.6L10943.4,30298.3ZM10996.2,30097.7L11126,30156.4L11126,30157.6L10996.2,30216.1L10996.2,30097.7Z" style="fill:rgb(26,26,26);fill-opacity:0.25;"/>
                </g>
            </g>
        </g>
    </g>
</svg>
