<?xml version="1.0" encoding="UTF-8" standalone="no"?>
<!DOCTYPE svg PUBLIC "-//W3C//DTD SVG 1.1//EN" "http://www.w3.org/Graphics/SVG/1.1/DTD/svg11.dtd">
<svg width="100%" height="100%" viewBox="0 0 750 1000" version="1.1" xmlns="http://www.w3.org/2000/svg" xmlns:xlink="http://www.w3.org/1999/xlink" xml:space="preserve" xmlns:serif="http://www.serif.com/" style="fill-rule:evenodd;clip-rule:evenodd;stroke-linejoin:round;stroke-miterlimit:2;">
    <g transform="matrix(1,0,0,1,-15060.5,-28855.8)">
        <g transform="matrix(1,0,0,1,13908.8,28855.8)">
            <g transform="matrix(1,0,0,1,-4971.3,-28855.8)">
                <path d="M6836.39,29080.1L6647.67,28892.3L6159.43,28892.3L6159.43,29819.3L6836.39,29819.3L6836.39,29080.1Z" style="fill:white;"/>
            </g>
            <g>
                <g transform="matrix(1,0,0,1,-3854.11,-29676.6)">
                    <path d="M5005.72,29676.6L5530.19,29676.6L5755.72,29902.7L5755.72,30676.6L5005.72,30676.6L5005.72,29676.6ZM5062.23,29733.1L5062.23,30620.1L5699.2,30620.1L5699.2,29959.2L5473.67,29959.2L5473.67,29733.1L5062.23,29733.1ZM5530.19,29902.7L5676.26,29902.7L5530.19,29756.6L5530.19,29902.7Z" style="fill:rgb(26,26,26);"/>
                </g>
                <g transform="matrix(1.21753,0,0,0.70255,-4210.32,-20770.6)">
                    <path d="M4554.07,30816.3C4549.11,30816.3 4544.95,30813.4 4541.57,30807.6C4538.19,30801.7 4536.5,30794.4 4536.5,30785.6C4536.5,30776.6 4538.19,30769.3 4541.57,30763.8C4544.95,30758.2 4549.11,30755.5 4554.07,30755.5C4559.02,30755.5 4563.18,30758.2 4566.56,30763.8C4569.94,30769.3 4571.64,30776.6 4571.64,30785.6C4571.64,30794.4 4569.94,30801.7 4566.56,30807.6C4563.18,30813.4 4559.02,30816.3 4554.07,30816.3Z" style="fill:rgb(26,26,26);fill-rule:nonzero;"/>
                    <path d="M4698.06,30772.4L4698.06,30813.8L4587.21,30813.8L4587.21,30780.9L4656.76,30635.5L4588.66,30635.5L4588.66,30594.1L4695.35,30594.1L4695.35,30627.1L4625.97,30772.4L4698.06,30772.4Z" style="fill:rgb(26,26,26);fill-rule:nonzero;"/>
                    <rect x="4716.9" y="30594.1" width="29.343" height="219.728" style="fill:rgb(26,26,26);fill-rule:nonzero;"/>
                    <path d="M4831.19,30594.1C4842.42,30594.1 4852.17,30597.4 4860.44,30603.8C4868.71,30610.3 4875.08,30619.5 4879.55,30631.5C4884.02,30643.4 4886.25,30657.5 4886.25,30673.8C4886.25,30690 4884.02,30704 4879.55,30716.1C4875.08,30728.1 4868.71,30737.3 4860.44,30743.7C4852.17,30750.1 4842.42,30753.3 4831.19,30753.3L4805.65,30753.3L4805.65,30813.8L4776.31,30813.8L4776.31,30594.1L4831.19,30594.1ZM4829.56,30711.8C4838.38,30711.8 4845.08,30708.5 4849.66,30701.9C4854.25,30695.3 4856.55,30686 4856.55,30673.8C4856.55,30661.5 4854.25,30652 4849.66,30645.4C4845.08,30638.8 4838.38,30635.5 4829.56,30635.5L4805.65,30635.5L4805.65,30711.8L4829.56,30711.8Z" style="fill:rgb(26,26,26);fill-rule:nonzero;"/>
                </g>
                <g transform="matrix(1,0,0,1,0,-28.2582)">
                    <g transform="matrix(-3.79431e-17,1,0.190171,-1.1082e-16,-4117.34,-5017.68)">
                        <path d="M5140.72,29192.3L5177.23,29192.3L5187.23,28300.7L5130.72,28300.7C5130.72,28300.7 5140.72,29192.3 5140.72,29192.3Z" style="fill:rgb(26,26,26);fill-opacity:0.25;"/>
                    </g>
                    <g transform="matrix(-3.79431e-17,1,0.190171,-1.1082e-16,-4117.34,-4904.65)">
                        <path d="M5140.72,29192.3L5177.23,29192.3L5187.23,28300.7L5130.72,28300.7C5130.72,28300.7 5140.72,29192.3 5140.72,29192.3Z" style="fill:rgb(26,26,26);fill-opacity:0.25;"/>
                    </g>
                    <g transform="matrix(-3.79431e-17,1,0.190171,-1.1082e-16,-4117.34,-4791.62)">
                        <path d="M5140.72,29192.3L5177.23,29192.3L5187.23,28300.7L5130.72,28300.7C5130.72,28300.7 5140.72,29192.3 5140.72,29192.3Z" style="fill:rgb(26,26,26);fill-opacity:0.25;"/>
                    </g>
                    <g transform="matrix(-3.79431e-17,1,0.190171,-1.1082e-16,-4117.34,-4678.58)">
                        <path d="M5140.72,29192.3L5177.23,29192.3L5187.23,28300.7L5130.72,28300.7C5130.72,28300.7 5140.72,29192.3 5140.72,29192.3Z" style="fill:rgb(26,26,26);fill-opacity:0.25;"/>
                    </g>
                    <g transform="matrix(-3.79431e-17,1,0.190171,-1.1082e-16,-4117.34,-4565.55)">
                        <path d="M5140.72,29192.3L5177.23,29192.3L5187.23,28300.7L5130.72,28300.7C5130.72,28300.7 5140.72,29192.3 5140.72,29192.3Z" style="fill:rgb(26,26,26);fill-opacity:0.25;"/>
                    </g>
                    <g transform="matrix(-3.79431e-17,1,0.190171,-1.1082e-16,-3993.75,-5074.2)">
                        <path d="M5158.97,29192.3L5187.23,29192.3L5177.23,28300.7L5158.97,28300.7C5158.97,28300.7 5158.97,29192.3 5158.97,29192.3Z" style="fill:rgb(26,26,26);fill-opacity:0.25;"/>
                    </g>
                    <g transform="matrix(-3.79431e-17,1,0.190171,-1.1082e-16,-3993.75,-4961.17)">
                        <path d="M5130.72,29192.3L5187.23,29192.3L5177.23,28300.7L5140.72,28300.7C5140.72,28300.7 5130.72,29192.3 5130.72,29192.3Z" style="fill:rgb(26,26,26);fill-opacity:0.25;"/>
                    </g>
                    <g transform="matrix(-3.79431e-17,1,0.190171,-1.1082e-16,-3993.75,-4848.13)">
                        <path d="M5130.72,29192.3L5187.23,29192.3L5177.23,28300.7L5140.72,28300.7C5140.72,28300.7 5130.72,29192.3 5130.72,29192.3Z" style="fill:rgb(26,26,26);fill-opacity:0.25;"/>
                    </g>
                    <g transform="matrix(-3.79431e-17,1,0.190171,-1.1082e-16,-3993.75,-4735.1)">
                        <path d="M5130.72,29192.3L5187.23,29192.3L5177.23,28300.7L5140.72,28300.7C5140.72,28300.7 5130.72,29192.3 5130.72,29192.3Z" style="fill:rgb(26,26,26);fill-opacity:0.25;"/>
                    </g>
                    <g transform="matrix(-3.79431e-17,1,0.190171,-1.1082e-16,-3993.75,-4622.07)">
                        <path d="M5130.72,29192.3L5187.23,29192.3L5177.23,28300.7L5140.72,28300.7C5140.72,28300.7 5130.72,29192.3 5130.72,29192.3Z" style="fill:rgb(26,26,26);fill-opacity:0.25;"/>
                    </g>
                </g>
            </g>
        </g>
    </g>
</svg>
