<?xml version="1.0" encoding="UTF-8" standalone="no"?>
<svg
   width="100%"
   height="100%"
   viewBox="0 0 500 500"
   version="1.1"
   xml:space="preserve"
   style="fill-rule:evenodd;clip-rule:evenodd;stroke-linejoin:round;stroke-miterlimit:2;"
   id="svg535"
   xmlns="http://www.w3.org/2000/svg"
   xmlns:svg="http://www.w3.org/2000/svg"><defs
   id="defs539">
        
    
            
            
        
                
            
                
                
                
                
                
                
                
                
                
                
                
            
                    
                
                    
                
                    
                
                    
                
                    
                
                    
                
                    
                
                    
                
                    
                
                    
                
                    
                    
                    
                    
                </defs>
    
<rect
   style="fill:none;stroke:#000000;stroke-width:44.332;stroke-linecap:round;stroke-linejoin:bevel;stroke-dasharray:none;stop-color:#000000"
   id="rect3772"
   width="455.66803"
   height="455.66803"
   x="22.165974"
   y="22.165974"
   ry="0" /><path
   d="m 373.69285,318.63813 c -10.48652,0 -20.63814,-1.44947 -30.42347,-4.28801 -9.79582,-2.83852 -17.66593,-6.52258 -23.59993,-11.05216 l 10.42374,-23.131 c 5.68282,4.1672 12.44359,7.48888 20.28232,10.02544 7.83874,2.53657 15.66699,3.80483 23.50573,3.80483 8.71785,0 15.16464,-1.26826 19.32996,-3.86523 4.17577,-2.59695 6.25842,-6.03942 6.25842,-10.32742 0,-3.20089 -1.23494,-5.79785 -3.69437,-7.91167 -2.46988,-2.05339 -5.62002,-3.74443 -9.48179,-5.01272 -3.85134,-1.26828 -9.06323,-2.65734 -15.63561,-4.16719 -10.10977,-2.41577 -18.38805,-4.77116 -24.83485,-7.18693 -6.44681,-2.41578 -11.97264,-6.28101 -16.58797,-11.59571 -4.60486,-5.31469 -6.91776,-12.38082 -6.91776,-21.19839 0,-7.73046 2.08265,-14.73621 6.25842,-20.95683 4.16532,-6.281 10.45513,-11.23334 18.85902,-14.91739 8.40385,-3.62366 18.67061,-5.49588 30.8107,-5.49588 8.46666,0 16.74495,1.02669 24.8244,3.08012 8.08989,1.993 15.16464,4.89192 21.23468,8.69676 l -9.48183,23.31221 c -12.25522,-6.94534 -24.51042,-10.44821 -36.77609,-10.44821 -8.59226,0 -14.93442,1.44946 -19.0474,4.22759 -4.1025,2.77814 -6.16422,6.40179 -6.16422,10.99176 0,4.52958 2.37568,7.91165 7.1166,10.14625 4.73044,2.1742 11.97265,4.3484 21.70565,6.52259 10.10976,2.41578 18.38805,4.77115 24.82438,7.1869 6.44682,2.4158 11.97265,6.22061 16.58797,11.35416 4.61533,5.19388 6.91776,12.19965 6.91776,21.0776 0,7.54928 -2.11404,14.49462 -6.34216,20.77565 -4.23856,6.22062 -10.59119,11.17293 -19.05784,14.85698 -8.46666,3.68406 -18.76482,5.4959 -30.89446,5.4959 z M 216.35312,183.65685 h 30.71651 v 107.68304 h 66.52977 v 25.00324 h -97.24628 z m -47.5766,132.68628 -32.0352,-46.02045 -31.47004,46.02045 H 70.012694 L 119.10681,248.8827 72.482575,183.65685 h 34.871365 l 30.52814,43.06114 29.94207,-43.06114 h 33.17592 l -46.24744,64.07837 49.47084,68.60791 z"
   style="clip-rule:evenodd;fill:#1a1a1a;fill-rule:nonzero;stroke-width:0.860042;stroke-linejoin:round;stroke-miterlimit:2"
   id="path1868" /></svg>
