<?xml version="1.0" encoding="UTF-8" standalone="no"?>
<!DOCTYPE svg PUBLIC "-//W3C//DTD SVG 1.1//EN" "http://www.w3.org/Graphics/SVG/1.1/DTD/svg11.dtd">
<svg width="100%" height="100%" viewBox="0 0 750 1000" version="1.1" xmlns="http://www.w3.org/2000/svg" xmlns:xlink="http://www.w3.org/1999/xlink" xml:space="preserve" xmlns:serif="http://www.serif.com/" style="fill-rule:evenodd;clip-rule:evenodd;stroke-linejoin:round;stroke-miterlimit:2;">
    <g transform="matrix(1,0,0,1,-13943.3,-28855.8)">
        <g transform="matrix(1,0,0,1,12791.7,28855.8)">
            <g transform="matrix(1,0,0,1,-4971.3,-28855.8)">
                <path d="M6836.39,29080.1L6647.67,28892.3L6159.43,28892.3L6159.43,29819.3L6836.39,29819.3L6836.39,29080.1Z" style="fill:white;"/>
            </g>
            <g>
                <g transform="matrix(1,0,0,1,-3854.11,-29676.6)">
                    <path d="M5005.72,29676.6L5530.19,29676.6L5755.72,29902.7L5755.72,30676.6L5005.72,30676.6L5005.72,29676.6ZM5062.23,29733.1L5062.23,30620.1L5699.2,30620.1L5699.2,29959.2L5473.67,29959.2L5473.67,29733.1L5062.23,29733.1ZM5530.19,29902.7L5676.26,29902.7L5530.19,29756.6L5530.19,29902.7Z" style="fill:rgb(26,26,26);"/>
                </g>
                <g transform="matrix(1.21753,0,0,0.70255,-4210.52,-20770.6)">
                    <path d="M4664.64,30816.3C4659.69,30816.3 4655.53,30813.4 4652.15,30807.6C4648.77,30801.7 4647.07,30794.4 4647.07,30785.6C4647.07,30776.6 4648.77,30769.3 4652.15,30763.8C4655.53,30758.2 4659.69,30755.5 4664.64,30755.5C4669.59,30755.5 4673.76,30758.2 4677.14,30763.8C4680.52,30769.3 4682.21,30776.6 4682.21,30785.6C4682.21,30794.4 4680.52,30801.7 4677.14,30807.6C4673.76,30813.4 4669.59,30816.3 4664.64,30816.3Z" style="fill:rgb(26,26,26);fill-rule:nonzero;"/>
                    <path d="M4712.1,30816.3C4707.15,30816.3 4702.98,30813.4 4699.6,30807.6C4696.22,30801.7 4694.53,30794.4 4694.53,30785.6C4694.53,30776.6 4696.22,30769.3 4699.6,30763.8C4702.98,30758.2 4707.15,30755.5 4712.1,30755.5C4717.05,30755.5 4721.22,30758.2 4724.6,30763.8C4727.98,30769.3 4729.67,30776.6 4729.67,30785.6C4729.67,30794.4 4727.98,30801.7 4724.6,30807.6C4721.22,30813.4 4717.05,30816.3 4712.1,30816.3Z" style="fill:rgb(26,26,26);fill-rule:nonzero;"/>
                    <path d="M4759.55,30816.3C4754.6,30816.3 4750.44,30813.4 4747.06,30807.6C4743.68,30801.7 4741.98,30794.4 4741.98,30785.6C4741.98,30776.6 4743.68,30769.3 4747.06,30763.8C4750.44,30758.2 4754.6,30755.5 4759.55,30755.5C4764.51,30755.5 4768.67,30758.2 4772.05,30763.8C4775.43,30769.3 4777.12,30776.6 4777.12,30785.6C4777.12,30794.4 4775.43,30801.7 4772.05,30807.6C4768.67,30813.4 4764.51,30816.3 4759.55,30816.3Z" style="fill:rgb(26,26,26);fill-rule:nonzero;"/>
                </g>
                <g transform="matrix(1,0,0,1,-11812.2,-29410.7)">
                    <path d="M13157.9,29832.3L13160.5,29829.7L13238.8,29908L13236.2,29910.7L13238.9,29913.3L13160.5,29991.7L13157.9,29989L13155.2,29991.7L13076.9,29913.3L13079.5,29910.7L13076.9,29908.1L13155.3,29829.7L13157.9,29832.3ZM13134.3,29910.7L13157.9,29934.3L13181.5,29910.7L13157.9,29887.1L13134.3,29910.7Z" style="fill:rgb(26,26,26);fill-opacity:0.25;fill-rule:nonzero;"/>
                </g>
                <g transform="matrix(1,0,0,1,-11631.3,-29410.7)">
                    <path d="M13157.9,29832.3L13160.5,29829.7L13238.8,29908L13236.2,29910.7L13238.9,29913.3L13160.5,29991.7L13157.9,29989L13155.2,29991.7L13076.9,29913.3L13079.5,29910.7L13076.9,29908.1L13155.3,29829.7L13157.9,29832.3ZM13134.3,29910.7L13157.9,29934.3L13181.5,29910.7L13157.9,29887.1L13134.3,29910.7Z" style="fill:rgb(26,26,26);fill-opacity:0.25;fill-rule:nonzero;"/>
                </g>
                <g transform="matrix(1,0,0,1,-11450.3,-29410.7)">
                    <path d="M13157.9,29832.3L13160.5,29829.7L13238.8,29908L13236.2,29910.7L13238.9,29913.3L13160.5,29991.7L13157.9,29989L13155.2,29991.7L13076.9,29913.3L13079.5,29910.7L13076.9,29908.1L13155.3,29829.7L13157.9,29832.3ZM13134.3,29910.7L13157.9,29934.3L13181.5,29910.7L13157.9,29887.1L13134.3,29910.7Z" style="fill:rgb(26,26,26);fill-opacity:0.25;fill-rule:nonzero;"/>
                </g>
            </g>
        </g>
    </g>
</svg>
