<?xml version="1.0" encoding="UTF-8" standalone="no"?>
<!DOCTYPE svg PUBLIC "-//W3C//DTD SVG 1.1//EN" "http://www.w3.org/Graphics/SVG/1.1/DTD/svg11.dtd">
<svg width="100%" height="100%" viewBox="0 0 750 1000" version="1.1" xmlns="http://www.w3.org/2000/svg" xmlns:xlink="http://www.w3.org/1999/xlink" xml:space="preserve" xmlns:serif="http://www.serif.com/" style="fill-rule:evenodd;clip-rule:evenodd;stroke-linejoin:round;stroke-miterlimit:2;">
    <g transform="matrix(1,0,0,1,-12826.1,-28855.8)">
        <g transform="matrix(1,0,0,1,11674.5,28855.8)">
            <g transform="matrix(1,0,0,1,-4971.3,-28855.8)">
                <path d="M6836.39,29080.1L6647.67,28892.3L6159.43,28892.3L6159.43,29819.3L6836.39,29819.3L6836.39,29080.1Z" style="fill:white;"/>
            </g>
            <g>
                <g transform="matrix(1,0,0,1,-3854.11,-29676.6)">
                    <path d="M5005.72,29676.6L5530.19,29676.6L5755.72,29902.7L5755.72,30676.6L5005.72,30676.6L5005.72,29676.6ZM5062.23,29733.1L5062.23,30620.1L5699.2,30620.1L5699.2,29959.2L5473.67,29959.2L5473.67,29733.1L5062.23,29733.1ZM5530.19,29902.7L5676.26,29902.7L5530.19,29756.6L5530.19,29902.7Z" style="fill:rgb(26,26,26);"/>
                </g>
                <g transform="matrix(1.21753,0,0,0.70255,-4209.28,-20770.6)">
                    <path d="M4539.94,30816.3C4534.99,30816.3 4530.82,30813.4 4527.44,30807.6C4524.06,30801.7 4522.37,30794.4 4522.37,30785.6C4522.37,30776.6 4524.06,30769.3 4527.44,30763.8C4530.82,30758.2 4534.99,30755.5 4539.94,30755.5C4544.89,30755.5 4549.05,30758.2 4552.44,30763.8C4555.82,30769.3 4557.51,30776.6 4557.51,30785.6C4557.51,30794.4 4555.82,30801.7 4552.44,30807.6C4549.05,30813.4 4544.89,30816.3 4539.94,30816.3Z" style="fill:rgb(26,26,26);fill-rule:nonzero;"/>
                    <path d="M4671.8,30699.6C4679.04,30703.6 4684.72,30710.2 4688.82,30719.5C4692.93,30728.8 4694.98,30740.3 4694.98,30753.9C4694.98,30773.1 4690.66,30787.9 4682.03,30798.3C4673.4,30808.7 4660.81,30813.8 4644.27,30813.8L4578.7,30813.8L4578.7,30594.1L4640.64,30594.1C4656.1,30594.1 4667.96,30599.2 4676.24,30609.5C4684.51,30619.7 4688.64,30633.7 4688.64,30651.2C4688.64,30661.9 4687.16,30671.4 4684.2,30679.8C4681.25,30688.2 4677.11,30694.8 4671.8,30699.6ZM4607.86,30632.4L4607.86,30684.2L4637.02,30684.2C4644.27,30684.2 4649.76,30682 4653.5,30677.6C4657.25,30673.2 4659.12,30666.7 4659.12,30658.1C4659.12,30649.6 4657.25,30643.1 4653.5,30638.8C4649.76,30634.5 4644.27,30632.4 4637.02,30632.4L4607.86,30632.4ZM4642.09,30775.5C4649.82,30775.5 4655.65,30773.3 4659.57,30768.9C4663.5,30764.6 4665.46,30757.8 4665.46,30748.5C4665.46,30730.3 4657.67,30721.2 4642.09,30721.2L4607.86,30721.2L4607.86,30775.5L4642.09,30775.5Z" style="fill:rgb(26,26,26);fill-rule:nonzero;"/>
                    <rect x="4717.26" y="30594.1" width="29.343" height="219.728" style="fill:rgb(26,26,26);fill-rule:nonzero;"/>
                    <path d="M4892.95,30594.1L4892.95,30813.8L4868.86,30813.8L4805.65,30680.4L4805.65,30813.8L4776.67,30813.8L4776.67,30594.1L4800.94,30594.1L4863.97,30727.5L4863.97,30594.1L4892.95,30594.1Z" style="fill:rgb(26,26,26);fill-rule:nonzero;"/>
                </g>
                <g transform="matrix(-1,-2.2164e-16,7.58862e-17,0.190171,6451.87,-4867.85)">
                    <rect x="5130.72" y="28300.7" width="56.516" height="891.561" style="fill:rgb(26,26,26);fill-opacity:0.25;"/>
                </g>
                <g transform="matrix(-1,-2.2164e-16,7.58862e-17,0.190171,6685.58,-5065.66)">
                    <rect x="5130.72" y="28300.7" width="56.516" height="891.561" style="fill:rgb(26,26,26);fill-opacity:0.25;"/>
                </g>
                <g transform="matrix(1,0,0,1,-10678,-29699.4)">
                    <path d="M11942.6,30015.7L12112.2,30015.7C12112.2,30015.7 12112.2,30185.3 12112.2,30185.3L11942.6,30185.3L11942.6,30015.7ZM11999.1,30072.2L11999.1,30128.7L12055.6,30128.7L12055.6,30072.2L11999.1,30072.2Z" style="fill:rgb(26,26,26);fill-opacity:0.25;"/>
                </g>
                <g transform="matrix(1,0,0,1,-10323.6,-29501.6)">
                    <path d="M11942.6,30015.7L12112.2,30015.7C12112.2,30015.7 12112.2,30185.3 12112.2,30185.3L11942.6,30185.3L11942.6,30015.7ZM11999.1,30072.2L11999.1,30128.7L12055.6,30128.7L12055.6,30072.2L11999.1,30072.2Z" style="fill:rgb(26,26,26);fill-opacity:0.25;"/>
                </g>
                <g transform="matrix(1,0,0,1,-10557.3,-29501.6)">
                    <path d="M11942.6,30015.7L12112.2,30015.7C12112.2,30015.7 12112.2,30185.3 12112.2,30185.3L11942.6,30185.3L11942.6,30015.7ZM11999.1,30072.2L11999.1,30128.7L12055.6,30128.7L12055.6,30072.2L11999.1,30072.2Z" style="fill:rgb(26,26,26);fill-opacity:0.25;"/>
                </g>
                <g transform="matrix(1,0,0,1,-10678,-29699.4)">
                    <path d="M12466.5,30015.7C12466.5,30015.7 12466.5,30185.3 12466.5,30185.3L12297,30185.3L12297,30015.7L12466.5,30015.7ZM12353.5,30072.2L12353.5,30128.7L12410,30128.7L12410,30072.2L12353.5,30072.2Z" style="fill:rgb(26,26,26);fill-opacity:0.25;"/>
                </g>
            </g>
        </g>
    </g>
</svg>
