<?xml version="1.0" encoding="UTF-8" standalone="no"?>
<svg
   width="100%"
   height="100%"
   viewBox="0 0 500 500"
   version="1.1"
   xml:space="preserve"
   style="fill-rule:evenodd;clip-rule:evenodd;stroke-linejoin:round;stroke-miterlimit:2;"
   id="svg535"
   xmlns="http://www.w3.org/2000/svg"
   xmlns:svg="http://www.w3.org/2000/svg"><defs
   id="defs539">











































                </defs>

<path
   d="m 410.32093,338.96334 c -13.5918,0 -26.74953,-1.87869 -39.43251,-5.55778 -12.69657,-3.67907 -22.89718,-8.45406 -30.58837,-14.32495 l 13.51043,-29.98058 c 7.36563,5.4012 16.12841,9.7065 26.28835,12.99419 10.15996,3.2877 20.30632,4.93152 30.46628,4.93152 11.29939,0 19.65521,-1.64382 25.05397,-5.0098 5.41231,-3.36597 8.11167,-7.82782 8.11167,-13.38559 0,-4.14875 -1.60063,-7.51472 -4.78835,-10.25448 -3.20126,-2.66145 -7.28423,-4.85324 -12.28955,-6.4971 -4.9918,-1.64384 -11.74705,-3.44423 -20.26565,-5.40119 -13.10348,-3.13113 -23.83315,-6.18399 -32.18898,-9.31513 -8.35584,-3.13114 -15.51799,-8.14094 -21.50002,-15.02944 -5.96845,-6.88848 -8.96626,-16.04704 -8.96626,-27.47569 0,-10.01962 2.69937,-19.09991 8.11168,-27.16259 5.39875,-8.14094 13.55112,-14.55977 24.44357,-19.33476 10.89242,-4.69669 24.19938,-7.12331 39.93441,-7.12331 10.97382,0 21.70349,1.33071 32.17544,3.9922 10.48547,2.58318 19.65521,6.34052 27.52272,11.27206 l -12.28961,30.21546 c -15.88425,-9.00201 -31.76847,-13.54215 -47.66627,-13.54215 -11.13661,0 -19.35682,1.87867 -24.68774,5.47947 -5.31734,3.6008 -7.98958,8.2975 -7.98958,14.24665 0,5.87088 3.07917,10.25446 9.22398,13.15077 6.13122,2.81802 15.51801,5.63605 28.13315,8.45407 13.10348,3.13115 23.83315,6.18399 32.17541,9.31509 8.35586,3.13117 15.51801,8.06267 21.50002,14.71637 5.98203,6.73189 8.96626,15.81223 8.96626,27.31913 0,9.78477 -2.74005,18.78678 -8.22021,26.92775 -5.49369,8.06269 -13.72747,14.48148 -24.70127,19.25646 -10.97382,4.77499 -24.32148,7.12335 -40.04297,7.12335 z M 206.38955,164.01123 h 39.81233 v 139.57028 h 86.23065 v 32.40723 H 206.38955 Z M 144.72451,335.98874 103.203,276.34066 62.41402,335.98874 H 16.71462 L 80.34654,248.55185 19.91589,164.01123 h 45.1975 l 39.56818,55.81246 38.80855,-55.81246 h 43.00002 l -59.94229,83.05334 64.1202,88.92417 z"
   style="clip-rule:evenodd;fill-rule:nonzero;stroke-width:1.11472;stroke-linejoin:round;stroke-miterlimit:2"
   id="path1868" /><path
   style="clip-rule:evenodd;fill:none;fill-rule:evenodd;stroke:#000000;stroke-width:45;stroke-linecap:butt;stroke-linejoin:miter;stroke-miterlimit:2;stroke-dasharray:none;stroke-opacity:1"
   d="M 0,477.5 H 500"
   id="path6175" /></svg>
