<?xml version="1.0" encoding="UTF-8" standalone="no"?>
<!DOCTYPE svg PUBLIC "-//W3C//DTD SVG 1.1//EN" "http://www.w3.org/Graphics/SVG/1.1/DTD/svg11.dtd">
<svg width="100%" height="100%" viewBox="0 0 750 1000" version="1.1" xmlns="http://www.w3.org/2000/svg" xmlns:xlink="http://www.w3.org/1999/xlink" xml:space="preserve" xmlns:serif="http://www.serif.com/" style="fill-rule:evenodd;clip-rule:evenodd;stroke-linejoin:round;stroke-miterlimit:2;">
    <g transform="matrix(1,0,0,1,-8357.3,-28855.8)">
        <g transform="matrix(1,0,0,1,7205.69,28855.8)">
            <g transform="matrix(1,0,0,1,-4971.3,-28855.8)">
                <path d="M6836.39,29080.1L6647.67,28892.3L6159.43,28892.3L6159.43,29819.3L6836.39,29819.3L6836.39,29080.1Z" style="fill:white;"/>
            </g>
            <g>
                <g transform="matrix(1,0,0,1,-3854.11,-29676.6)">
                    <path d="M5005.72,29676.6L5530.19,29676.6L5755.72,29902.7L5755.72,30676.6L5005.72,30676.6L5005.72,29676.6ZM5062.23,29733.1L5062.23,30620.1L5699.2,30620.1L5699.2,29959.2L5473.67,29959.2L5473.67,29733.1L5062.23,29733.1ZM5530.19,29902.7L5676.26,29902.7L5530.19,29756.6L5530.19,29902.7Z" style="fill:rgb(26,26,26);"/>
                </g>
                <g transform="matrix(1.21753,0,0,0.70255,-4211.28,-20770.6)">
                    <path d="M4527.08,30816.3C4522.13,30816.3 4517.96,30813.4 4514.58,30807.6C4511.2,30801.7 4509.51,30794.4 4509.51,30785.6C4509.51,30776.6 4511.2,30769.3 4514.58,30763.8C4517.96,30758.2 4522.13,30755.5 4527.08,30755.5C4532.03,30755.5 4536.19,30758.2 4539.57,30763.8C4542.96,30769.3 4544.65,30776.6 4544.65,30785.6C4544.65,30794.4 4542.96,30801.7 4539.57,30807.6C4536.19,30813.4 4532.03,30816.3 4527.08,30816.3Z" style="fill:rgb(26,26,26);fill-rule:nonzero;"/>
                    <path d="M4620.72,30594.1C4631.95,30594.1 4641.7,30597.4 4649.97,30603.8C4658.24,30610.3 4664.61,30619.5 4669.08,30631.5C4673.55,30643.4 4675.78,30657.5 4675.78,30673.8C4675.78,30690 4673.55,30704 4669.08,30716.1C4664.61,30728.1 4658.24,30737.3 4649.97,30743.7C4641.7,30750.1 4631.95,30753.3 4620.72,30753.3L4595.18,30753.3L4595.18,30813.8L4565.84,30813.8L4565.84,30594.1L4620.72,30594.1ZM4619.09,30711.8C4627.9,30711.8 4634.61,30708.5 4639.19,30701.9C4643.78,30695.3 4646.08,30686 4646.08,30673.8C4646.08,30661.5 4643.78,30652 4639.19,30645.4C4634.61,30638.8 4627.9,30635.5 4619.09,30635.5L4595.18,30635.5L4595.18,30711.8L4619.09,30711.8Z" style="fill:rgb(26,26,26);fill-rule:nonzero;"/>
                    <path d="M4751.49,30594.1C4762.72,30594.1 4772.48,30597.4 4780.75,30603.8C4789.02,30610.3 4795.39,30619.5 4799.86,30631.5C4804.32,30643.4 4806.56,30657.5 4806.56,30673.8C4806.56,30690 4804.32,30704 4799.86,30716.1C4795.39,30728.1 4789.02,30737.3 4780.75,30743.7C4772.48,30750.1 4762.72,30753.3 4751.49,30753.3L4725.95,30753.3L4725.95,30813.8L4696.61,30813.8L4696.61,30594.1L4751.49,30594.1ZM4749.86,30711.8C4758.68,30711.8 4765.38,30708.5 4769.97,30701.9C4774.56,30695.3 4776.85,30686 4776.85,30673.8C4776.85,30661.5 4774.56,30652 4769.97,30645.4C4765.38,30638.8 4758.68,30635.5 4749.86,30635.5L4725.95,30635.5L4725.95,30711.8L4749.86,30711.8Z" style="fill:rgb(26,26,26);fill-rule:nonzero;"/>
                    <path d="M4850.21,30635.5L4809.64,30635.5L4809.64,30594.1L4920.12,30594.1L4920.12,30635.5L4879.55,30635.5L4879.55,30813.8L4850.21,30813.8L4850.21,30635.5Z" style="fill:rgb(26,26,26);fill-rule:nonzero;"/>
                </g>
                <g transform="matrix(0.755085,1.84942e-16,-1.84942e-16,0.755085,-4282.08,-22425.6)">
                    <path d="M7655.34,30036.3C7510.65,30036.3 7393.37,30153.6 7393.37,30298.3L7655.34,30298.3L7655.34,30036.3Z" style="fill:rgb(26,26,26);fill-opacity:0.25;"/>
                </g>
                <g transform="matrix(1,0,0,1,-6128.73,-29676.6)">
                    <path d="M7655.34,29959.2L7655.34,30157L7457.53,30157C7457.53,30266.2 7546.09,30354.8 7655.34,30354.8C7764.51,30354.8 7853.14,30266.2 7853.14,30157C7853.14,30047.7 7764.58,29959.2 7655.34,29959.2ZM7711.85,30027.5L7711.85,30213.5L7525.8,30213.5C7547.6,30263.4 7597.4,30298.3 7655.34,30298.3C7733.32,30298.3 7796.63,30235 7796.63,30157C7796.63,30099.1 7761.75,30049.3 7711.85,30027.5Z" style="fill:rgb(26,26,26);fill-opacity:0.25;"/>
                </g>
            </g>
        </g>
    </g>
</svg>
