<?xml version="1.0" encoding="UTF-8" standalone="no"?>
<!DOCTYPE svg PUBLIC "-//W3C//DTD SVG 1.1//EN" "http://www.w3.org/Graphics/SVG/1.1/DTD/svg11.dtd">
<svg width="100%" height="100%" viewBox="0 0 750 1000" version="1.1" xmlns="http://www.w3.org/2000/svg" xmlns:xlink="http://www.w3.org/1999/xlink" xml:space="preserve" xmlns:serif="http://www.serif.com/" style="fill-rule:evenodd;clip-rule:evenodd;stroke-linejoin:round;stroke-miterlimit:2;">
    <g transform="matrix(1,0,0,1,-10591.7,-28855.8)">
        <g transform="matrix(1,0,0,1,9440.07,28855.8)">
            <g transform="matrix(1,0,0,1,-4971.3,-28855.8)">
                <path d="M6836.39,29080.1L6647.67,28892.3L6159.43,28892.3L6159.43,29819.3L6836.39,29819.3L6836.39,29080.1Z" style="fill:white;"/>
            </g>
            <g>
                <g transform="matrix(1,0,0,1,-3854.11,-29676.6)">
                    <path d="M5005.72,29676.6L5530.19,29676.6L5755.72,29902.7L5755.72,30676.6L5005.72,30676.6L5005.72,29676.6ZM5062.23,29733.1L5062.23,30620.1L5699.2,30620.1L5699.2,29959.2L5473.67,29959.2L5473.67,29733.1L5062.23,29733.1ZM5530.19,29902.7L5676.26,29902.7L5530.19,29756.6L5530.19,29902.7Z" style="fill:rgb(26,26,26);"/>
                </g>
                <g transform="matrix(1.21693,0,0,0.7022,-4212.02,-20759.9)">
                    <path d="M4495.02,30816.3C4490.07,30816.3 4485.9,30813.4 4482.52,30807.6C4479.14,30801.7 4477.45,30794.4 4477.45,30785.6C4477.45,30776.6 4479.14,30769.3 4482.52,30763.8C4485.9,30758.2 4490.07,30755.5 4495.02,30755.5C4499.97,30755.5 4504.14,30758.2 4507.52,30763.8C4510.9,30769.3 4512.59,30776.6 4512.59,30785.6C4512.59,30794.4 4510.9,30801.7 4507.52,30807.6C4504.14,30813.4 4499.97,30816.3 4495.02,30816.3Z" style="fill:rgb(26,26,26);fill-rule:nonzero;"/>
                    <path d="M4623.07,30766.8L4564.21,30766.8L4552.98,30813.8L4522.91,30813.8L4579.42,30594.1L4608.4,30594.1L4665.1,30813.8L4634.31,30813.8L4623.07,30766.8ZM4613.84,30728.1L4593.73,30644L4573.63,30728.1L4613.84,30728.1Z" style="fill:rgb(26,26,26);fill-rule:nonzero;"/>
                    <path d="M4731.93,30817.6C4713.82,30817.6 4699.72,30808.9 4689.64,30791.5C4679.56,30774.2 4674.52,30749.4 4674.52,30717.2L4674.52,30594.1L4703.86,30594.1L4703.86,30715.3C4703.86,30754.6 4713.28,30774.3 4732.11,30774.3C4741.29,30774.3 4748.29,30769.5 4753.12,30760C4757.95,30750.5 4760.37,30735.6 4760.37,30715.3L4760.37,30594.1L4789.35,30594.1L4789.35,30717.2C4789.35,30749.4 4784.31,30774.2 4774.23,30791.5C4764.14,30808.9 4750.05,30817.6 4731.93,30817.6Z" style="fill:rgb(26,26,26);fill-rule:nonzero;"/>
                    <path d="M4818.33,30594.1L4875.93,30594.1C4889.69,30594.1 4901.86,30598.7 4912.43,30607.8C4922.99,30616.9 4931.2,30629.7 4937.06,30646.2C4942.91,30662.7 4945.84,30682 4945.84,30704C4945.84,30725.9 4942.91,30745.2 4937.06,30761.7C4931.2,30778.3 4922.99,30791.1 4912.43,30800.2C4901.86,30809.3 4889.69,30813.8 4875.93,30813.8L4818.33,30813.8L4818.33,30594.1ZM4874.48,30772.1C4887.16,30772.1 4897.27,30766 4904.82,30753.7C4912.36,30741.5 4916.14,30724.9 4916.14,30704C4916.14,30683 4912.36,30666.5 4904.82,30654.2C4897.27,30642 4887.16,30635.9 4874.48,30635.9L4847.67,30635.9L4847.67,30772.1L4874.48,30772.1Z" style="fill:rgb(26,26,26);fill-rule:nonzero;"/>
                </g>
                <g transform="matrix(1,0,0,1,-8403.35,-29676.6)">
                    <path d="M9861.88,29845.3C9861.88,29845.3 9918.63,29845.3 9918.63,29845.3L9918.63,30161.9L9957.82,30139.3L9957.82,30139.3L9957.82,30139.3L10053.8,30194.7C10053.8,30194.7 10053.8,30305.5 10053.8,30305.5C10053.8,30305.5 9957.82,30360.9 9957.82,30360.9L9957.82,30360.9L9957.82,30360.9L9861.88,30305.5C9861.88,30305.5 9861.88,29952.7 9861.88,29952.7C9853.26,29960.6 9844.9,29969.5 9837.9,29978.2C9828.75,29989.6 9820.31,30002.6 9812.58,30017.4C9804.86,30032.2 9798.24,30049 9792.73,30067.9C9791.52,30072 9790.41,30076.1 9789.4,30080.1C9786.87,30096.2 9785.72,30111.3 9785.94,30125.5C9786.21,30142.1 9787.87,30157.6 9790.93,30171.9C9793.98,30186.2 9798.12,30199.3 9803.33,30211.4C9808.55,30223.4 9814.32,30234.5 9820.65,30244.6L9787.7,30265.4C9784,30260.7 9779.89,30254.8 9775.38,30247.6C9770.87,30240.4 9766.45,30232.1 9762.14,30222.5C9757.83,30213 9753.86,30202.4 9750.25,30190.8C9746.63,30179.1 9743.83,30166.5 9741.84,30153.1C9739.85,30139.6 9738.88,30125.3 9738.93,30110.2C9738.98,30095.1 9740.53,30079.3 9743.58,30062.7C9746.61,30046.3 9750.8,30031 9756.14,30016.8C9761.48,30002.6 9767.49,29989.6 9774.15,29977.7C9780.82,29965.8 9787.92,29955 9795.45,29945.4C9802.98,29935.8 9810.46,29927.3 9817.88,29920C9824.84,29913.1 9845.43,29890.2 9848.93,29884.7C9861.42,29864.8 9861.88,29855.2 9861.88,29845.3ZM9918.63,30227.5L9918.63,30272.7L9957.82,30295.3L9997.01,30272.7L9997.01,30227.5L9957.82,30204.8L9918.63,30227.5Z" style="fill:rgb(26,26,26);fill-opacity:0.25;"/>
                </g>
            </g>
        </g>
    </g>
</svg>
