<?xml version="1.0" encoding="UTF-8" standalone="no"?>
<!DOCTYPE svg PUBLIC "-//W3C//DTD SVG 1.1//EN" "http://www.w3.org/Graphics/SVG/1.1/DTD/svg11.dtd">
<svg width="100%" height="100%" viewBox="0 0 750 1000" version="1.1" xmlns="http://www.w3.org/2000/svg" xmlns:xlink="http://www.w3.org/1999/xlink" xml:space="preserve" xmlns:serif="http://www.serif.com/" style="fill-rule:evenodd;clip-rule:evenodd;stroke-linejoin:round;stroke-miterlimit:2;">
    <g transform="matrix(1,0,0,1,-7240.1,-28855.8)">
        <g transform="matrix(1,0,0,1,6088.5,28855.8)">
            <g transform="matrix(1,0,0,1,-4971.3,-28855.8)">
                <path d="M6836.39,29080.1L6647.67,28892.3L6159.43,28892.3L6159.43,29819.3L6836.39,29819.3L6836.39,29080.1Z" style="fill:white;"/>
            </g>
            <g>
                <g transform="matrix(1,0,0,1,-3854.11,-29676.6)">
                    <path d="M5005.72,29676.6L5530.19,29676.6L5755.72,29902.7L5755.72,30676.6L5005.72,30676.6L5005.72,29676.6ZM5062.23,29733.1L5062.23,30620.1L5699.2,30620.1L5699.2,29959.2L5473.67,29959.2L5473.67,29733.1L5062.23,29733.1ZM5530.19,29902.7L5676.26,29902.7L5530.19,29756.6L5530.19,29902.7Z" style="fill:rgb(26,26,26);"/>
                </g>
                <g transform="matrix(1.21749,0,0,0.702525,-4211.2,-20769.8)">
                    <path d="M4494.47,30816.3C4489.52,30816.3 4485.36,30813.4 4481.98,30807.6C4478.6,30801.7 4476.9,30794.4 4476.9,30785.6C4476.9,30776.6 4478.6,30769.3 4481.98,30763.8C4485.36,30758.2 4489.52,30755.5 4494.47,30755.5C4499.43,30755.5 4503.59,30758.2 4506.97,30763.8C4510.35,30769.3 4512.04,30776.6 4512.04,30785.6C4512.04,30794.4 4510.35,30801.7 4506.97,30807.6C4503.59,30813.4 4499.43,30816.3 4494.47,30816.3Z" style="fill:rgb(26,26,26);fill-rule:nonzero;"/>
                    <path d="M4533.24,30594.1L4590.83,30594.1C4604.6,30594.1 4616.77,30598.7 4627.33,30607.8C4637.9,30616.9 4646.11,30629.7 4651.97,30646.2C4657.82,30662.7 4660.75,30682 4660.75,30704C4660.75,30725.9 4657.82,30745.2 4651.97,30761.7C4646.11,30778.3 4637.9,30791.1 4627.33,30800.2C4616.77,30809.3 4604.6,30813.8 4590.83,30813.8L4533.24,30813.8L4533.24,30594.1ZM4589.39,30772.1C4602.06,30772.1 4612.18,30766 4619.72,30753.7C4627.27,30741.5 4631.04,30724.9 4631.04,30704C4631.04,30683 4627.27,30666.5 4619.72,30654.2C4612.18,30642 4602.06,30635.9 4589.39,30635.9L4562.58,30635.9L4562.58,30772.1L4589.39,30772.1Z" style="fill:rgb(26,26,26);fill-rule:nonzero;"/>
                    <path d="M4744.25,30817.6C4731.09,30817.6 4719.22,30812.7 4708.66,30802.9C4698.09,30793 4689.82,30779.5 4683.84,30762.2C4677.87,30744.9 4674.88,30725.5 4674.88,30704C4674.88,30682.4 4677.87,30663 4683.84,30645.7C4689.82,30628.5 4698.09,30614.9 4708.66,30605.1C4719.22,30595.3 4731.09,30590.3 4744.25,30590.3C4757.41,30590.3 4769.24,30595.3 4779.75,30605.1C4790.26,30614.9 4798.53,30628.5 4804.56,30645.7C4810.6,30663 4813.62,30682.4 4813.62,30704C4813.62,30725.5 4810.6,30744.9 4804.56,30762.2C4798.53,30779.5 4790.26,30793 4779.75,30802.9C4769.24,30812.7 4757.41,30817.6 4744.25,30817.6ZM4744.25,30774.3C4751.74,30774.3 4758.5,30771.3 4764.53,30765.3C4770.57,30759.4 4775.31,30751.1 4778.75,30740.4C4782.19,30729.7 4783.92,30717.6 4783.92,30704C4783.92,30690.4 4782.19,30678.2 4778.75,30667.6C4775.31,30656.9 4770.57,30648.6 4764.53,30642.6C4758.5,30636.6 4751.74,30633.7 4744.25,30633.7C4736.76,30633.7 4730,30636.6 4723.96,30642.6C4717.93,30648.6 4713.19,30656.9 4709.74,30667.6C4706.3,30678.2 4704.58,30690.4 4704.58,30704C4704.58,30717.6 4706.3,30729.7 4709.74,30740.4C4713.19,30751.1 4717.93,30759.4 4723.96,30765.3C4730,30771.3 4736.76,30774.3 4744.25,30774.3Z" style="fill:rgb(26,26,26);fill-rule:nonzero;"/>
                    <path d="M4896.4,30817.6C4883.48,30817.6 4871.79,30812.7 4861.35,30803C4850.9,30793.3 4842.69,30779.8 4836.71,30762.5C4830.74,30745.2 4827.75,30725.7 4827.75,30704C4827.75,30682.2 4830.74,30662.7 4836.71,30645.4C4842.69,30628.2 4850.9,30614.7 4861.35,30604.9C4871.79,30595.2 4883.54,30590.3 4896.58,30590.3C4907.57,30590.3 4917.5,30593.7 4926.37,30600.4C4935.25,30607.1 4942.7,30616.7 4948.74,30629.3L4929.9,30659.4C4921.33,30642.2 4910.7,30633.7 4898.03,30633.7C4890.18,30633.7 4883.17,30636.6 4877.02,30642.6C4870.86,30648.6 4866.06,30656.9 4862.62,30667.6C4859.17,30678.2 4857.45,30690.4 4857.45,30704C4857.45,30717.6 4859.17,30729.7 4862.62,30740.4C4866.06,30751.1 4870.86,30759.4 4877.02,30765.3C4883.17,30771.3 4890.18,30774.3 4898.03,30774.3C4910.7,30774.3 4921.33,30765.6 4929.9,30748.2L4948.74,30778.4C4942.7,30791.1 4935.22,30800.9 4926.28,30807.6C4917.35,30814.3 4907.38,30817.6 4896.4,30817.6Z" style="fill:rgb(26,26,26);fill-rule:nonzero;"/>
                </g>
                <g transform="matrix(-2.09671e-17,1,0.328791,-1.02332e-16,-8040.36,-5017.68)">
                    <rect x="5130.72" y="28300.7" width="56.516" height="891.561" style="fill:rgb(26,26,26);fill-opacity:0.25;"/>
                </g>
                <g transform="matrix(-2.09671e-17,1,0.328791,-1.02332e-16,-7809.56,-4791.62)">
                    <rect x="5130.72" y="28300.7" width="56.516" height="891.561" style="fill:rgb(26,26,26);fill-opacity:0.25;"/>
                </g>
                <g transform="matrix(-2.09671e-17,1,0.328791,-1.02332e-16,-8040.36,-4904.65)">
                    <rect x="5130.72" y="28300.7" width="56.516" height="891.561" style="fill:rgb(26,26,26);fill-opacity:0.25;"/>
                </g>
                <g transform="matrix(-3.22877e-16,3,0.195479,-3.695e-16,-4267.55,-15053)">
                    <rect x="5130.72" y="28300.7" width="56.516" height="891.561" style="fill:rgb(26,26,26);fill-opacity:0.25;"/>
                </g>
                <g transform="matrix(-2.09671e-17,1,0.328791,-1.02332e-16,-7809.56,-4678.58)">
                    <rect x="5130.72" y="28300.7" width="56.516" height="891.561" style="fill:rgb(26,26,26);fill-opacity:0.25;"/>
                </g>
                <g transform="matrix(1.07352e-17,1,0.58766,-8.64809e-17,-15366.5,-4565.55)">
                    <rect x="5130.72" y="28300.7" width="56.516" height="891.561" style="fill:rgb(26,26,26);fill-opacity:0.25;"/>
                </g>
            </g>
        </g>
    </g>
</svg>
