<?xml version="1.0" encoding="UTF-8" standalone="no"?>
<!DOCTYPE svg PUBLIC "-//W3C//DTD SVG 1.1//EN" "http://www.w3.org/Graphics/SVG/1.1/DTD/svg11.dtd">
<svg width="100%" height="100%" viewBox="0 0 750 1000" version="1.1" xmlns="http://www.w3.org/2000/svg" xmlns:xlink="http://www.w3.org/1999/xlink" xml:space="preserve" xmlns:serif="http://www.serif.com/" style="fill-rule:evenodd;clip-rule:evenodd;stroke-linejoin:round;stroke-miterlimit:2;">
    <g transform="matrix(1,0,0,1,-7622.92,-27277.1)">
        <g transform="matrix(1,0,0,1,6471.32,27277.1)">
            <g transform="matrix(1,0,0,1,-4971.3,-28855.8)">
                <path d="M6836.39,29080.1L6647.67,28892.3L6159.43,28892.3L6159.43,29819.3L6836.39,29819.3L6836.39,29080.1Z" style="fill:white;"/>
            </g>
            <g>
                <g transform="matrix(1,0,0,1,-3854.11,-29676.6)">
                    <path d="M5005.72,29676.6L5530.19,29676.6L5755.72,29902.7L5755.72,30676.6L5005.72,30676.6L5005.72,29676.6ZM5062.23,29733.1L5062.23,30620.1L5699.2,30620.1L5699.2,29959.2L5473.67,29959.2L5473.67,29733.1L5062.23,29733.1ZM5530.19,29902.7L5676.26,29902.7L5530.19,29756.6L5530.19,29902.7Z" style="fill:rgb(26,26,26);"/>
                </g>
                <g transform="matrix(-2.09671e-17,1,0.328791,-1.02332e-16,-8040.36,-5017.68)">
                    <rect x="5130.72" y="28300.7" width="56.516" height="891.561" style="fill:rgb(26,26,26);fill-opacity:0.25;"/>
                </g>
                <g transform="matrix(-1.43432e-16,3,0.328791,-3.47261e-16,-8040.36,-15053)">
                    <rect x="5130.72" y="28300.7" width="56.516" height="1593.52" style="fill:rgb(26,26,26);fill-opacity:0.25;"/>
                </g>
                <g transform="matrix(-2.09671e-17,1,0.328791,-1.02332e-16,-8040.36,-4904.65)">
                    <rect x="5130.72" y="28300.7" width="56.516" height="891.561" style="fill:rgb(26,26,26);fill-opacity:0.25;"/>
                </g>
                <g transform="matrix(1.07352e-17,1,0.58766,-8.64809e-17,-15366.5,-4565.55)">
                    <rect x="5130.72" y="28300.7" width="56.516" height="891.561" style="fill:rgb(26,26,26);fill-opacity:0.25;"/>
                </g>
                <g transform="matrix(1.21132,0,0,0.70255,-4182.02,-20770.6)">
                    <path d="M4514.04,30816.3C4509.09,30816.3 4504.92,30813.4 4501.54,30807.6C4498.16,30801.7 4496.47,30794.4 4496.47,30785.6C4496.47,30776.6 4498.16,30769.3 4501.54,30763.8C4504.92,30758.2 4509.09,30755.5 4514.04,30755.5C4518.99,30755.5 4523.15,30758.2 4526.53,30763.8C4529.91,30769.3 4531.61,30776.6 4531.61,30785.6C4531.61,30794.4 4529.91,30801.7 4526.53,30807.6C4523.15,30813.4 4518.99,30816.3 4514.04,30816.3Z" style="fill:rgb(26,26,26);fill-rule:nonzero;"/>
                    <path d="M4607.68,30594.1C4618.91,30594.1 4628.66,30597.4 4636.93,30603.8C4645.2,30610.3 4651.57,30619.5 4656.04,30631.5C4660.51,30643.4 4662.74,30657.5 4662.74,30673.8C4662.74,30690 4660.51,30704 4656.04,30716.1C4651.57,30728.1 4645.2,30737.3 4636.93,30743.7C4628.66,30750.1 4618.91,30753.3 4607.68,30753.3L4582.14,30753.3L4582.14,30813.8L4552.8,30813.8L4552.8,30594.1L4607.68,30594.1ZM4606.05,30711.8C4614.86,30711.8 4621.57,30708.5 4626.15,30701.9C4630.74,30695.3 4633.04,30686 4633.04,30673.8C4633.04,30661.5 4630.74,30652 4626.15,30645.4C4621.57,30638.8 4614.86,30635.5 4606.05,30635.5L4582.14,30635.5L4582.14,30711.8L4606.05,30711.8Z" style="fill:rgb(26,26,26);fill-rule:nonzero;"/>
                    <path d="M4683.57,30594.1L4741.17,30594.1C4754.94,30594.1 4767.1,30598.7 4777.67,30607.8C4788.23,30616.9 4796.44,30629.7 4802.3,30646.2C4808.16,30662.7 4811.09,30682 4811.09,30704C4811.09,30725.9 4808.16,30745.2 4802.3,30761.7C4796.44,30778.3 4788.23,30791.1 4777.67,30800.2C4767.1,30809.3 4754.94,30813.8 4741.17,30813.8L4683.57,30813.8L4683.57,30594.1ZM4739.72,30772.1C4752.4,30772.1 4762.51,30766 4770.06,30753.7C4777.61,30741.5 4781.38,30724.9 4781.38,30704C4781.38,30683 4777.61,30666.5 4770.06,30654.2C4762.51,30642 4752.4,30635.9 4739.72,30635.9L4712.91,30635.9L4712.91,30772.1L4739.72,30772.1Z" style="fill:rgb(26,26,26);fill-rule:nonzero;"/>
                    <path d="M4862.53,30634.9L4862.53,30693L4921.21,30693L4921.21,30733.8L4862.53,30733.8L4862.53,30813.8L4833.18,30813.8L4833.18,30594.1L4929,30594.1L4929,30634.9L4862.53,30634.9Z" style="fill:rgb(26,26,26);fill-rule:nonzero;"/>
                </g>
            </g>
        </g>
    </g>
</svg>
