<?xml version="1.0" encoding="UTF-8" standalone="no"?>
<svg
   width="100%"
   height="100%"
   viewBox="0 0 500 500"
   version="1.1"
   xml:space="preserve"
   style="fill-rule:evenodd;clip-rule:evenodd;stroke-linejoin:round;stroke-miterlimit:2;"
   id="svg535"
   xmlns="http://www.w3.org/2000/svg"
   xmlns:svg="http://www.w3.org/2000/svg"><defs
   id="defs539">
        
    
            
            
        
                
            
                
                
                
                
                
                
                
                
                
                
                
            
                    
                
                    
                
                    
                
                    
                
                    
                
                    
                
                    
                
                    
                
                    
                
                    
                
                    
                    
                    
                    
                </defs>
    
<path
   d="M 62.499951,4.1915e-4 H 335.47362 L 437.50014,100.85292 V 500.00067 H 62.499951 Z M 100.77167,40.000439 V 460.17565 H 397.77012 V 152.27686 H 282.95992 V 40.000439 Z m 223.96341,73.050041 h 73.03504 L 324.73508,40.000439 Z"
   style="clip-rule:evenodd;fill:#1a1a1a;fill-rule:evenodd;stroke:#000000;stroke-width:0.7;stroke-linejoin:round;stroke-miterlimit:2;stroke-dasharray:none"
   id="path6" /><path
   d="m 335.14728,341.66603 c -6.1331,0 -12.07033,-0.84773 -17.79333,-2.50786 -5.72914,-1.66013 -10.33202,-3.81477 -13.80255,-6.46392 l 6.09638,-13.52829 c 3.32363,2.43721 7.2777,4.37991 11.86222,5.86343 4.58453,1.48353 9.16293,2.22528 13.74746,2.22528 5.09868,0 8.86912,-0.74175 11.30523,-2.2606 2.44222,-1.51884 3.66027,-3.53219 3.66027,-6.04005 0,-1.87206 -0.72226,-3.3909 -2.16067,-4.62718 -1.44452,-1.20094 -3.2869,-2.18995 -5.54548,-2.93172 -2.25248,-0.74176 -5.30068,-1.55416 -9.14457,-2.4372 -5.91275,-1.41288 -10.75435,-2.79044 -14.5248,-4.20332 -3.77045,-1.41288 -7.00226,-3.67348 -9.70156,-6.78181 -2.69318,-3.10833 -4.04589,-7.24099 -4.04589,-12.398 0,-4.5212 1.21805,-8.61855 3.66027,-12.25671 2.43611,-3.67348 6.11474,-6.56988 11.0298,-8.72452 4.91504,-2.11931 10.91961,-3.21429 18.01981,-3.21429 4.95177,0 9.79337,0.60046 14.51868,1.80142 4.73142,1.16562 8.86912,2.86107 12.41922,5.08635 l -5.5455,13.63427 c -7.16753,-4.06202 -14.33505,-6.11069 -21.5087,-6.11069 -5.02523,0 -8.73447,0.84772 -11.13997,2.47253 -2.39937,1.62481 -3.60518,3.74412 -3.60518,6.42859 0,2.64915 1.38943,4.62717 4.16218,5.93409 2.76663,1.27159 7.00227,2.54318 12.69467,3.81477 5.91275,1.41288 10.75435,2.79043 14.51867,4.2033 3.77046,1.41289 7.00227,3.63816 9.70157,6.64054 2.6993,3.03767 4.04589,7.13503 4.04589,12.32735 0,4.41524 -1.23641,8.47726 -3.70925,12.15075 -2.47894,3.63816 -6.19431,6.53455 -11.14608,8.68919 -4.95177,2.15464 -10.97471,3.2143 -18.06879,3.2143 z m -92.021,-78.94453 H 261.091 v 62.97901 h 38.9103 v 14.62328 h -56.87502 z m -100.44332,78.48534 c -3.02983,0 -5.58222,-1.02433 -7.65107,-3.07301 -2.06885,-2.08399 -3.10329,-4.66249 -3.10329,-7.77082 0,-3.17898 1.03443,-5.75748 3.10329,-7.70018 2.06885,-1.97803 4.62124,-2.93173 7.65107,-2.93173 3.02983,0 5.58222,0.9537 7.65108,2.93173 2.06884,1.9427 3.10327,4.5212 3.10327,7.70018 0,3.10833 -1.03443,5.68683 -3.10327,7.77082 -2.06886,2.04868 -4.62125,3.07301 -7.65108,3.07301 z m 72.61789,-0.88305 -18.73596,-26.91531 -18.40542,26.91531 h -20.62118 l 28.71296,-39.4546 -27.26844,-38.14769 h 20.39471 l 17.85455,25.18454 17.51178,-25.18454 h 19.40312 l -27.04807,37.47658 28.93329,40.12571 z"
   style="fill:#1a1a1a;fill-rule:nonzero;stroke-width:0.503"
   id="path1868" /></svg>
