<?xml version="1.0" encoding="UTF-8" standalone="no"?>
<!DOCTYPE svg PUBLIC "-//W3C//DTD SVG 1.1//EN" "http://www.w3.org/Graphics/SVG/1.1/DTD/svg11.dtd">
<svg width="100%" height="100%" viewBox="0 0 488 418" version="1.1" xmlns="http://www.w3.org/2000/svg" xmlns:xlink="http://www.w3.org/1999/xlink" xml:space="preserve" xmlns:serif="http://www.serif.com/" style="fill-rule:evenodd;clip-rule:evenodd;stroke-linejoin:round;stroke-miterlimit:2;">
    <g transform="matrix(1,0,0,1,-6396.85,-1539.82)">
        <g transform="matrix(1,0,0,1,5120.25,1231.23)">
            <g transform="matrix(0.812916,0,0,0.812916,281.44,96.9099)">
                <g transform="matrix(-0.273922,1.43595,-1.43595,-0.273922,2359.21,1366.08)">
                    <path d="M-606.156,797.042L-626.623,751.63L-387.921,481.625L-367.79,526.294L-566.733,751.418L-566.332,752.309L-323.398,752.613L-303.332,797.135L-549.459,797.059L-562.354,835.489L-606.156,797.042Z" style="fill:currentColor;"/>
                </g>
                <g transform="matrix(1.23014,0,0,1.23014,-6644.83,-1633.79)">
                    <path d="M6688.37,1874.66L6870.52,1874.66L6884.6,1933.34L6410.94,1933.34L6396.85,1874.66L6597.01,1874.66L6594.57,1877.1L6642.69,1925.22L6690.81,1877.1L6688.37,1874.66Z" style="fill:currentColor;"/>
                </g>
                <g transform="matrix(-0.707107,0.707107,-0.707107,-0.707107,3056.38,-349.389)">
                    <g transform="matrix(1,0,0,1,921.623,-191.237)">
                        <rect x="814.579" y="482.833" width="51.514" height="134.521" style="fill:currentColor;"/>
                    </g>
                    <g transform="matrix(1,0,0,1,1013.66,-191.237)">
                        <rect x="814.579" y="482.833" width="51.514" height="134.521" style="fill:currentColor;"/>
                    </g>
                </g>
                <g transform="matrix(0.707107,0.707107,-0.707107,0.707107,499.509,-856.889)">
                    <g transform="matrix(1,0,0,1,921.623,-191.237)">
                        <rect x="814.579" y="482.833" width="51.514" height="134.521" style="fill:currentColor;"/>
                    </g>
                    <g transform="matrix(1,0,0,1,1013.66,-191.237)">
                        <rect x="814.579" y="482.833" width="51.514" height="134.521" style="fill:currentColor;"/>
                    </g>
                </g>
            </g>
        </g>
    </g>
</svg>
