<?xml version="1.0" encoding="UTF-8" standalone="no"?><!DOCTYPE svg PUBLIC "-//W3C//DTD SVG 1.1//EN" "http://www.w3.org/Graphics/SVG/1.1/DTD/svg11.dtd"><svg width="100%" height="100%" viewBox="0 0 500 285" version="1.1" xmlns="http://www.w3.org/2000/svg" xmlns:xlink="http://www.w3.org/1999/xlink" xml:space="preserve" xmlns:serif="http://www.serif.com/" style="fill-rule:evenodd;clip-rule:evenodd;stroke-linejoin:round;stroke-miterlimit:2;"><path d="M465.529,142.139l34.471,37.393c-5.068,5.848 -11.696,12.525 -19.883,20.029c-8.187,7.505 -17.885,15.156 -29.094,22.954c-11.208,7.797 -23.879,15.399 -38.011,22.807c-14.133,7.407 -29.63,13.986 -46.492,19.736c-16.861,5.751 -35.039,10.381 -54.532,13.889c-19.493,3.509 -40.156,5.264 -61.988,5.264c-22.027,-0 -42.739,-1.755 -62.135,-5.264c-5.438,-0.983 -10.777,-2.055 -16.017,-3.216l125.531,-57.102c8.012,-0.975 15.758,-2.215 23.235,-3.717c21.345,-4.288 40.838,-10.087 58.48,-17.397c17.641,-7.31 33.577,-15.741 47.807,-25.293c14.185,-9.522 27.015,-19.528 38.49,-30.02l0.138,-0.063Zm-321.749,15.319l-11.528,-11.528l3.825,-3.825l-3.825,-3.825l73.01,-73.01c-8.956,1.019 -17.581,2.362 -25.876,4.028c-21.345,4.289 -40.838,10.088 -58.48,17.398c-17.641,7.31 -33.577,15.741 -47.807,25.292c-14.23,9.552 -27.095,19.591 -38.596,30.117l-34.503,-37.427c5.068,-5.848 11.696,-12.524 19.883,-20.029c8.187,-7.505 17.885,-15.156 29.094,-22.953c11.208,-7.797 23.879,-15.4 38.011,-22.807c14.133,-7.408 29.63,-13.986 46.492,-19.737c16.861,-5.75 34.99,-10.38 54.385,-13.889c19.396,-3.509 40.108,-5.263 62.135,-5.263c21.832,0 42.495,1.754 61.988,5.263c19.493,3.509 37.671,8.139 54.532,13.889c15.275,5.209 29.431,11.099 42.464,17.667l80.175,-36.471l10.386,61.359l-488.214,222.084l-10.387,-61.359l29.79,-13.551c-3.871,-3.13 -7.489,-6.237 -10.851,-9.32c-8.187,-7.504 -14.815,-14.181 -19.883,-20.029l34.503,-37.427c11.501,10.527 24.366,20.566 38.596,30.117c5.187,3.482 10.601,6.814 16.243,9.999l54.438,-24.763Zm103.734,-47.188l3.418,-1.555l-0.932,-0.931l-2.486,2.486Zm63.389,-28.835l-16.165,-16.165c8.956,1.019 17.581,2.362 25.876,4.028c3.889,0.782 7.717,1.613 11.484,2.495l-21.195,9.642Z" style="fill:currentColor;"/></svg>
