<?xml version="1.0" encoding="UTF-8" standalone="no"?>
<!DOCTYPE svg PUBLIC "-//W3C//DTD SVG 1.1//EN" "http://www.w3.org/Graphics/SVG/1.1/DTD/svg11.dtd">
<svg width="100%" height="100%" viewBox="0 0 652 417" version="1.1" xmlns="http://www.w3.org/2000/svg" xmlns:xlink="http://www.w3.org/1999/xlink" xml:space="preserve" xmlns:serif="http://www.serif.com/" style="fill-rule:evenodd;clip-rule:evenodd;stroke-linejoin:round;stroke-miterlimit:2;">
    <g transform="matrix(1,0,0,1,-16057.2,-2523.22)">
        <g transform="matrix(1,0,0,1,14856.2,2231.23)">
            <g transform="matrix(1,0,0,1,0,235.72)">
                <g transform="matrix(-4.59979e-17,2.15921,-2.15921,-4.59979e-17,2268.14,-483.677)">
                    <path d="M250.068,427.749L346.403,384.33L346.403,407.021L275.395,439.056L275.395,439.508L346.403,471.616L346.403,494.233L250.068,450.815L250.068,427.749Z" style="fill-rule:nonzero;"/>
                </g>
                <g transform="matrix(3.10425e-16,-2.15921,2.15921,3.10425e-16,371.136,1012.24)">
                    <path d="M250.068,427.749L346.403,384.33L346.403,407.021L275.395,439.056L275.395,439.508L346.403,471.616L346.403,494.233L250.068,450.815L250.068,427.749Z" style="fill-rule:nonzero;"/>
                </g>
                <g transform="matrix(3.10425e-16,-2.15921,2.15921,3.10425e-16,785.073,987.548)">
                    <path d="M250.068,427.749L346.403,384.33L346.403,407.021L275.395,439.056L275.395,439.508L346.403,471.616L346.403,494.233L250.068,450.815L250.068,427.749Z" style="fill-rule:nonzero;"/>
                </g>
                <g transform="matrix(1,0,0,1,971.195,-673.528)">
                    <path d="M445.389,913.119L843.976,913.119L855.83,962.497L457.244,962.497L445.389,913.119Z" />
                </g>
            </g>
        </g>
    </g>
</svg>
