<?xml version="1.0" encoding="UTF-8" standalone="no"?>
<!DOCTYPE svg PUBLIC "-//W3C//DTD SVG 1.1//EN" "http://www.w3.org/Graphics/SVG/1.1/DTD/svg11.dtd">
<svg width="100%" height="100%" viewBox="0 0 650 367" version="1.1" xmlns="http://www.w3.org/2000/svg" xmlns:xlink="http://www.w3.org/1999/xlink" xml:space="preserve" xmlns:serif="http://www.serif.com/" style="fill-rule:evenodd;clip-rule:evenodd;stroke-linejoin:round;stroke-miterlimit:2;">
    <g transform="matrix(1,0,0,1,-16070.2,-9547.91)">
        <g transform="matrix(1,0,0,1,14856.2,9231.23)">
            <g transform="matrix(1,0,0,-1,1007.32,1437.81)">
                <path d="M445.389,913.119L843.976,913.119L855.83,962.497L457.244,962.497L445.389,913.119Z" style="fill:rgb(242,13,94);"/>
            </g>
            <g transform="matrix(1,0,0,-1,875.997,1437.81)">
                <path d="M445.389,913.119L843.976,913.119L855.83,962.497L457.244,962.497L445.389,913.119Z" style="fill:rgb(242,13,94);"/>
            </g>
            <g transform="matrix(0,1,-1,0,2138.15,-1197.73)">
                <g transform="matrix(1,0,0,1,921.623,-191.237)">
                    <rect x="814.579" y="482.833" width="51.514" height="134.521" style="fill:rgb(242,13,94);"/>
                </g>
                <g transform="matrix(1,0,0,1,1013.66,-191.237)">
                    <rect x="814.579" y="482.833" width="51.514" height="134.521" style="fill:rgb(242,13,94);"/>
                </g>
            </g>
            <g transform="matrix(0,1,-1,0,2329.39,-299.889)">
                <rect x="814.579" y="482.833" width="51.514" height="134.521" style="fill:rgb(242,13,94);"/>
            </g>
            <g transform="matrix(-1,0,0,-1,3587.27,969.111)">
                <g transform="matrix(1,0,0,1,921.623,-191.237)">
                    <rect x="814.579" y="482.833" width="51.514" height="134.521" style="fill:rgb(242,13,94);"/>
                </g>
                <g transform="matrix(1,0,0,1,1013.66,-191.237)">
                    <rect x="814.579" y="482.833" width="51.514" height="134.521" style="fill:rgb(242,13,94);"/>
                </g>
            </g>
            <g transform="matrix(1,0,0,1,594.462,-50.0936)">
                <rect x="814.579" y="482.833" width="51.514" height="134.521" style="fill:rgb(242,13,94);"/>
            </g>
            <g transform="matrix(1,0,0,2.66103,-522.229,-454.749)">
                <g transform="matrix(1,0,0,1,921.623,-191.237)">
                    <rect x="814.579" y="482.833" width="51.514" height="134.521" style="fill:rgb(242,13,94);"/>
                </g>
                <g transform="matrix(1,0,0,1,1013.66,-191.237)">
                    <rect x="814.579" y="482.833" width="51.514" height="134.521" style="fill:rgb(242,13,94);"/>
                </g>
            </g>
            <g transform="matrix(0,1,-1,0,1835.84,-497.897)">
                <rect x="814.579" y="482.833" width="51.514" height="134.521" style="fill:rgb(242,13,94);"/>
            </g>
            <g transform="matrix(0,1,-1,0,1835.84,-182.773)">
                <rect x="814.579" y="482.833" width="51.514" height="134.521" style="fill:rgb(242,13,94);"/>
            </g>
        </g>
    </g>
</svg>
