<?xml version="1.0" encoding="UTF-8" standalone="no"?>
<!DOCTYPE svg PUBLIC "-//W3C//DTD SVG 1.1//EN" "http://www.w3.org/Graphics/SVG/1.1/DTD/svg11.dtd">
<svg width="100%" height="100%" viewBox="0 0 389 197" version="1.1" xmlns="http://www.w3.org/2000/svg" xmlns:xlink="http://www.w3.org/1999/xlink" xml:space="preserve" xmlns:serif="http://www.serif.com/" style="fill-rule:evenodd;clip-rule:evenodd;stroke-linejoin:round;stroke-miterlimit:2;">
    <g transform="matrix(1,0,0,1,-16188.5,-17632.9)">
        <g transform="matrix(1,0,0,1,14856.2,17231.2)">
            <g transform="matrix(1,0,0,1,117.996,80.7944)">
                <g transform="matrix(0.707107,-0.707107,0.707107,0.707107,-219.541,1443.89)">
                    <g transform="matrix(1,0,0,1,921.623,-191.237)">
                        <rect x="814.579" y="482.833" width="51.514" height="134.521" style="fill:currentColor;"/>
                    </g>
                    <g transform="matrix(1,0,0,1,1013.66,-191.237)">
                        <rect x="814.579" y="482.833" width="51.514" height="134.521" style="fill:currentColor;"/>
                    </g>
                </g>
                <g transform="matrix(0.707107,0.707107,-0.707107,0.707107,287.959,-1112.98)">
                    <g transform="matrix(1,0,0,1,921.623,-191.237)">
                        <rect x="814.579" y="482.833" width="51.514" height="134.521" style="fill:currentColor;"/>
                    </g>
                    <g transform="matrix(1,0,0,1,1013.66,-191.237)">
                        <rect x="814.579" y="482.833" width="51.514" height="134.521" style="fill:currentColor;"/>
                    </g>
                </g>
            </g>
            <g transform="matrix(1.11022e-16,1,-1,1.11022e-16,2120.35,-340.335)">
                <rect x="814.579" y="482.833" width="51.514" height="134.521" style="fill:currentColor;"/>
            </g>
            <g transform="matrix(1.11022e-16,1,-1,1.11022e-16,2203.72,-340.335)">
                <rect x="814.579" y="482.833" width="51.514" height="134.521" style="fill:currentColor;"/>
            </g>
            <g transform="matrix(-1,1.72255e-16,-1.72255e-16,-1,2535.47,1030.09)">
                <rect x="814.579" y="482.833" width="51.514" height="134.521" style="fill:currentColor;"/>
            </g>
            <g transform="matrix(-1,1.72255e-16,-1.72255e-16,-1,2477.85,1070.09)">
                <rect x="814.579" y="482.833" width="51.514" height="134.521" style="fill:currentColor;"/>
            </g>
        </g>
    </g>
</svg>
