<?xml version="1.0" encoding="UTF-8" standalone="no"?>
<!DOCTYPE svg PUBLIC "-//W3C//DTD SVG 1.1//EN" "http://www.w3.org/Graphics/SVG/1.1/DTD/svg11.dtd">
<svg width="100%" height="100%" viewBox="0 0 703 488" version="1.1" xmlns="http://www.w3.org/2000/svg" xmlns:xlink="http://www.w3.org/1999/xlink" xml:space="preserve" xmlns:serif="http://www.serif.com/" style="fill-rule:evenodd;clip-rule:evenodd;stroke-linejoin:round;stroke-miterlimit:2;">
    <g transform="matrix(1,0,0,1,-16034.4,-20487.4)">
        <g transform="matrix(1,0,0,1,14856.2,20231.2)">
            <g transform="matrix(1,0,0,1,-14856.2,-20231.2)">
                <path d="M16276.6,20755.9C16276,20763.7 16274.9,20772.1 16273.3,20781.1C16271.3,20792.3 16268.3,20804.3 16264.3,20817C16260.3,20829.7 16255.1,20842.7 16248.5,20856.1C16242,20869.4 16234,20882.9 16224.5,20896.5C16215.1,20910.1 16203.9,20923.3 16191,20936.2L16185.5,20941.5C16177.6,20952.3 16169.6,20961.7 16161.4,20969.8L16155.8,20975L16150.3,20969.8C16142.1,20961.7 16134.1,20952.3 16126.2,20941.5L16126.5,20941.2L16126.1,20941.5L16120.5,20936.2C16107.6,20923.3 16096.5,20910.1 16087,20896.5C16077.6,20882.9 16069.6,20869.4 16063,20856.1C16056.5,20842.7 16051.2,20829.7 16047.2,20817C16043.3,20804.3 16040.3,20792.3 16038.3,20781.1C16036.2,20769.9 16035,20759.6 16034.6,20750.4C16034.3,20743.1 16034.3,20736.7 16034.5,20731.2C16034.3,20725.7 16034.3,20719.3 16034.6,20712.1C16035,20702.8 16036.2,20692.6 16038.3,20681.4C16040.3,20670.1 16043.3,20658.2 16047.2,20645.5C16051.2,20632.7 16056.5,20619.7 16063,20606.4C16069.6,20593 16077.6,20579.5 16087,20566C16096.5,20552.4 16107.6,20539.1 16120.5,20526.3L16126.1,20520.9L16126.5,20521.2L16126.2,20520.9C16134.1,20510.2 16142.1,20500.7 16150.3,20492.7L16155.8,20487.4L16161.4,20492.7C16169.6,20500.7 16177.6,20510.2 16185.5,20520.9C16185.5,20520.9 16191,20526.3 16191,20526.3C16203.9,20539.1 16215.1,20552.4 16224.5,20566C16234,20579.5 16242,20593 16248.5,20606.4C16255.1,20619.7 16260.3,20632.7 16264.3,20645.5C16268.3,20658.2 16271.3,20670.1 16273.3,20681.4C16274.9,20690.4 16276,20698.8 16276.6,20706.5L16287.3,20706.5L16287.3,20664L16338.8,20664L16338.8,20706.5L16510,20706.5L16510,20664L16561.5,20664L16561.5,20706.5L16602.1,20706.5L16602.1,20664L16653.6,20664L16653.6,20706.5L16736.6,20706.5L16726.7,20755.9L16653.6,20755.9L16653.6,20794L16736.6,20794L16736.6,20937.5L16602.1,20937.5L16602.1,20886L16685.1,20886L16685.1,20845.5L16602.1,20845.5L16602.1,20755.9L16561.5,20755.9L16561.5,20845.5L16478.5,20845.5L16478.5,20886L16561.5,20886L16561.5,20937.5L16427,20937.5L16427,20794L16510,20794L16510,20755.9L16338.8,20755.9L16338.8,20798.5L16287.3,20798.5L16287.3,20755.9L16276.6,20755.9ZM16155.8,20565.2C16141.4,20579.8 16129.4,20594.4 16119.7,20608.9C16109.7,20624 16101.6,20638.9 16095.5,20653.7C16089.4,20668.4 16085,20682.8 16082.2,20696.8C16079.9,20708.6 16078.3,20719.9 16077.6,20731L16077.6,20731.2L16077.6,20731.5C16078.3,20742.5 16079.9,20753.9 16082.2,20765.6C16085,20779.7 16089.4,20794.1 16095.5,20808.8C16101.6,20823.5 16109.7,20838.5 16119.7,20853.6C16129.4,20868.1 16141.4,20882.6 16155.8,20897.2C16170.1,20882.6 16182.1,20868.1 16191.8,20853.6C16201.9,20838.5 16210,20823.5 16216.1,20808.8C16222.2,20794.1 16226.6,20779.7 16229.4,20765.6C16230,20762.4 16230.6,20759.1 16231.1,20755.9L16202.1,20755.9L16212,20706.5L16231.1,20706.5C16230.6,20703.3 16230,20700.1 16229.4,20696.8C16226.6,20682.8 16222.2,20668.4 16216.1,20653.7C16210,20638.9 16201.9,20624 16191.8,20608.9C16182.1,20594.4 16170.1,20579.8 16155.8,20565.2Z" style="fill:currentColor;"/>
            </g>
        </g>
    </g>
</svg>
