<?xml version="1.0" encoding="UTF-8" standalone="no"?>
<!DOCTYPE svg PUBLIC "-//W3C//DTD SVG 1.1//EN" "http://www.w3.org/Graphics/SVG/1.1/DTD/svg11.dtd">
<svg width="100%" height="100%" viewBox="0 0 642 367" version="1.1" xmlns="http://www.w3.org/2000/svg" xmlns:xlink="http://www.w3.org/1999/xlink" xml:space="preserve" xmlns:serif="http://www.serif.com/" style="fill-rule:evenodd;clip-rule:evenodd;stroke-linejoin:round;stroke-miterlimit:2;">
    <g transform="matrix(1,0,0,1,-16012.5,-15547.9)">
        <g transform="matrix(1,0,0,1,14856.2,15231.2)">
            <g>
                <g transform="matrix(1,0,0,-1,941.532,1437.81)">
                    <path d="M445.389,913.119L843.976,913.119L855.83,962.497L457.244,962.497L445.389,913.119Z" style="fill:currentColor;"/>
                </g>
                <g transform="matrix(6.12323e-17,1,-1,6.12323e-17,2268.55,-254.229)">
                    <rect x="814.579" y="482.833" width="51.514" height="134.521" style="fill:currentColor;"/>
                </g>
                <g transform="matrix(1,0,0,1,836.509,-5.71652)">
                    <rect x="814.579" y="482.833" width="51.514" height="134.521" style="fill:currentColor;"/>
                </g>
                <g transform="matrix(1,0,0,1,572.343,-50.0936)">
                    <rect x="814.579" y="482.833" width="51.514" height="134.521" style="fill:currentColor;"/>
                </g>
            </g>
            <g transform="matrix(-1,0,0,2.66103,3128.1,-454.93)">
                <g transform="matrix(1,0,0,1,921.623,-191.237)">
                    <rect x="814.579" y="482.833" width="51.514" height="134.521" style="fill:currentColor;"/>
                </g>
                <g transform="matrix(1,0,0,1,1013.66,-191.237)">
                    <rect x="814.579" y="482.833" width="51.514" height="134.521" style="fill:currentColor;"/>
                </g>
            </g>
            <g transform="matrix(0,1,-1,0,1586.94,-1307.54)">
                <g transform="matrix(1,0,0,1,921.623,-191.237)">
                    <rect x="814.579" y="482.833" width="51.514" height="134.521" style="fill:currentColor;"/>
                </g>
                <g transform="matrix(1,0,0,1,1013.66,-191.237)">
                    <rect x="814.579" y="482.833" width="51.514" height="134.521" style="fill:currentColor;"/>
                </g>
            </g>
            <g transform="matrix(-1,0,0,-1,3036.06,859.299)">
                <g transform="matrix(1,0,0,1,921.623,-191.237)">
                    <rect x="814.579" y="482.833" width="51.514" height="134.521" style="fill:currentColor;"/>
                </g>
                <g transform="matrix(1,0,0,1,1013.66,-191.237)">
                    <rect x="814.579" y="482.833" width="51.514" height="134.521" style="fill:currentColor;"/>
                </g>
            </g>
            <g transform="matrix(0,1,1,0,770.026,-497.897)">
                <rect x="814.579" y="482.833" width="51.514" height="134.521" style="fill:currentColor;"/>
            </g>
            <g transform="matrix(0,1,1,0,770.026,-182.773)">
                <rect x="814.579" y="482.833" width="51.514" height="134.521" style="fill:currentColor;"/>
            </g>
        </g>
    </g>
</svg>
