<?xml version="1.0" encoding="UTF-8" standalone="no"?>
<!DOCTYPE svg PUBLIC "-//W3C//DTD SVG 1.1//EN" "http://www.w3.org/Graphics/SVG/1.1/DTD/svg11.dtd">
<svg width="100%" height="100%" viewBox="0 0 668 394" version="1.1" xmlns="http://www.w3.org/2000/svg" xmlns:xlink="http://www.w3.org/1999/xlink" xml:space="preserve" xmlns:serif="http://www.serif.com/" style="fill-rule:evenodd;clip-rule:evenodd;stroke-linejoin:round;stroke-miterlimit:2;">
    <g transform="matrix(1,0,0,1,-15986,-18534.6)">
        <g transform="matrix(1,0,0,1,14856.2,18231.2)">
            <g transform="matrix(1.15517,1.90023e-17,-1.90023e-17,-1,808.737,1437.81)">
                <path d="M445.389,913.119L843.976,913.119L855.83,962.497L457.244,962.497L445.389,913.119Z" style="fill:rgb(242,13,94);"/>
            </g>
            <g transform="matrix(-1,1.22465e-16,-1.22465e-16,-1,2567.69,1141.04)">
                <rect x="814.579" y="482.833" width="51.514" height="134.521" style="fill:rgb(242,13,94);"/>
            </g>
            <g transform="matrix(1,0,0,1,836.509,-5.71652)">
                <rect x="814.579" y="482.833" width="51.514" height="134.521" style="fill:rgb(242,13,94);"/>
            </g>
        </g>
        <g transform="matrix(1,0,0,1,14856.2,18231.2)">
            <g transform="matrix(0.707107,0.707107,-0.707107,0.707107,203.394,-1031.74)">
                <g transform="matrix(1,0,0,1,921.623,-191.237)">
                    <rect x="814.579" y="482.833" width="51.514" height="134.521" style="fill:rgb(242,13,94);"/>
                </g>
                <g transform="matrix(1,0,0,1,1013.66,-191.237)">
                    <rect x="814.579" y="482.833" width="51.514" height="134.521" style="fill:rgb(242,13,94);"/>
                </g>
            </g>
        </g>
        <g transform="matrix(1,0,0,1,14856.2,18231.2)">
            <g transform="matrix(0.707107,0.707107,-0.707107,0.707107,302.151,-1130.5)">
                <g transform="matrix(1,0,0,1,921.623,-191.237)">
                    <rect x="814.579" y="482.833" width="51.514" height="134.521" style="fill:rgb(242,13,94);"/>
                </g>
                <g transform="matrix(1,0,0,1,1013.66,-191.237)">
                    <rect x="814.579" y="482.833" width="51.514" height="134.521" style="fill:rgb(242,13,94);"/>
                </g>
            </g>
        </g>
        <g transform="matrix(1,0,0,1,14856.2,18231.2)">
            <g transform="matrix(0.707107,0.707107,-0.707107,0.707107,302.151,-933.869)">
                <g transform="matrix(1,0,0,1,921.623,-191.237)">
                    <rect x="814.579" y="482.833" width="51.514" height="134.521" style="fill:rgb(242,13,94);"/>
                </g>
                <g transform="matrix(1,0,0,1,1013.66,-191.237)">
                    <rect x="814.579" y="482.833" width="51.514" height="134.521" style="fill:rgb(242,13,94);"/>
                </g>
            </g>
        </g>
        <g transform="matrix(1,0,0,1,14856.2,18231.2)">
            <g transform="matrix(-0.707107,0.707107,-0.707107,-0.707107,2760.26,-524.242)">
                <g transform="matrix(1,0,0,1,921.623,-191.237)">
                    <rect x="814.579" y="482.833" width="51.514" height="134.521" style="fill:rgb(242,13,94);"/>
                </g>
                <g transform="matrix(1,0,0,1,1013.66,-191.237)">
                    <rect x="814.579" y="482.833" width="51.514" height="134.521" style="fill:rgb(242,13,94);"/>
                </g>
            </g>
        </g>
        <g transform="matrix(1,0,0,1,14856.2,18231.2)">
            <g transform="matrix(-0.707107,0.707107,-0.707107,-0.707107,2859.02,-622.999)">
                <g transform="matrix(1,0,0,1,921.623,-191.237)">
                    <rect x="814.579" y="482.833" width="51.514" height="134.521" style="fill:rgb(242,13,94);"/>
                </g>
                <g transform="matrix(1,0,0,1,1013.66,-191.237)">
                    <rect x="814.579" y="482.833" width="51.514" height="134.521" style="fill:rgb(242,13,94);"/>
                </g>
            </g>
        </g>
        <g transform="matrix(1,0,0,1,14856.2,18231.2)">
            <g transform="matrix(-0.707107,0.707107,-0.707107,-0.707107,2859.02,-426.369)">
                <g transform="matrix(1,0,0,1,921.623,-191.237)">
                    <rect x="814.579" y="482.833" width="51.514" height="134.521" style="fill:rgb(242,13,94);"/>
                </g>
                <g transform="matrix(1,0,0,1,1013.66,-191.237)">
                    <rect x="814.579" y="482.833" width="51.514" height="134.521" style="fill:rgb(242,13,94);"/>
                </g>
            </g>
        </g>
    </g>
</svg>
