<?xml version="1.0" encoding="UTF-8" standalone="no"?>
<!DOCTYPE svg PUBLIC "-//W3C//DTD SVG 1.1//EN" "http://www.w3.org/Graphics/SVG/1.1/DTD/svg11.dtd">
<svg width="100%" height="100%" viewBox="0 0 760 418" version="1.1" xmlns="http://www.w3.org/2000/svg" xmlns:xlink="http://www.w3.org/1999/xlink" xml:space="preserve" xmlns:serif="http://www.serif.com/" style="fill-rule:evenodd;clip-rule:evenodd;stroke-linejoin:round;stroke-miterlimit:2;">
    <g transform="matrix(1,0,0,1,-15977,-21522.7)">
        <g transform="matrix(1,0,0,1,14856.2,21231.2)">
            <g transform="matrix(1,0,0,1,-14856.2,-21231.2)">
                <path d="M15980.1,21538L15979.3,21534.3C15985.4,21532.1 15993,21530.1 16002,21528.1C16011.1,21526.1 16021.3,21524.6 16032.6,21523.6C16044,21522.7 16056.3,21522.5 16069.6,21523C16083,21523.5 16096.9,21525.3 16111.5,21528.1C16126.1,21531 16141.1,21535.2 16156.6,21540.8C16172.1,21546.4 16187.8,21553.7 16203.8,21562.9C16219.5,21572 16233.7,21581.9 16246.4,21592.6C16259,21603.3 16270.2,21614.2 16280,21625.4C16289.8,21636.6 16298.3,21647.9 16305.4,21659.1C16312.5,21670.4 16318.5,21681.2 16323.4,21691.5C16325.8,21696.7 16328,21701.7 16329.9,21706.5L16331.3,21706.5L16331.3,21664L16382.8,21664L16382.8,21706.5L16736.6,21706.5L16736.6,21890.4L16685.1,21890.4L16685.1,21755.9L16644.5,21755.9L16644.5,21841.1L16593,21841.1L16593,21755.9L16552.5,21755.9L16552.5,21890.4L16501,21890.4L16501,21755.9L16382.8,21755.9L16382.8,21798.5L16331.3,21798.5L16331.3,21755.9L16329.9,21755.9C16328,21760.8 16325.8,21765.8 16323.4,21771C16318.5,21781.3 16312.5,21792.1 16305.4,21803.3C16298.3,21814.6 16289.8,21825.8 16280,21837C16270.2,21848.2 16259,21859.2 16246.4,21869.8C16233.7,21880.5 16219.5,21890.4 16203.8,21899.5C16187.8,21908.7 16172.1,21916.1 16156.6,21921.7C16141.1,21927.2 16126.1,21931.4 16111.5,21934.3C16096.9,21937.2 16083,21938.9 16069.6,21939.5C16056.3,21940 16044,21939.8 16032.6,21938.8C16021.3,21937.9 16011.1,21936.4 16002,21934.4C15993,21932.4 15985.4,21930.3 15979.3,21928.2L15980.3,21923.6L15977,21922.6C15978.2,21916.2 15980.2,21908.6 15983,21899.8C15985.8,21891 15989.6,21881.4 15994.5,21871.1C15999.3,21860.7 16005.3,21849.9 16012.4,21838.7C16019.6,21827.4 16028,21816.2 16037.8,21805C16041.9,21800.4 16046.2,21795.8 16050.7,21791.3C16039.4,21785.3 16029.2,21779.1 16020.2,21772.9C16010.8,21766.3 16002.7,21760 15995.9,21753.7C15989,21747.4 15983.5,21741.8 15979.3,21737L15984.6,21731.2L15979.3,21725.5C15983.5,21720.6 15989,21715 15995.9,21708.8C16002.7,21702.5 16010.8,21696.1 16020.2,21689.6C16029.4,21683.2 16039.7,21677 16051.3,21670.9C16046.5,21666.2 16042,21661.4 16037.8,21656.6C16028,21645.4 16019.6,21634.1 16012.4,21622.9C16005.3,21611.6 15999.3,21600.8 15994.5,21590.5C15989.6,21580.2 15985.8,21570.6 15983,21561.8C15980.2,21552.9 15978.2,21545.3 15977,21539L15980.1,21538ZM16103.6,21812.4C16114,21815.4 16124.8,21817.9 16136.1,21820C16152.3,21822.9 16169.6,21824.4 16188,21824.4C16200.1,21824.4 16211.8,21823.7 16223,21822.4C16210,21833.5 16194.8,21844.1 16177.5,21854.1C16158.9,21864.8 16141,21873.1 16123.8,21878.9C16106.5,21884.7 16090,21888.6 16074.2,21890.7C16060.7,21892.5 16047.7,21893.2 16035.3,21892.7C16041.2,21881.4 16048.4,21870.2 16056.9,21859.1C16066.6,21846.5 16078.3,21834.1 16091.9,21822.1C16095.7,21818.8 16099.6,21815.6 16103.6,21812.4ZM16218.6,21756C16210.6,21758 16202.4,21760.3 16194.1,21763.1C16187,21765.5 16179.8,21768.3 16172.5,21771.5C16177.6,21771.8 16182.7,21771.9 16188,21771.9C16209.5,21771.9 16229.2,21770.1 16247,21766.5C16257.4,21764.4 16267.3,21761.9 16276.6,21758.9C16267.7,21759.4 16258.2,21759.4 16248.2,21759C16238.6,21758.6 16228.8,21757.6 16218.6,21756ZM16092.9,21705.7C16088.5,21707.2 16084.3,21708.8 16080.2,21710.5C16065.7,21716.5 16052.6,21723.4 16040.9,21731.2C16052.6,21739.1 16065.7,21746 16080.2,21752C16084,21753.6 16088,21755.1 16092,21756.5C16099,21751.6 16106.3,21747 16114.1,21742.5C16121.5,21738.2 16129,21734.3 16136.3,21730.8C16129,21727.3 16121.5,21723.4 16114.1,21719C16106.6,21714.8 16099.6,21710.3 16092.9,21705.7ZM16273.3,21702.5C16264.9,21700 16256.2,21697.8 16247,21696C16229.2,21692.4 16209.5,21690.6 16188,21690.6C16183.4,21690.6 16178.8,21690.7 16174.4,21690.8C16181,21693.7 16187.6,21696.2 16194.1,21698.4C16202.4,21701.2 16210.6,21703.6 16218.6,21705.5C16228.8,21704 16238.6,21703 16248.2,21702.6C16257,21702.2 16265.3,21702.2 16273.3,21702.5ZM16223,21640C16210,21628.9 16194.8,21618.4 16177.5,21608.4C16158.9,21597.6 16141,21589.4 16123.8,21583.6C16106.5,21577.8 16090,21573.8 16074.2,21571.7C16060.8,21570 16048,21569.3 16035.7,21569.7C16041.5,21580.7 16048.6,21591.6 16056.9,21602.5C16066.6,21615.1 16078.3,21627.4 16091.9,21639.5C16095.9,21643 16100.1,21646.4 16104.5,21649.8C16114.5,21646.9 16125.1,21644.5 16136.1,21642.5C16152.3,21639.6 16169.6,21638.1 16188,21638.1C16200.1,21638.1 16211.8,21638.7 16223,21640Z" style="fill:currentColor;"/>
            </g>
        </g>
    </g>
</svg>
