<svg viewBox="0 0 220 193" fill="none" xmlns="http://www.w3.org/2000/svg">
<rect x="62" y="72" width="8" height="8" fill="currentColor"/>
<rect x="54" y="80" width="8" height="8" fill="currentColor"/>
<rect x="70" y="80" width="8" height="16" fill="currentColor"/>
<rect x="78" y="72" width="8" height="8" fill="currentColor"/>
<rect x="86" y="104" width="8" height="32" fill="currentColor"/>
<rect x="78" y="96" width="8" height="8" fill="currentColor"/>
<rect x="102" y="120" width="8" height="8" fill="currentColor"/>
<rect x="126" y="120" width="8" height="8" fill="currentColor"/>
<rect x="150" y="144" width="8" height="8" fill="currentColor"/>
<rect x="158" y="136" width="8" height="16" fill="currentColor"/>
<rect x="118" y="112" width="8" height="8" fill="currentColor"/>
<rect x="118" y="136" width="8" height="8" fill="currentColor"/>
<rect x="134" y="128" width="8" height="8" fill="currentColor"/>
<rect x="134" y="136" width="8" height="8" fill="currentColor"/>
<rect x="142" y="112" width="8" height="8" fill="currentColor"/>
<rect x="142" y="136" width="8" height="16" fill="currentColor"/>
<rect x="150" y="120" width="8" height="16" fill="currentColor"/>
<rect x="110" y="144" width="24" height="8" fill="currentColor"/>
<rect x="110" y="128" width="16" height="8" fill="currentColor"/>
<rect x="94" y="144" width="8" height="8" fill="currentColor"/>
<rect x="62" y="112" width="8" height="8" fill="currentColor"/>
<rect x="54" y="96" width="16" height="8" fill="currentColor"/>
<rect x="54" y="104" width="24" height="8" fill="currentColor"/>
<rect x="86" y="136" width="24" height="8" fill="currentColor"/>
<rect x="126" y="88" width="8" height="8" fill="currentColor"/>
<path d="M86 80H118V88H86V80Z" fill="currentColor"/>
<path d="M94 96H134V104H94V96Z" fill="currentColor"/>
<path d="M78 112H118V120H78V112Z" fill="currentColor"/>
<rect x="86" y="64" width="24" height="8" fill="currentColor"/>
<rect x="134" y="72" width="24" height="8" fill="currentColor"/>
<rect x="86" y="48" width="16" height="8" fill="currentColor"/>
<rect x="102" y="40" width="32" height="8" fill="currentColor"/>
<rect x="118" y="48" width="24" height="8" transform="rotate(90 118 48)" fill="currentColor"/>
<rect x="126" y="72" width="16" height="8" transform="rotate(90 126 72)" fill="currentColor"/>
<rect x="118" y="72" width="40" height="8" transform="rotate(90 118 72)" fill="currentColor"/>
<rect x="102" y="71" width="25" height="8" transform="rotate(90 102 71)" fill="currentColor"/>
<rect x="126" y="56" width="8" height="8" transform="rotate(-180 126 56)" fill="currentColor"/>
<rect x="134" y="64" width="8" height="8" transform="rotate(-180 134 64)" fill="currentColor"/>
<rect x="142" y="88" width="8" height="8" transform="rotate(-180 142 88)" fill="currentColor"/>
<rect x="166" y="112" width="32" height="8" transform="rotate(-180 166 112)" fill="currentColor"/>
<rect x="150" y="104" width="8" height="8" transform="rotate(-180 150 104)" fill="currentColor"/>
<rect x="166" y="88" width="8" height="8" transform="rotate(-180 166 88)" fill="currentColor"/>
<rect x="166" y="136" width="8" height="8" transform="rotate(-180 166 136)" fill="currentColor"/>
<rect x="134" y="72" width="16" height="8" transform="rotate(-180 134 72)" fill="currentColor"/>
<rect x="158" y="96" width="16" height="8" transform="rotate(-180 158 96)" fill="currentColor"/>
<rect x="86" y="70" width="17" height="8" transform="rotate(-90 86 70)" fill="currentColor"/>
<rect x="86" y="57" width="17" height="8" transform="rotate(-90 86 57)" fill="currentColor"/>
<path fill-rule="evenodd" clip-rule="evenodd" d="M70.1938 65.8445L79.6455 65.8262L79.6933 41.1659L70.2416 41.1842L70.1938 65.8445Z" fill="currentColor"/>
<path fill-rule="evenodd" clip-rule="evenodd" d="M157.194 65.8445L166.645 65.8262L166.693 41.1659L157.242 41.1842L157.194 65.8445Z" fill="currentColor"/>
<path fill-rule="evenodd" clip-rule="evenodd" d="M70.1938 150.845L79.6455 150.826L79.6933 126.166L70.2416 126.184L70.1938 150.845Z" fill="currentColor"/>
<path fill-rule="evenodd" clip-rule="evenodd" d="M53.3071 65.8328L62.7588 65.8145L62.8065 41.1542L53.3548 41.1725L53.3071 65.8328Z" fill="currentColor"/>
<path fill-rule="evenodd" clip-rule="evenodd" d="M140.307 65.8328L149.759 65.8145L149.807 41.1542L140.355 41.1725L140.307 65.8328Z" fill="currentColor"/>
<path fill-rule="evenodd" clip-rule="evenodd" d="M53.3071 150.833L62.7588 150.815L62.8065 126.154L53.3548 126.173L53.3071 150.833Z" fill="currentColor"/>
<path fill-rule="evenodd" clip-rule="evenodd" d="M78.8192 49.758L78.8375 40.3063L54.1772 40.354L54.1589 49.8057L78.8192 49.758Z" fill="currentColor"/>
<path fill-rule="evenodd" clip-rule="evenodd" d="M165.819 49.758L165.838 40.3063L141.177 40.354L141.159 49.8057L165.819 49.758Z" fill="currentColor"/>
<path fill-rule="evenodd" clip-rule="evenodd" d="M78.8192 134.758L78.8375 125.306L54.1772 125.354L54.1589 134.806L78.8192 134.758Z" fill="currentColor"/>
<path fill-rule="evenodd" clip-rule="evenodd" d="M78.827 66.6447L78.8453 57.193L54.185 57.2408L54.1667 66.6925L78.827 66.6447Z" fill="currentColor"/>
<path fill-rule="evenodd" clip-rule="evenodd" d="M165.827 66.6447L165.845 57.193L141.185 57.2408L141.167 66.6925L165.827 66.6447Z" fill="currentColor"/>
<path fill-rule="evenodd" clip-rule="evenodd" d="M78.827 151.645L78.8453 142.193L54.185 142.241L54.1667 151.692L78.827 151.645Z" fill="currentColor"/>
</svg>
