<svg viewBox="0 0 220 195" fill="none" xmlns="http://www.w3.org/2000/svg">
<g clip-path="url(#clip0_1784_36155)">
<path fill-rule="evenodd" clip-rule="evenodd" d="M76.8525 88.7444L84.4659 88.7297L84.5044 68.8657L76.891 68.8805L76.8525 88.7444Z" fill="currentColor"/>
<path fill-rule="evenodd" clip-rule="evenodd" d="M63.2529 88.7366L70.8663 88.7219L70.9048 68.8579L63.2914 68.8726L63.2529 88.7366Z" fill="currentColor"/>
<path fill-rule="evenodd" clip-rule="evenodd" d="M83.7984 75.7878L83.8131 68.1745L63.9492 68.2129L63.9344 75.8263L83.7984 75.7878Z" fill="currentColor"/>
<path fill-rule="evenodd" clip-rule="evenodd" d="M83.8082 89.3894L83.8229 81.776L63.9589 81.8145L63.9442 89.4279L83.8082 89.3894Z" fill="currentColor"/>
<path fill-rule="evenodd" clip-rule="evenodd" d="M76.8701 124.057L84.4835 124.042L84.522 104.178L76.9086 104.193L76.8701 124.057Z" fill="currentColor"/>
<path fill-rule="evenodd" clip-rule="evenodd" d="M63.2354 124.084L70.8487 124.07L70.8872 104.206L63.2738 104.22L63.2354 124.084Z" fill="currentColor"/>
<path fill-rule="evenodd" clip-rule="evenodd" d="M83.816 111.1L83.8307 103.487L63.9667 103.525L63.952 111.139L83.816 111.1Z" fill="currentColor"/>
<path fill-rule="evenodd" clip-rule="evenodd" d="M83.7906 124.737L83.8053 117.124L63.9414 117.162L63.9266 124.776L83.7906 124.737Z" fill="currentColor"/>
<path fill-rule="evenodd" clip-rule="evenodd" d="M76.8525 159.405L84.4659 159.39L84.5044 139.526L76.891 139.541L76.8525 159.405Z" fill="currentColor"/>
<path fill-rule="evenodd" clip-rule="evenodd" d="M63.2529 159.397L70.8663 159.382L70.9048 139.518L63.2914 139.533L63.2529 159.397Z" fill="currentColor"/>
<path fill-rule="evenodd" clip-rule="evenodd" d="M83.7984 146.448L83.8131 138.835L63.9492 138.873L63.9344 146.486L83.7984 146.448Z" fill="currentColor"/>
<path fill-rule="evenodd" clip-rule="evenodd" d="M83.8082 160.05L83.8229 152.436L63.9589 152.475L63.9442 160.088L83.8082 160.05Z" fill="currentColor"/>
<path fill-rule="evenodd" clip-rule="evenodd" d="M183 50.9735H40.7611L37 42H179.239L183 50.9735Z" fill="currentColor"/>
<path fill-rule="evenodd" clip-rule="evenodd" d="M173.378 83.0909H97.9115L94.1504 74.0684H169.617L173.378 83.0909Z" fill="currentColor"/>
<path fill-rule="evenodd" clip-rule="evenodd" d="M173.378 117.171H97.9115L94.1504 108.197H169.617L173.378 117.171Z" fill="currentColor"/>
<path fill-rule="evenodd" clip-rule="evenodd" d="M173.378 153.261H97.9115L94.1504 144.287H169.617L173.378 153.261Z" fill="currentColor"/>
</g>
<defs>
<clipPath id="clip0_1784_36155">
<rect width="146" height="122" fill="white" transform="translate(37 42)"/>
</clipPath>
</defs>
</svg>
