<svg viewBox="0 0 220 193" fill="none" xmlns="http://www.w3.org/2000/svg">
<path d="M159.74 106.439C155.709 106.439 151.92 106.761 148.372 107.403C144.823 108.044 141.506 108.892 138.421 109.943C135.336 110.996 132.501 112.199 129.915 113.555C127.33 114.91 125.011 116.301 122.961 117.727C120.91 119.154 119.135 120.554 117.637 121.927C116.139 123.3 114.927 124.522 114 125.591L120.313 132.439C122.417 130.513 124.77 128.677 127.374 126.929C129.978 125.181 132.893 123.639 136.121 122.301C139.349 120.964 142.915 119.903 146.82 119.118C150.725 118.334 155.032 117.941 159.74 117.941C164.447 117.941 168.754 118.334 172.659 119.118C176.564 119.903 180.131 120.964 183.358 122.301C186.586 123.639 189.501 125.181 192.105 126.929C194.709 128.677 197.063 130.513 199.167 132.439L205.479 125.591C204.552 124.522 203.34 123.3 201.842 121.927C200.344 120.554 198.569 119.154 196.518 117.727C194.468 116.301 192.15 114.91 189.564 113.555C186.978 112.199 184.143 110.996 181.058 109.943C177.973 108.892 174.647 108.044 171.081 107.403C167.514 106.761 163.734 106.439 159.74 106.439Z" fill="currentColor"/>
<path d="M155.292 70.0078H144.004V99.4844H155.292V70.0078Z" fill="currentColor"/>
<path d="M175.462 70.0078H164.174V99.4844H175.462V70.0078Z" fill="currentColor"/>
<path d="M60.7395 134.4C56.7094 134.4 52.9201 134.079 49.3716 133.437C45.8231 132.796 42.506 131.948 39.4212 130.896C36.3363 129.844 33.5009 128.64 30.9152 127.285C28.3295 125.93 26.0112 124.539 23.9606 123.112C21.9101 121.686 20.1354 120.286 18.6374 118.913C17.1395 117.54 15.9273 116.318 15 115.248L21.3125 108.401C23.4165 110.327 25.7704 112.163 28.374 113.911C30.9777 115.659 33.8931 117.201 37.1208 118.539C40.3485 119.876 43.915 120.937 47.8202 121.721C51.7254 122.506 56.0319 122.899 60.7395 122.899C65.4472 122.899 69.7536 122.506 73.6589 121.721C77.5641 120.937 81.1306 119.876 84.3583 118.539C87.586 117.201 90.5014 115.659 93.105 113.911C95.7087 112.163 98.0625 110.327 100.167 108.401L106.479 115.248C105.552 116.318 104.34 117.54 102.842 118.913C101.344 120.286 99.5694 121.686 97.5184 123.112C95.4679 124.539 93.1495 125.93 90.5639 127.285C87.9782 128.64 85.1427 129.844 82.0579 130.896C78.9731 131.948 75.6474 132.796 72.081 133.437C68.5145 134.079 64.7342 134.4 60.7395 134.4Z" fill="currentColor"/>
<path d="M56.2957 68H45.0078V97.4766H56.2957V68Z" fill="currentColor"/>
<path d="M76.4617 68H65.1738V97.4766H76.4617V68Z" fill="currentColor"/>
<path d="M159.74 106.439C155.709 106.439 151.92 106.761 148.372 107.403C144.823 108.044 141.506 108.892 138.421 109.943C135.336 110.996 132.501 112.199 129.915 113.555C127.33 114.91 125.011 116.301 122.961 117.727C120.91 119.154 119.135 120.554 117.637 121.927C116.139 123.3 114.927 124.522 114 125.591L120.313 132.439C122.417 130.513 124.77 128.677 127.374 126.929C129.978 125.181 132.893 123.639 136.121 122.301C139.349 120.964 142.915 119.903 146.82 119.118C150.725 118.334 155.032 117.941 159.74 117.941C164.447 117.941 168.754 118.334 172.659 119.118C176.564 119.903 180.131 120.964 183.358 122.301C186.586 123.639 189.501 125.181 192.105 126.929C194.709 128.677 197.063 130.513 199.167 132.439L205.479 125.591C204.552 124.522 203.34 123.3 201.842 121.927C200.344 120.554 198.569 119.154 196.518 117.727C194.468 116.301 192.15 114.91 189.564 113.555C186.978 112.199 184.143 110.996 181.058 109.943C177.973 108.892 174.647 108.044 171.081 107.403C167.514 106.761 163.734 106.439 159.74 106.439Z" fill="currentColor"/>
<path d="M155.292 70.0078H144.004V99.4844H155.292V70.0078Z" fill="currentColor"/>
<path d="M175.462 70.0078H164.174V99.4844H175.462V70.0078Z" fill="currentColor"/>
<path d="M60.7395 134.4C56.7094 134.4 52.9201 134.079 49.3716 133.437C45.8231 132.796 42.506 131.948 39.4212 130.896C36.3363 129.844 33.5009 128.64 30.9152 127.285C28.3295 125.93 26.0112 124.539 23.9606 123.112C21.9101 121.686 20.1354 120.286 18.6374 118.913C17.1395 117.54 15.9273 116.318 15 115.248L21.3125 108.401C23.4165 110.327 25.7704 112.163 28.374 113.911C30.9777 115.659 33.8931 117.201 37.1208 118.539C40.3485 119.876 43.915 120.937 47.8202 121.721C51.7254 122.506 56.0319 122.899 60.7395 122.899C65.4472 122.899 69.7536 122.506 73.6589 121.721C77.5641 120.937 81.1306 119.876 84.3583 118.539C87.586 117.201 90.5014 115.659 93.105 113.911C95.7087 112.163 98.0625 110.327 100.167 108.401L106.479 115.248C105.552 116.318 104.34 117.54 102.842 118.913C101.344 120.286 99.5694 121.686 97.5184 123.112C95.4679 124.539 93.1495 125.93 90.5639 127.285C87.9782 128.64 85.1427 129.844 82.0579 130.896C78.9731 131.948 75.6474 132.796 72.081 133.437C68.5145 134.079 64.7342 134.4 60.7395 134.4Z" fill="currentColor"/>
<path d="M56.2957 68H45.0078V97.4766H56.2957V68Z" fill="currentColor"/>
<path d="M76.4617 68H65.1738V97.4766H76.4617V68Z" fill="currentColor"/>
</svg>
