<svg width="210" height="193" viewBox="0 0 210 193" fill="none" xmlns="http://www.w3.org/2000/svg">
<path fill-rule="evenodd" clip-rule="evenodd" d="M86.1399 90H47.1316L45.1875 83H84.1958L86.1399 90Z" fill="#262626"/>
<path fill-rule="evenodd" clip-rule="evenodd" d="M164.238 162H125.229L123.285 155H162.293L164.238 162Z" fill="#262626"/>
<rect x="9" y="104" width="4.7619" height="47" fill="#F20D5E"/>
<rect x="35.668" y="104" width="4.7619" height="47" fill="#F20D5E"/>
<rect x="9.95312" y="152" width="5" height="29.5238" transform="rotate(-90 9.95312 152)" fill="#F20D5E"/>
<rect x="9.95312" y="108" width="5" height="29.5238" transform="rotate(-90 9.95312 108)" fill="#F20D5E"/>
<rect x="49" y="104" width="4.7619" height="47" fill="#F20D5E"/>
<rect x="75.668" y="104" width="4.7619" height="47" fill="#F20D5E"/>
<rect x="49.9531" y="152" width="5" height="29.5238" transform="rotate(-90 49.9531 152)" fill="#F20D5E"/>
<rect x="49.9531" y="108" width="5" height="29.5238" transform="rotate(-90 49.9531 108)" fill="#F20D5E"/>
<rect x="89" y="104" width="4.7619" height="47" fill="#F20D5E"/>
<rect x="115.668" y="104" width="4.7619" height="47" fill="#F20D5E"/>
<rect x="89.9531" y="152" width="5" height="29.5238" transform="rotate(-90 89.9531 152)" fill="#F20D5E"/>
<rect x="89.9531" y="108" width="5" height="29.5238" transform="rotate(-90 89.9531 108)" fill="#F20D5E"/>
<rect x="169" y="104" width="4.7619" height="47" fill="#F20D5E"/>
<rect x="195.668" y="104" width="4.7619" height="47" fill="#F20D5E"/>
<rect x="169.953" y="152" width="5" height="29.5238" transform="rotate(-90 169.953 152)" fill="#F20D5E"/>
<rect x="169.953" y="108" width="5" height="29.5238" transform="rotate(-90 169.953 108)" fill="#F20D5E"/>
<rect x="129" y="104" width="4.7619" height="47" fill="#F20D5E"/>
<rect x="155.668" y="104" width="4.7619" height="47" fill="#F20D5E"/>
<rect x="129.953" y="152" width="49" height="29.5238" transform="rotate(-90 129.953 152)" fill="#F20D5E"/>
<rect x="9" y="32" width="4.7619" height="47" fill="#F20D5E"/>
<rect x="35.668" y="32" width="4.7619" height="47" fill="#F20D5E"/>
<rect x="9.95312" y="80" width="5" height="29.5238" transform="rotate(-90 9.95312 80)" fill="#F20D5E"/>
<rect x="9.95312" y="36" width="5" height="29.5238" transform="rotate(-90 9.95312 36)" fill="#F20D5E"/>
<rect x="89" y="32" width="4.7619" height="47" fill="#F20D5E"/>
<rect x="115.668" y="32" width="4.7619" height="47" fill="#F20D5E"/>
<rect x="89.9531" y="80" width="5" height="29.5238" transform="rotate(-90 89.9531 80)" fill="#F20D5E"/>
<rect x="89.9531" y="36" width="5" height="29.5238" transform="rotate(-90 89.9531 36)" fill="#F20D5E"/>
<rect x="49" y="32" width="4.7619" height="47" fill="#F20D5E"/>
<rect x="75.668" y="32" width="4.7619" height="47" fill="#F20D5E"/>
<rect x="49.9531" y="80" width="49" height="29.5238" transform="rotate(-90 49.9531 80)" fill="#F20D5E"/>
<rect x="169" y="32" width="4.7619" height="47" fill="#F20D5E"/>
<rect x="195.668" y="32" width="4.7619" height="47" fill="#F20D5E"/>
<rect x="169.953" y="80" width="5" height="29.5238" transform="rotate(-90 169.953 80)" fill="#F20D5E"/>
<rect x="169.953" y="36" width="5" height="29.5238" transform="rotate(-90 169.953 36)" fill="#F20D5E"/>
<rect x="129" y="32" width="4.7619" height="47" fill="#F20D5E"/>
<rect x="155.668" y="32" width="4.7619" height="47" fill="#F20D5E"/>
<rect x="129.953" y="80" width="5" height="29.5238" transform="rotate(-90 129.953 80)" fill="#F20D5E"/>
<rect x="129.953" y="36" width="5" height="29.5238" transform="rotate(-90 129.953 36)" fill="#F20D5E"/>
</svg>
