<svg viewBox="0 0 220 193" fill="none" xmlns="http://www.w3.org/2000/svg">
<path fill-rule="evenodd" clip-rule="evenodd" d="M111 90H70.0413L68 83H108.959L111 90Z" fill="#262626"/>
<path fill-rule="evenodd" clip-rule="evenodd" d="M193 162H152.041L150 155H190.959L193 162Z" fill="#262626"/>
<rect x="30" y="104" width="5" height="47" fill="#F20D5E"/>
<rect x="58" y="104" width="5" height="47" fill="#F20D5E"/>
<rect x="31" y="152" width="5" height="31" transform="rotate(-90 31 152)" fill="#F20D5E"/>
<rect x="31" y="108" width="5" height="31" transform="rotate(-90 31 108)" fill="#F20D5E"/>
<rect x="72" y="104" width="5" height="47" fill="#F20D5E"/>
<rect x="100" y="104" width="5" height="47" fill="#F20D5E"/>
<rect x="73" y="152" width="5" height="31" transform="rotate(-90 73 152)" fill="#F20D5E"/>
<rect x="73" y="108" width="5" height="31" transform="rotate(-90 73 108)" fill="#F20D5E"/>
<rect x="114" y="104" width="5" height="47" fill="#F20D5E"/>
<rect x="142" y="104" width="5" height="47" fill="#F20D5E"/>
<rect x="115" y="152" width="5" height="31" transform="rotate(-90 115 152)" fill="#F20D5E"/>
<rect x="115" y="108" width="5" height="31" transform="rotate(-90 115 108)" fill="#F20D5E"/>
<rect x="156" y="104" width="5" height="47" fill="#F20D5E"/>
<rect x="184" y="104" width="5" height="47" fill="#F20D5E"/>
<rect x="157" y="152" width="49" height="31" transform="rotate(-90 157 152)" fill="#F20D5E"/>
<rect x="30" y="32" width="5" height="47" fill="#F20D5E"/>
<rect x="58" y="32" width="5" height="47" fill="#F20D5E"/>
<rect x="31" y="80" width="5" height="31" transform="rotate(-90 31 80)" fill="#F20D5E"/>
<rect x="31" y="36" width="5" height="31" transform="rotate(-90 31 36)" fill="#F20D5E"/>
<rect x="72" y="32" width="5" height="47" fill="#F20D5E"/>
<rect x="100" y="32" width="5" height="47" fill="#F20D5E"/>
<rect x="73" y="80" width="49" height="31" transform="rotate(-90 73 80)" fill="#F20D5E"/>
<rect x="114" y="32" width="5" height="47" fill="#F20D5E"/>
<rect x="142" y="32" width="5" height="47" fill="#F20D5E"/>
<rect x="115" y="80" width="5" height="31" transform="rotate(-90 115 80)" fill="#F20D5E"/>
<rect x="115" y="36" width="5" height="31" transform="rotate(-90 115 36)" fill="#F20D5E"/>
<rect x="156" y="32" width="5" height="47" fill="#F20D5E"/>
<rect x="184" y="32" width="5" height="47" fill="#F20D5E"/>
<rect x="157" y="80" width="5" height="31" transform="rotate(-90 157 80)" fill="#F20D5E"/>
<rect x="157" y="36" width="5" height="31" transform="rotate(-90 157 36)" fill="#F20D5E"/>
</svg>
