<svg viewBox="0 0 220 193" fill="none" xmlns="http://www.w3.org/2000/svg">
<g clip-path="url(#clip0_1784_36230)">
<path fill-rule="evenodd" clip-rule="evenodd" d="M156.679 158.502L161.999 153.171L148.12 139.262L142.801 144.593L156.679 158.502Z" fill="#262626"/>
<path fill-rule="evenodd" clip-rule="evenodd" d="M147.154 168L152.473 162.669L138.595 148.76L133.275 154.091L147.154 168Z" fill="#262626"/>
<path fill-rule="evenodd" clip-rule="evenodd" d="M79.4055 158.502L84.6765 153.171L70.7979 139.262L65.4785 144.593L79.4055 158.502Z" fill="#262626"/>
<path fill-rule="evenodd" clip-rule="evenodd" d="M69.8786 168L75.198 162.669L61.3193 148.76L56 154.091L69.8786 168Z" fill="#262626"/>
<path fill-rule="evenodd" clip-rule="evenodd" d="M152.473 144.593L147.154 139.262L133.275 153.171L138.595 158.502L152.473 144.593Z" fill="#262626"/>
<path fill-rule="evenodd" clip-rule="evenodd" d="M161.999 154.091L156.679 148.76L142.801 162.669L148.12 168L161.999 154.091Z" fill="#262626"/>
<path fill-rule="evenodd" clip-rule="evenodd" d="M75.198 144.593L69.8786 139.262L56 153.171L61.3193 158.502L75.198 144.593Z" fill="#262626"/>
<path fill-rule="evenodd" clip-rule="evenodd" d="M84.6765 154.091L79.4055 148.76L65.4785 162.669L70.7979 168L84.6765 154.091Z" fill="#262626"/>
<path d="M138.886 118.712C137 116.822 135.066 115.174 133.083 113.817C131.1 112.46 129.166 111.297 127.183 110.327C125.249 109.358 123.315 108.583 121.477 108.001C119.64 107.419 117.85 106.983 116.254 106.692C114.659 106.402 113.111 106.208 111.757 106.159C110.403 106.111 109.243 106.111 108.324 106.159L108.082 112.363C109.968 112.46 111.951 112.702 113.982 113.09C116.013 113.477 118.14 114.156 120.268 115.028C122.396 115.901 124.62 117.112 126.796 118.566C129.021 120.02 131.197 121.91 133.421 124.091C135.646 126.32 137.483 128.55 138.934 130.731C140.385 132.96 141.594 135.141 142.464 137.273C143.335 139.406 144.012 141.538 144.399 143.574C144.785 145.609 145.027 147.596 145.124 149.486L151.314 149.244C151.362 148.323 151.362 147.16 151.314 145.803C151.265 144.446 151.072 142.944 150.782 141.296C150.492 139.648 150.056 137.903 149.476 136.062C148.896 134.22 148.122 132.282 147.155 130.343C146.188 128.404 145.027 126.417 143.673 124.43C142.319 122.443 140.675 120.505 138.789 118.615L138.886 118.712Z" fill="#262626"/>
<path d="M138.886 38.6491C137 36.759 135.066 35.1112 133.083 33.7542C131.1 32.3972 129.166 31.2341 127.183 30.2648C125.249 29.2955 123.315 28.5201 121.477 27.9385C119.64 27.357 117.85 26.9208 116.254 26.63C114.61 26.3392 113.111 26.1454 111.757 26.0969C110.403 26.0484 109.243 26.0484 108.324 26.0969L108.082 32.3003C109.968 32.3972 111.951 32.6396 113.982 33.0273C116.013 33.415 118.14 34.0935 120.268 34.9658C122.396 35.8382 124.62 37.0498 126.796 38.5037C129.021 39.9576 131.197 41.8477 133.421 44.0286C135.646 46.2095 137.483 48.4873 138.934 50.6682C140.385 52.8976 141.594 55.0785 142.464 57.2109C143.335 59.3433 144.012 61.4757 144.399 63.5112C144.785 65.5467 145.027 67.5338 145.124 69.4239L151.314 69.1815C151.362 68.2607 151.362 67.0976 151.314 65.7406C151.265 64.3836 151.072 62.8812 150.782 61.2334C150.492 59.5856 150.056 57.8409 149.476 55.9993C148.896 54.1576 148.122 52.2191 147.155 50.2805C146.188 48.3419 145.027 46.3549 143.673 44.3679C142.319 42.3809 140.675 40.4423 138.789 38.5522L138.886 38.6491Z" fill="#F20D5E"/>
<path d="M78.68 118.664C76.7941 120.554 75.1499 122.492 73.7959 124.479C72.4419 126.466 71.2813 128.405 70.3142 130.392C69.347 132.33 68.5733 134.269 67.993 136.111C67.4127 137.952 66.9775 139.745 66.6873 141.345C66.3972 142.993 66.2038 144.495 66.1554 145.852C66.1071 147.209 66.1071 148.372 66.1554 149.293L72.3452 149.535C72.4419 147.645 72.6837 145.658 73.0706 143.623C73.4574 141.587 74.1344 139.455 75.0049 137.322C75.8753 135.19 77.0842 132.96 78.535 130.78C79.9857 128.55 81.8717 126.369 84.0477 124.14C86.2722 121.911 88.4967 120.069 90.6727 118.615C92.8972 117.161 95.0733 115.95 97.201 115.077C99.3288 114.205 101.457 113.526 103.488 113.139C105.519 112.751 107.501 112.509 109.387 112.412L109.145 106.208C108.227 106.16 107.066 106.16 105.712 106.208C104.358 106.257 102.859 106.451 101.215 106.741C99.5706 107.032 97.8297 107.468 95.9921 108.05C94.1545 108.631 92.2202 109.407 90.2859 110.376C88.3516 111.345 86.3689 112.509 84.3862 113.866C82.4036 115.223 80.4693 116.87 78.5833 118.76L78.68 118.664Z" fill="#262626"/>
<path d="M78.68 38.601C76.7941 40.4911 75.1499 42.4297 73.7959 44.4167C72.4419 46.4037 71.2813 48.3423 70.3142 50.3293C69.347 52.2679 68.5733 54.2065 67.993 56.0481C67.4127 57.8897 66.9775 59.6345 66.6873 61.2822C66.3972 62.93 66.2038 64.4324 66.1554 65.7894C66.1071 67.1464 66.1071 68.3095 66.1554 69.2304L72.3452 69.4727C72.4419 67.5826 72.6837 65.5956 73.0706 63.5601C73.4574 61.5246 74.1344 59.3921 75.0049 57.2597C75.8753 55.1273 77.0842 52.8979 78.535 50.7171C79.9857 48.4877 81.8717 46.3068 84.0477 44.0775C86.2722 41.8481 88.4967 40.0065 90.6727 38.5525C92.8972 37.0986 95.0733 35.887 97.201 35.0147C99.3288 34.1423 101.457 33.4638 103.488 33.0761C105.519 32.6884 107.501 32.4461 109.387 32.3491L109.145 26.1457C108.227 26.0973 107.066 26.0973 105.712 26.1457C104.358 26.1942 102.859 26.388 101.215 26.6788C99.5706 26.9696 97.8297 27.4058 95.9921 27.9874C94.1545 28.5689 92.2202 29.3444 90.2859 30.3136C88.3516 31.2829 86.3689 32.4461 84.3862 33.8031C82.4036 35.1601 80.4693 36.8078 78.5833 38.6979L78.68 38.601Z" fill="#F20D5E"/>
<path d="M138.885 99.3756C140.771 97.4855 142.415 95.5469 143.769 93.5599C145.123 91.5728 146.284 89.6343 147.251 87.6473C148.218 85.7087 148.992 83.7701 149.572 81.9285C150.152 80.0868 150.587 78.2937 150.878 76.6943C151.168 75.0466 151.361 73.5442 151.409 72.1872C151.458 70.8302 151.458 69.667 151.409 68.7462L145.22 68.5039C145.123 70.394 144.881 72.381 144.494 74.4165C144.107 76.452 143.43 78.5845 142.56 80.7169C141.69 82.8493 140.481 85.0787 139.03 87.2595C137.579 89.4889 135.693 91.6698 133.517 93.8991C131.293 96.1285 129.068 97.9701 126.892 99.424C124.668 100.878 122.492 102.09 120.364 102.962C118.236 103.834 116.108 104.513 114.077 104.9C112.046 105.288 110.064 105.531 108.178 105.627L108.42 111.831C109.338 111.879 110.499 111.879 111.853 111.831C113.207 111.782 114.706 111.589 116.35 111.298C117.994 111.007 119.735 110.571 121.573 109.989C123.41 109.408 125.345 108.632 127.279 107.663C129.213 106.694 131.196 105.531 133.179 104.174C135.161 102.817 137.096 101.169 138.982 99.2786L138.885 99.3756Z" fill="#F20D5E"/>
<path d="M78.679 99.3255C80.565 101.216 82.4993 102.863 84.482 104.22C86.4646 105.577 88.3989 106.741 90.3816 107.71C92.3159 108.679 94.2502 109.455 96.0878 110.036C97.9254 110.618 99.7146 111.054 101.31 111.345C102.955 111.635 104.454 111.829 105.808 111.878C107.162 111.926 108.322 111.926 109.241 111.878L109.483 105.674C107.597 105.577 105.614 105.335 103.583 104.947C101.552 104.56 99.4245 103.881 97.2967 103.009C95.169 102.136 92.9445 100.925 90.7684 99.4709C88.544 98.017 86.3679 96.1269 84.1434 93.946C81.919 91.7651 80.0814 89.4873 78.6307 87.3064C77.1799 85.1255 75.971 82.8962 75.1006 80.7638C74.2301 78.6313 73.5531 76.4989 73.1663 74.4634C72.7794 72.4279 72.5376 70.4409 72.4409 68.5508L66.2511 68.7931C66.2028 69.7139 66.2028 70.8771 66.2511 72.2341C66.2995 73.5911 66.4929 75.0934 66.783 76.7412C67.0732 78.389 67.5084 80.1337 68.0887 81.9754C68.669 83.817 69.4427 85.7556 70.4099 87.6941C71.377 89.6327 72.5376 91.6197 73.8916 93.6068C75.2456 95.5938 76.8898 97.5324 78.7757 99.4225L78.679 99.3255Z" fill="#F20D5E"/>
</g>
<defs>
<clipPath id="clip0_1784_36230">
<rect width="106" height="142" fill="white" transform="translate(56 26)"/>
</clipPath>
</defs>
</svg>
