<?xml version="1.0" encoding="UTF-8" standalone="no"?>
<svg   viewBox="0 0 220 195"   fill="none"   version="1.1"   id="svg41"   xmlns="http://www.w3.org/2000/svg"   xmlns:svg="http://www.w3.org/2000/svg">
  <g
     id="g9062">
    <path
       id="path26"
       clip-path="url(#clipPath1208)"
       style="fill:currentColor;fill-opacity:1"
       d="M 37 42 L 40.761719 50.972656 L 85.757812 50.972656 A 52.500534 52.500534 0 0 1 110 45 A 52.500534 52.500534 0 0 1 134.30469 50.972656 L 183 50.972656 L 179.23828 42 L 37 42 z M 37 76.039062 L 40.761719 85.011719 L 59.171875 85.011719 A 52.500534 52.500534 0 0 1 62.238281 76.039062 L 37 76.039062 z M 157.89844 76.039062 A 52.500534 52.500534 0 0 1 160.97461 85.011719 L 183 85.011719 L 179.23828 76.039062 L 157.89844 76.039062 z M 37 110.07617 L 40.761719 119.04883 L 62.275391 119.04883 A 52.500534 52.500534 0 0 1 59.193359 110.07617 L 37 110.07617 z M 160.80664 110.07617 A 52.500534 52.500534 0 0 1 157.72461 119.04883 L 183 119.04883 L 179.23828 110.07617 L 160.80664 110.07617 z M 37 144.11523 L 40.761719 153.08789 L 183 153.08789 L 179.23828 144.11523 L 134.09961 144.11523 A 52.500534 52.500534 0 0 1 110 150 A 52.500534 52.500534 0 0 1 85.900391 144.11523 L 37 144.11523 z " />
    <path
       id="path5092-5-4"
       d="m 87.842614,63.345289 11.601315,-5.165133 3.701901,8.314482 c 4.03774,-0.895876 8.13353,-0.973817 12.07542,-0.314342 l 3.26263,-8.499803 11.85603,4.551135 -3.2627,8.499803 c 3.37145,2.147319 6.36324,4.944385 8.76367,8.312809 l 8.31448,-3.70196 5.16546,11.601614 -8.31451,3.701767 c 0.89714,4.037944 0.97455,8.133346 0.31331,12.075389 l 8.49947,3.26284 -4.551,11.8558 -8.49954,-3.26253 c -2.1463,3.37158 -4.94446,6.36344 -8.31285,8.7639 l 3.70175,8.31455 -11.60139,5.16513 -3.70182,-8.31448 c -4.03781,0.89833 -8.1334,0.97382 -12.0753,0.3137 l -3.26269,8.49955 -11.855908,-4.55114 3.262652,-8.49935 c -3.371673,-2.14726 -6.36367,-4.94458 -8.764072,-8.313 l -8.314515,3.7017 -5.165308,-11.60136 8.314586,-3.70202 c -0.897138,-4.0375 -0.974558,-8.133165 -0.313312,-12.075196 l -8.499461,-3.262524 4.550994,-11.855857 8.499538,3.262589 c 2.146308,-3.371643 4.944469,-6.363692 8.313,-8.764159 z M 102.2522,80.098703 c -9.611116,4.278984 -13.933358,15.539071 -9.654326,25.150027 4.27903,9.61115 15.539236,13.93348 25.150136,9.6545 9.6111,-4.27924 13.93337,-15.539334 9.65427,-25.150225 -4.27906,-9.611209 -15.53917,-13.93348 -25.15008,-9.654302 z"
       style="fill:currentColor;fill-opacity:1;stroke-width:1.37417;stroke-linejoin:round" />
  </g>
</svg>
