<?xml version="1.0" encoding="UTF-8" standalone="no"?>
<svg viewBox="0 0 220 195" fill="none" xmlns="http://www.w3.org/2000/svg">
  <path
     id="path1182"
     style="clip-rule:evenodd;fill:#f20d5e;fill-rule:nonzero;stroke-width:0.272087;stroke-linejoin:round;stroke-miterlimit:2"
     d="M 51.517578 25.898438 L 51.517578 55.341797 L 51.529297 55.349609 C 51.53398 55.704485 51.535519 56.051547 51.552734 56.447266 C 51.603524 57.614714 51.755806 58.904261 52.009766 60.318359 C 52.263534 61.732266 52.640208 63.241298 53.140625 64.84375 C 53.64085 66.446394 54.304333 68.089189 55.130859 69.771484 C 55.957578 71.453589 56.964915 73.150173 58.154297 74.861328 C 59.343486 76.572675 60.750615 78.240848 62.375 79.865234 C 64.013815 81.504049 65.686589 82.913824 67.390625 84.095703 C 69.094469 85.277774 70.786647 86.282656 72.46875 87.109375 C 74.151046 87.935901 75.793839 88.599384 77.396484 89.099609 C 78.998937 89.600027 80.507968 89.976701 81.921875 90.230469 C 83.335781 90.484237 84.62552 90.636708 85.792969 90.6875 C 86.189391 90.704746 86.537144 90.706269 86.892578 90.710938 L 86.900391 90.722656 L 128.36133 90.722656 L 128.36133 137.60938 C 128.0125 139.10597 127.52392 140.63158 126.87891 142.18945 C 126.1101 144.04568 125.09129 145.92698 123.82227 147.83398 C 122.55343 149.74119 120.96316 151.65209 119.04883 153.56641 C 117.13451 155.48073 115.22361 157.07296 113.31641 158.3418 C 111.40939 159.61084 109.52809 160.62963 107.67188 161.39844 C 106.11603 162.04261 104.59238 162.53015 103.09766 162.87891 L 83.003906 162.87891 C 81.508977 162.53014 79.98576 162.04271 78.429688 161.39844 C 76.573466 160.62963 74.692168 159.61084 72.785156 158.3418 C 70.877951 157.07296 68.967057 155.48073 67.052734 153.56641 C 65.13841 151.65209 63.546184 149.74119 62.277344 147.83398 C 61.008311 145.92698 59.989511 144.04568 59.220703 142.18945 C 58.452088 140.33304 57.892964 138.51946 57.544922 136.75 C 57.19688 134.98055 56.986592 133.27729 56.914062 131.63867 L 51.5625 131.85547 C 51.50459 132.66756 51.501944 133.65872 51.552734 134.82617 C 51.603526 135.99362 51.755997 137.28336 52.009766 138.69727 C 52.263533 140.11116 52.640208 141.62021 53.140625 143.22266 C 53.64085 144.8253 54.304333 146.46809 55.130859 148.15039 C 55.957579 149.83249 56.96246 151.52467 58.144531 153.22852 C 59.32641 154.93254 60.736186 156.60533 62.375 158.24414 C 63.999386 159.86853 65.667559 161.2737 67.378906 162.46289 C 69.090062 163.65227 70.786646 164.66156 72.46875 165.48828 C 74.151045 166.31481 75.79384 166.97829 77.396484 167.47852 C 78.998937 167.97893 80.507968 168.35561 81.921875 168.60938 C 83.335974 168.86333 84.62552 169.01561 85.792969 169.06641 C 86.341445 169.09023 86.842479 169.09981 87.3125 169.09961 L 87.314453 169.10156 L 98.783203 169.10156 L 98.785156 169.09961 C 99.25568 169.09984 99.757459 169.09026 100.30664 169.06641 C 101.47409 169.01561 102.76559 168.86333 104.17969 168.60938 C 105.5936 168.35561 107.10262 167.97893 108.70508 167.47852 C 110.30773 166.97829 111.94856 166.31481 113.63086 165.48828 C 115.31296 164.66156 117.0115 163.65227 118.72266 162.46289 C 120.434 161.2737 122.10023 159.86853 123.72461 158.24414 C 125.36343 156.60533 126.77515 154.93254 127.95703 153.22852 C 129.1391 151.52467 130.14203 149.83249 130.96875 148.15039 C 131.79528 146.46809 132.45876 144.8253 132.95898 143.22266 C 133.4594 141.62021 133.83803 140.11116 134.0918 138.69727 C 134.33508 137.34176 134.48232 136.10362 134.53906 134.97461 L 134.58398 134.95312 L 134.58398 92.636719 C 135.58474 93.216037 136.67445 93.777339 137.85938 94.322266 C 139.3846 95.023959 141.04867 95.631839 142.85156 96.144531 C 144.65444 96.656953 146.58559 97.045528 148.64258 97.308594 C 150.69958 97.57193 152.88468 97.643134 155.19922 97.523438 C 157.49339 97.404795 159.65441 97.107467 161.68359 96.632812 C 163.71279 96.158429 165.59749 95.574569 167.33789 94.878906 C 169.07828 94.182972 170.67248 93.406065 172.11719 92.550781 C 173.56192 91.695769 174.85104 90.829369 175.98633 89.949219 C 177.12188 89.069056 178.09847 88.211937 178.91797 87.378906 C 179.73746 86.545874 180.39763 85.807925 180.89844 85.166016 L 177.07031 81.421875 C 175.91914 82.590281 174.62112 83.713845 173.17773 84.794922 C 171.73435 85.875998 170.10695 86.848863 168.29297 87.712891 C 166.47898 88.576646 164.46171 89.290917 162.24219 89.857422 C 160.0227 90.424199 157.56107 90.778149 154.85742 90.917969 C 152.15377 91.057789 149.66847 90.959803 147.40234 90.625 C 145.13625 90.290469 143.05747 89.787262 141.16406 89.115234 C 139.27063 88.442936 137.54916 87.643215 136.00195 86.716797 C 135.51323 86.424163 135.04461 86.124621 134.58398 85.820312 L 134.58398 61.28125 L 134.57227 61.273438 C 134.5676 60.918003 134.56608 60.570251 134.54883 60.173828 C 134.49804 59.006379 134.34557 57.71664 134.0918 56.302734 C 133.83803 54.888828 133.4594 53.379796 132.95898 51.777344 C 132.45876 50.174698 131.79528 48.531906 130.96875 46.849609 C 130.14203 45.167506 129.1391 43.475329 127.95703 41.771484 C 126.77515 40.067448 125.36343 38.394675 123.72461 36.755859 C 122.10023 35.131474 120.434 33.726298 118.72266 32.537109 C 117.0115 31.347728 115.31296 30.338437 113.63086 29.511719 C 111.94856 28.685193 110.30773 28.02171 108.70508 27.521484 C 107.10262 27.021067 105.5936 26.644394 104.17969 26.390625 C 102.76559 26.136665 101.47409 25.984384 100.30664 25.933594 C 99.910444 25.916357 99.56424 25.91483 99.208984 25.910156 L 99.201172 25.898438 L 98.689453 25.898438 L 51.517578 25.898438 z M 57.740234 32.121094 L 103.0918 32.121094 C 104.58839 32.469922 106.114 32.95655 107.67188 33.601562 C 109.52809 34.37037 111.40939 35.389169 113.31641 36.658203 C 115.22361 37.927044 117.13451 39.519271 119.04883 41.433594 C 120.96316 43.347918 122.55343 45.258811 123.82227 47.166016 C 125.09129 49.073029 126.1101 50.954327 126.87891 52.810547 C 127.52392 54.368423 128.0125 55.894034 128.36133 57.390625 L 128.36133 84.501953 L 83.009766 84.501953 C 81.513175 84.153124 79.987564 83.664543 78.429688 83.019531 C 76.573467 82.250723 74.692169 81.231923 72.785156 79.962891 C 70.877951 78.69405 68.967058 77.101824 67.052734 75.1875 C 65.138411 73.273177 63.546184 71.362283 62.277344 69.455078 C 61.00831 67.548066 59.98951 65.666768 59.220703 63.810547 C 58.576438 62.254474 58.089002 60.731257 57.740234 59.236328 L 57.740234 32.121094 z " />
  <rect
     x="116.49393"
     y="57.032734"
     width="6.491396"
     height="16.951296"
     style="clip-rule:evenodd;fill:#1a1a1a;fill-rule:evenodd;stroke-width:0.126012;stroke-linejoin:round;stroke-miterlimit:2"
     id="rect1242" />
</svg>
