<svg
   viewBox="0 0 220 195"
   fill="none"
   xmlns="http://www.w3.org/2000/svg"
   xmlns:svg="http://www.w3.org/2000/svg">
  <path
     fill-rule="evenodd"
     clip-rule="evenodd"
     d="M84 56H97V23L84 26.5L84 56Z"
     fill="currentColor"
     id="path2" />
  <path
     fill-rule="evenodd"
     clip-rule="evenodd"
     d="M121 56H134V23L121 26.5V56Z"
     fill="currentColor"
     id="path4" />
  <path
     fill-rule="evenodd"
     clip-rule="evenodd"
     d="M39.9998 159H176.802L181 171H40L39.9998 159Z"
     fill="currentColor"
     id="path6" />
  <path
     fill-rule="evenodd"
     clip-rule="evenodd"
     d="M181 47V171H169V50.5848L181 47Z"
     fill="currentColor"
     id="path8" />
  <path
     fill-rule="evenodd"
     clip-rule="evenodd"
     d="M40 171V50.5848L52 47V167.415L40 171Z"
     fill="currentColor"
     id="path10" />
  <path
     fill-rule="evenodd"
     clip-rule="evenodd"
     d="M181 59H40V47H181V59Z"
     fill="currentColor"
     id="path12" />
  <path
     fill-rule="evenodd"
     clip-rule="evenodd"
     d="M178 83H47.8739L44 71H174.126L178 83Z"
     fill="currentColor"
     id="path14" />
  <g
     id="g864"
     transform="matrix(0.24973523,0.06414764,-0.06414764,0.24973523,126.34262,85.209983)"
     style="fill-opacity:1">
    <g
       id="g862"
       style="fill-opacity:1">
      <path
         fill="#000000"
         d="m 185.9,104.3 c -11.1,-6.1 -22.3,-12 -33.5,-17.9 -8.7,-4.6 -17.7,-4.6 -26.5,-0.2 -5.3,2.6 -9.3,6.6 -12.1,12 28.1,14.9 55.9,29.8 84,44.7 0.5,-1.2 1.1,-2.2 1.4,-3.3 5.1,-13.7 -0.3,-28.2 -13.3,-35.3 z"
         id="path856"
         style="fill-opacity:1" />
      <path
         fill="#000000"
         d="m 218.5,16 c -2.2,-3.1 -5.3,-4.9 -9,-5.7 -4,-0.9 -6.3,0 -8.4,3.4 -12.8,20.4 -25.5,40.7 -38.3,61.1 -0.4,0.7 -0.8,1.3 -1.2,2 0.2,0.3 0.4,0.5 0.6,0.6 8.7,4.6 17.4,9.3 26.3,14 0.3,-0.5 0.5,-0.7 0.6,-1 10,-22.6 20,-45.2 30.1,-67.8 1,-2.4 0.7,-4.5 -0.7,-6.6 z"
         id="path858"
         style="fill-opacity:1" />
      <path
         fill="#000000"
         d="m 189.2,151.5 c 1.7,-4.4 -0.4,-9.3 -4.8,-11 -4.3,-1.7 -9.3,0.4 -11,4.8 -0.9,2.3 -19.4,50.1 -4.4,83.7 -7.1,-0.1 -18.4,-1.7 -34.2,-7.7 -2.9,-9.2 -5,-23.4 1.4,-40.2 0,0 -15.3,17.5 -17.9,33.1 -3.3,-1.6 -6.7,-3.3 -10.4,-5.3 -3.6,-2 -7,-3.9 -10.1,-5.7 C 109.4,192.5 115.5,170 115.5,170 105.1,184.6 92,190.8 82.8,193.4 69,183.5 61.5,175 57.5,169.2 c 36.3,-6 66,-47.9 67.4,-49.9 2.7,-3.8 1.7,-9.1 -2.1,-11.8 -3.8,-2.7 -9.1,-1.7 -11.8,2.1 -0.3,0.5 -33.2,46.6 -65.4,43.2 -2.5,-0.3 -5.1,0.6 -6.9,2.4 -1.8,1.8 -2.7,4.3 -2.5,6.9 0.3,3 4.7,30.2 63.8,61.9 33.3,17.8 55.8,22 69.5,22 10.7,0 16.1,-2.5 17.3,-3.1 2.3,-1.2 3.9,-3.3 4.4,-5.9 0.5,-2.5 -0.2,-5.1 -1.8,-7.1 -20.8,-25 -0.3,-77.8 -0.2,-78.4 z"
         id="path860"
         style="fill-opacity:1" />
    </g>
  </g>
  <circle
     style="fill-opacity:1;stroke-width:0"
     id="path2308"
     cx="154.33083"
     cy="85.441483"
     r="2.7886653"
     transform="rotate(14.40571)" />
  <circle
     style="fill-opacity:1;stroke-width:1.9;stroke-dasharray:none;stroke-opacity:1"
     id="path2310"
     cx="149.41081"
     cy="75.695213"
     r="3.3050847"
     transform="rotate(14.40571)" />
  <circle
     style="fill-opacity:1;stroke-width:0"
     id="path2312"
     cx="159.57025"
     cy="75.582375"
     r="2.1689618"
     transform="rotate(14.40571)" />
</svg>
