<svg viewBox="0 0 220 195" fill="none" xmlns="http://www.w3.org/2000/svg">
<path fill-rule="evenodd" clip-rule="evenodd" d="M34 176.766L34 72.2656L46 67.7656L46 176.766L34 176.766Z" fill="#F20D5E"/>
<path fill-rule="evenodd" clip-rule="evenodd" d="M178 176.766L178 83.4179L190 78.7656L190 176.766L178 176.766Z" fill="#F20D5E"/>
<path fill-rule="evenodd" clip-rule="evenodd" d="M52 176.766L52 126.282L64 123.766L64 176.766L52 176.766Z" fill="#F20D5E"/>
<path fill-rule="evenodd" clip-rule="evenodd" d="M160 176.766L160 138.766L172 134.766L172 176.766L160 176.766Z" fill="#F20D5E"/>
<path fill-rule="evenodd" clip-rule="evenodd" d="M70 176.766L70 87.228L82 82.7656L82 176.766L70 176.766Z" fill="#F20D5E"/>
<path fill-rule="evenodd" clip-rule="evenodd" d="M142 176.766L142 104.266L154 99.7656L154 176.766L142 176.766Z" fill="#F20D5E"/>
<path fill-rule="evenodd" clip-rule="evenodd" d="M88 176.766L88 48.2656L100 44.7656L99.6667 176.766L88 176.766Z" fill="#262626"/>
<path fill-rule="evenodd" clip-rule="evenodd" d="M106 176.766L106 116.266L118 111.766L118 176.766L106 176.766Z" fill="#F20D5E"/>
<path fill-rule="evenodd" clip-rule="evenodd" d="M124 176.766L124 97.2656L136 92.7656L136 176.766L124 176.766Z" fill="#F20D5E"/>
<path d="M16 44.2695H201" stroke="#262626" stroke-miterlimit="10"/>
<path d="M16 77.0312H201" stroke="#262626" stroke-miterlimit="10"/>
<path d="M16 110.486H201" stroke="#262626" stroke-miterlimit="10"/>
<path d="M16 143.148H201" stroke="#262626" stroke-miterlimit="10"/>
<path d="M16 176.703H201" stroke="#262626" stroke-width="2" stroke-miterlimit="10"/>
<path d="M18.6406 180L18.6406 18" stroke="#262626" stroke-width="2" stroke-miterlimit="10"/>
</svg>
