<?xml version="1.0" encoding="UTF-8" standalone="no"?>
<!DOCTYPE svg PUBLIC "-//W3C//DTD SVG 1.1//EN" "http://www.w3.org/Graphics/SVG/1.1/DTD/svg11.dtd">
<svg width="100%" height="100%" viewBox="0 0 603 503" version="1.1" xmlns="http://www.w3.org/2000/svg" xmlns:xlink="http://www.w3.org/1999/xlink" xml:space="preserve" xmlns:serif="http://www.serif.com/" style="fill-rule:evenodd;clip-rule:evenodd;stroke-linejoin:round;stroke-miterlimit:2;">
    <g transform="matrix(1,0,0,1,-60888.5,-1503.84)">
        <g transform="matrix(1,0,0,1,59661.8,1239.86)">
            <g transform="matrix(1,0,0,1,-59661.8,-1239.86)">
                <path d="M61085.6,1709.06L61189.9,1662.08C61189.9,1662.08 61491.2,1797.88 61491.2,1797.88L61491.2,1870.03L61189.9,2005.84C61189.9,2005.84 60888.5,1870.03 60888.5,1870.03L60888.5,1797.88L60961.1,1765.17L61039.8,1800.73L60967.8,1833.25L60967.8,1834.66L61189.9,1935.1L61412,1834.66L61412,1833.25L61189.9,1733.05L61164.3,1744.6L61085.6,1709.06ZM61294,1800.66L61189.9,1847.6C61189.9,1847.6 60888.5,1711.79 60888.5,1711.79L60888.5,1639.64L61189.9,1503.84C61189.9,1503.84 61491.2,1639.64 61491.2,1639.64L61491.2,1711.79L61418.5,1744.55L61339.9,1709.03L61412,1676.43L61412,1675.01L61189.9,1574.81L60967.8,1675.01L60967.8,1676.43L61189.9,1776.86L61215.6,1765.23L61294,1800.66Z" style="fill:currentColor;fill-rule:nonzero;"/>
            </g>
        </g>
    </g>
</svg>
