<?xml version="1.0" encoding="UTF-8" standalone="no"?>
<svg
   width="100%"
   height="100%"
   viewBox="0 0 500 422"
   version="1.1"
   xml:space="preserve"
   style="fill-rule:evenodd;clip-rule:evenodd;stroke-linejoin:round;stroke-miterlimit:2;"
   id="svg40"
   xmlns="http://www.w3.org/2000/svg"
   xmlns:svg="http://www.w3.org/2000/svg"><defs
   id="defs44" />

<path
   id="path744"
   style="stroke-width:3.13736;stroke-linecap:round;stroke-linejoin:round;stop-color:#000000"
   d="m 243.72955,2.0133623 c -67.00249,0 -121.78915,48.1594557 -121.78915,107.0546877 v 75.94825 c 2.81403,-0.2194 5.658,-0.34961 8.53908,-0.34961 h 45.76176 v -75.59864 c 0,-33.277951 29.62948,-59.32422 67.48832,-59.32422 h 12.54088 c 37.85884,0 67.48832,26.046269 67.48832,59.32422 v 75.59864 h 52.81433 c 0.49848,0 0.98991,0.0265 1.48651,0.0332 V 109.06805 C 378.0596,50.172818 323.27293,2.0133623 256.27044,2.0133623 Z M 109.975,189.64231 C 97.120685,212.68734 90.312545,238.53902 90.170465,264.84348 90.169945,351.94223 161.72821,422.55023 250,422.55051 c 88.27177,-2.9e-4 159.83006,-70.60828 159.82954,-157.70703 -0.016,-26.26954 -6.68231,-52.11912 -19.39349,-75.20117 h -79.29594 c -8.37673,22.6482 -33.09377,38.11678 -61.13789,38.26172 -28.04494,-0.14413 -52.76313,-15.61286 -61.14011,-38.26172 z m 139.8739,81.38672 c 18.07148,-8.2e-4 32.7203,12.87688 32.72093,28.76172 -0.0102,9.66457 -5.54041,18.67842 -14.72287,23.99414 v 45.93554 h -35.99612 v -45.93554 c -9.18248,-5.31571 -14.71292,-14.32956 -14.72287,-23.99414 6.3e-4,-15.88387 14.65056,-28.76116 32.72093,-28.76172 z" /></svg>
