<?xml version="1.0" encoding="UTF-8" standalone="no"?>
<svg
   width="100%"
   height="100%"
   viewBox="0 0 500 422"
   version="1.1"
   xml:space="preserve"
   style="fill-rule:evenodd;clip-rule:evenodd;stroke-linejoin:round;stroke-miterlimit:2;"
   id="svg40"
   xmlns="http://www.w3.org/2000/svg"
   xmlns:svg="http://www.w3.org/2000/svg"><defs
   id="defs44" />

<path
   id="path744"
   style="stroke-width:2.94143;stroke-linecap:round;stroke-linejoin:round;stop-color:#000000"
   d="M 240.03906 18.121094 C 181.14384 18.121094 132.98633 66.28055 132.98633 125.17578 L 132.98633 170.69141 C 135.45987 170.47201 137.95972 170.3418 140.49219 170.3418 L 180.7168 170.3418 L 180.7168 125.17578 C 180.7168 91.897834 206.76112 65.851563 240.03906 65.851562 L 251.0625 65.851562 C 284.34044 65.851562 310.38477 91.897834 310.38477 125.17578 L 310.38477 170.3418 L 356.80859 170.3418 C 357.24675 170.3418 357.67872 170.3683 358.11523 170.375 L 358.11523 125.17578 C 358.11523 66.28055 309.95772 18.121094 251.0625 18.121094 L 240.03906 18.121094 z M 122.46875 175.91797 C 111.1698 198.963 105.18544 224.81468 105.06055 251.11914 C 105.06009 338.21789 167.95985 408.82589 245.55078 408.82617 C 323.14171 408.82588 386.04148 338.21789 386.04102 251.11914 C 386.02692 224.8496 380.16727 199.00002 368.99414 175.91797 L 299.29297 175.91797 C 291.92982 198.56617 270.20353 214.03475 245.55273 214.17969 C 220.90122 214.03556 199.17392 198.56683 191.81055 175.91797 L 122.46875 175.91797 z M 245.41797 257.30469 C 261.30281 257.30387 274.17913 270.18157 274.17969 286.06641 C 274.17069 295.73098 269.30966 304.74483 261.23828 310.06055 L 261.23828 355.99609 L 229.59766 355.99609 L 229.59766 310.06055 C 221.52626 304.74484 216.665 295.73099 216.65625 286.06641 C 216.65681 270.18254 229.5341 257.30525 245.41797 257.30469 z " /></svg>
