<svg
   viewBox="0 0 115 115"
   fill="none"
   xmlns="http://www.w3.org/2000/svg"
   xmlns:svg="http://www.w3.org/2000/svg">
  <path
     d="m 53.529412,35.000002 c 0,10.233555 -8.295857,18.529412 -18.529412,18.529412 -10.233555,0 -18.529412,-8.295857 -18.529412,-18.529412 0,-10.233453 8.295857,-18.529412 18.529412,-18.529412 10.233555,0 18.529412,8.295959 18.529412,18.529412 z"
     fill="#262626"
     stroke="#262626"
     stroke-width="2.94118"
     stroke-miterlimit="1.5"
     stroke-linecap="round"
     stroke-linejoin="round"
     id="path4" />
  <path
     d="m 98.529414,35.000002 c 0,10.233555 -8.296675,18.529412 -18.529924,18.529412 -10.233248,0 -18.5289,-8.295857 -18.5289,-18.529412 0,-10.233453 8.295652,-18.529412 18.5289,-18.529412 10.233249,0 18.529924,8.295959 18.529924,18.529412 z"
     fill="#f20d5e"
     stroke="#f20d5e"
     stroke-width="2.94118"
     stroke-miterlimit="1.5"
     stroke-linecap="round"
     stroke-linejoin="round"
     id="path8" />
  <path
     d="m 53.529414,80.000002 c 0,10.233555 -8.295857,18.529412 -18.529412,18.529412 -10.233555,0 -18.529412,-8.295857 -18.529412,-18.529412 0,-10.233453 8.295857,-18.529412 18.529412,-18.529412 10.233555,0 18.529412,8.295959 18.529412,18.529412 z"
     fill="#262626"
     stroke="#262626"
     stroke-width="2.94118"
     stroke-miterlimit="1.5"
     stroke-linecap="round"
     stroke-linejoin="round"
     id="path4-7" />
  <path
     d="m 98.529416,80.000002 c 0,10.233555 -8.296675,18.529412 -18.529924,18.529412 -10.233248,0 -18.5289,-8.295857 -18.5289,-18.529412 0,-10.233453 8.295652,-18.529412 18.5289,-18.529412 10.233249,0 18.529924,8.295959 18.529924,18.529412 z"
     fill="#f20d5e"
     stroke="#f20d5e"
     stroke-width="2.94118"
     stroke-miterlimit="1.5"
     stroke-linecap="round"
     stroke-linejoin="round"
     id="path8-5"
     style="fill:#262626;fill-opacity:1;stroke:#262626;stroke-width:2.941;stroke-dasharray:none;stroke-opacity:1" />
</svg>
