<?xml version="1.0" encoding="UTF-8" standalone="no"?>
<!DOCTYPE svg PUBLIC "-//W3C//DTD SVG 1.1//EN" "http://www.w3.org/Graphics/SVG/1.1/DTD/svg11.dtd">
<svg width="100%" height="100%" viewBox="0 0 411 413" version="1.1" xmlns="http://www.w3.org/2000/svg" xmlns:xlink="http://www.w3.org/1999/xlink" xml:space="preserve" xmlns:serif="http://www.serif.com/" style="fill-rule:evenodd;clip-rule:evenodd;stroke-linejoin:round;stroke-miterlimit:2;">
    <g transform="matrix(1,0,0,1,-9902.89,-1544.67)">
        <g transform="matrix(1,0,0,1,8581.51,1230.48)">
            <g id="Mission" transform="matrix(1,0,0,1,-2053.33,0)">
                <g transform="matrix(1,0,0,1,2929.33,-236.042)">
                    <path d="M445.389,913.119L843.976,913.119L855.83,962.497L457.244,962.497L445.389,913.119Z" />
                </g>
                <g transform="matrix(-4.59979e-17,2.15921,-2.15921,-4.59979e-17,4588.94,-64.2364)">
                    <path d="M250.068,427.749L346.403,384.33L346.403,407.021L275.395,439.056L275.395,439.508L314.975,457.405L286.955,467.414L250.068,450.815L250.068,427.749Z" style="fill-rule:nonzero;"/>
                </g>
                <g transform="matrix(1,0,0,1,4119.61,257.962)">
                    <path d="M-620.689,56.23L-713.462,443.804L-662.681,443.804C-662.681,443.804 -569.908,56.23 -569.908,56.23L-620.689,56.23Z" />
                </g>
                <g transform="matrix(-0.994162,0.107896,0.107896,0.994162,2924.08,328.657)">
                    <path d="M-620.689,56.23L-678.404,297.344L-642.286,358.598L-569.908,56.23L-620.689,56.23Z" />
                </g>
            </g>
        </g>
    </g>
</svg>
