<?xml version="1.0" encoding="UTF-8" standalone="no"?>
<!DOCTYPE svg PUBLIC "-//W3C//DTD SVG 1.1//EN" "http://www.w3.org/Graphics/SVG/1.1/DTD/svg11.dtd">
<svg width="100%" height="100%" viewBox="0 0 383 500" version="1.1" xmlns="http://www.w3.org/2000/svg" xmlns:xlink="http://www.w3.org/1999/xlink" xml:space="preserve" xmlns:serif="http://www.serif.com/" style="fill-rule:evenodd;clip-rule:evenodd;stroke-linejoin:round;stroke-miterlimit:2;">
    <g transform="matrix(1,0,0,1,-5144.87,-5496.29)">
        <g transform="matrix(1,0,0,1,3854.11,5231.23)">
            <g transform="matrix(29.4117,0,0,29.4117,1290.76,265.06)">
                <path d="M11.578,0.147L0.469,7.565C0.179,7.759 0,8.115 0,8.5C0,8.885 0.179,9.241 0.469,9.435L11.578,16.853C12.029,17.154 12.608,16.979 12.871,16.463C13.134,15.947 12.982,15.284 12.531,14.983C12.531,14.983 5.808,10.494 2.822,8.5L12.531,2.017C12.982,1.716 13.134,1.053 12.871,0.537C12.608,0.021 12.029,-0.154 11.578,0.147Z" style=""/>
            </g>
        </g>
    </g>
</svg>
