<?xml version="1.0" encoding="UTF-8" standalone="no"?>
<!DOCTYPE svg PUBLIC "-//W3C//DTD SVG 1.1//EN" "http://www.w3.org/Graphics/SVG/1.1/DTD/svg11.dtd">
<svg width="100%" height="100%" viewBox="0 0 596 842" version="1.1" xmlns="http://www.w3.org/2000/svg" xmlns:xlink="http://www.w3.org/1999/xlink" xml:space="preserve" xmlns:serif="http://www.serif.com/" style="fill-rule:evenodd;clip-rule:evenodd;stroke-linejoin:round;stroke-miterlimit:2;">
    <g transform="matrix(1,0,0,1,-45367.3,-5334.5)">
        <g transform="matrix(1,0,0,1,44138.2,5231.23)">
            <g>
                <g transform="matrix(1,0,0,1.27098,835.33,121.192)">
                    <rect x="814.579" y="482.833" width="51.514" height="134.521" />
                </g>
                <g transform="matrix(1,0,0,2.11596,927.371,-400.462)">
                    <rect x="814.579" y="482.833" width="51.514" height="134.521" />
                </g>
                <g transform="matrix(-1,0,0,1.27098,2217.38,121.192)">
                    <rect x="814.579" y="482.833" width="51.514" height="134.521" />
                </g>
                <g transform="matrix(-1,0,0,2.11596,2125.33,-400.462)">
                    <rect x="814.579" y="482.833" width="51.514" height="134.521" />
                </g>
                <g transform="matrix(0.707107,-0.707107,0.707107,0.707107,-5.95774,1226.27)">
                    <g transform="matrix(1,0,0,1,921.623,-191.237)">
                        <rect x="814.579" y="482.833" width="51.514" height="134.521" />
                    </g>
                    <g transform="matrix(1,0,0,1,1013.66,-191.237)">
                        <rect x="814.579" y="482.833" width="51.514" height="134.521" />
                    </g>
                </g>
                <g transform="matrix(-0.707107,-0.707107,-0.707107,0.707107,3058.66,1226.27)">
                    <g transform="matrix(1,0,0,1,921.623,-191.237)">
                        <rect x="814.579" y="482.833" width="51.514" height="134.521" />
                    </g>
                    <g transform="matrix(1,0,0,1,1013.66,-191.237)">
                        <rect x="814.579" y="482.833" width="51.514" height="134.521" />
                    </g>
                </g>
                <g transform="matrix(-1.52679,1.52679,1.52679,1.52679,1733.61,-1058.77)">
                    <path d="M438.78,441.317C438.78,432.799 439.459,424.79 440.816,417.29C442.172,409.79 443.963,402.779 446.186,396.259C447.333,392.897 448.565,389.675 449.882,386.594C449.882,386.594 474.942,385.486 474.942,385.486C474.025,387.398 473.146,389.368 472.305,391.397C469.479,398.219 467.236,405.757 465.578,414.011C463.919,422.265 463.09,431.367 463.09,441.317C463.09,451.267 463.919,460.369 465.578,468.623C467.236,476.877 469.479,484.415 472.305,491.237C475.132,498.059 478.392,504.221 482.086,509.724C485.78,515.227 489.662,520.202 493.732,524.649L479.259,537.991C476.998,536.031 474.416,533.469 471.514,530.303C468.612,527.137 465.653,523.387 462.638,519.052C459.623,514.718 456.683,509.818 453.819,504.353C450.954,498.888 448.41,492.895 446.186,486.375C443.963,479.855 442.172,472.826 440.816,465.288C439.459,457.75 438.78,449.76 438.78,441.317Z" style="fill-rule:nonzero;"/>
                </g>
                <g transform="matrix(1.52679,1.52679,-1.52679,1.52679,1319.11,-1058.77)">
                    <path d="M438.78,441.317C438.78,432.799 439.459,424.79 440.816,417.29C442.172,409.79 443.963,402.779 446.186,396.259C447.333,392.897 448.565,389.675 449.882,386.594C449.882,386.594 474.942,385.486 474.942,385.486C474.025,387.398 473.146,389.368 472.305,391.397C469.479,398.219 467.236,405.757 465.578,414.011C463.919,422.265 463.09,431.367 463.09,441.317C463.09,451.267 463.919,460.369 465.578,468.623C467.236,476.877 469.479,484.415 472.305,491.237C475.132,498.059 478.392,504.221 482.086,509.724C485.78,515.227 489.662,520.202 493.732,524.649L479.259,537.991C476.998,536.031 474.416,533.469 471.514,530.303C468.612,527.137 465.653,523.387 462.638,519.052C459.623,514.718 456.683,509.818 453.819,504.353C450.954,498.888 448.41,492.895 446.186,486.375C443.963,479.855 442.172,472.826 440.816,465.288C439.459,457.75 438.78,449.76 438.78,441.317Z" style="fill-rule:nonzero;"/>
                </g>
                <g transform="matrix(1.52679,-1.52679,-1.52679,-1.52679,1319.1,2047.5)">
                    <path d="M438.78,441.317C438.78,432.799 439.459,424.79 440.816,417.29C442.172,409.79 443.963,402.779 446.186,396.259C446.603,395.037 447.031,393.834 447.47,392.649C447.47,392.649 466.144,411.323 466.144,411.323C465.948,412.21 465.76,413.106 465.578,414.011C463.919,422.265 463.09,431.367 463.09,441.317C463.09,451.267 463.919,460.369 465.578,468.623C467.236,476.877 469.479,484.415 472.305,491.237C475.132,498.059 478.392,504.221 482.086,509.724C485.78,515.227 489.662,520.202 493.732,524.649L479.259,537.991C476.998,536.031 474.416,533.469 471.514,530.303C468.612,527.137 465.653,523.387 462.638,519.052C459.623,514.718 456.683,509.818 453.819,504.353C450.954,498.888 448.41,492.895 446.186,486.375C443.963,479.855 442.172,472.826 440.816,465.288C439.459,457.75 438.78,449.76 438.78,441.317Z" style="fill-rule:nonzero;"/>
                </g>
                <g transform="matrix(-1.52679,-1.52679,1.52679,-1.52679,1733.61,2047.5)">
                    <path d="M438.78,441.317C438.78,432.799 439.459,424.79 440.816,417.29C442.172,409.79 443.963,402.779 446.186,396.259C446.603,395.037 447.031,393.834 447.47,392.649C447.47,392.649 466.144,411.323 466.144,411.323C465.948,412.21 465.76,413.106 465.578,414.011C463.919,422.265 463.09,431.367 463.09,441.317C463.09,451.267 463.919,460.369 465.578,468.623C467.236,476.877 469.479,484.415 472.305,491.237C475.132,498.059 478.392,504.221 482.086,509.724C485.78,515.227 489.662,520.202 493.732,524.649L479.259,537.991C476.998,536.031 474.416,533.469 471.514,530.303C468.612,527.137 465.653,523.387 462.638,519.052C459.623,514.718 456.683,509.818 453.819,504.353C450.954,498.888 448.41,492.895 446.186,486.375C443.963,479.855 442.172,472.826 440.816,465.288C439.459,457.75 438.78,449.76 438.78,441.317Z" style="fill-rule:nonzero;"/>
                </g>
                <g transform="matrix(1,0,0,1,968.33,-17.2836)">
                    <path d="M445.389,913.119L843.976,913.119L855.83,962.497L457.244,962.497L445.389,913.119Z" />
                </g>
                <g transform="matrix(-1,0,0,1,2087.82,-17.2836)">
                    <path d="M445.389,913.119L843.976,913.119L855.83,962.497L457.244,962.497L445.389,913.119Z" />
                </g>
            </g>
        </g>
    </g>
</svg>
