<svg fill="none" xmlns="http://www.w3.org/2000/svg">
<g filter="url(#filter0_f_1864_18249)">
<path fill-rule="evenodd" clip-rule="evenodd" d="M72.1956 19.5178L57.6097 22.9789L62.408 23.1661L53.1313 55.8424L33.0715 79.6973L6.50586 94.3355L34.698 163.189H114.937H155.599L182.165 95.4198L157.225 80.7816L134.997 53.6738L128.356 23.0745L132.21 22.7967L119.355 19.5178L95.6213 19.5178H72.1956Z" fill="white"/>
</g>
<path fill-rule="evenodd" clip-rule="evenodd" d="M14.2266 103.096L55.509 187.039H136.8L161.75 127.24L111.401 119.989L89.4491 106.535L55.509 96.593L14.2266 103.096Z" fill="#F20D5E"/>
<path fill-rule="evenodd" clip-rule="evenodd" d="M43.1484 186.331H142.801L145.782 199.971H46.1298L43.1484 186.331Z" fill="#F20D5E"/>
<path d="M45.2409 78.201C41.6632 81.7786 38.011 84.9091 34.2098 87.5178C30.483 90.1265 26.7563 92.288 23.1041 94.1513C19.3774 95.9402 15.7997 97.4309 12.2966 98.5489C8.7935 99.6669 5.96119 86.9215 10.0606 85.2072C14.16 83.4929 18.2594 81.2569 22.4333 78.4991C26.6072 75.7413 30.7812 72.2382 35.0296 67.9898C39.2036 63.8158 42.7067 59.5674 45.539 55.3934C48.3713 51.2195 50.5328 47.0456 52.2471 43.0207C53.9614 38.9213 55.1539 34.971 55.8993 31.0952C56.6446 27.2194 57.0918 23.4927 57.3154 19.915L69.0173 20.3622C69.1664 22.1511 69.1664 24.3126 69.0173 26.8467C68.8683 29.3809 68.5701 32.2132 68.0484 35.3437C67.5267 38.4741 66.6322 41.7536 65.5888 45.2568C64.5453 48.7599 63.0546 52.3375 61.1912 56.0642C59.3279 59.791 57.1664 63.4432 54.5577 67.2444C51.949 70.9711 48.893 74.6233 45.3154 78.201H45.2409Z" fill="#F20D5E"/>
<path d="M146.608 78.201C150.186 81.7786 153.838 84.9091 157.639 87.5178C161.366 90.1265 165.093 92.288 168.745 94.1513C172.471 95.9402 176.049 97.4309 179.552 98.5489C183.055 99.6669 185.888 86.9215 181.788 85.2072C177.689 83.4929 173.589 81.2569 169.416 78.4991C165.242 75.7413 161.068 72.2382 156.819 67.9898C152.645 63.8158 149.142 59.5674 146.31 55.3934C143.478 51.2195 141.316 47.0456 139.602 43.0207C137.887 38.9959 136.695 34.971 135.95 31.0952C135.204 27.2194 134.757 23.4927 134.533 19.915L122.832 20.3622C122.682 22.1511 122.682 24.3126 122.832 26.8467C122.906 29.3809 123.279 32.2132 123.8 35.3437C124.322 38.4741 125.217 41.7536 126.26 45.2568C127.378 48.7599 128.794 52.3375 130.658 56.0642C132.446 59.791 134.683 63.4432 137.291 67.2444C139.9 70.9711 142.956 74.6233 146.533 78.201H146.608Z" fill="#F20D5E"/>
<path fill-rule="evenodd" clip-rule="evenodd" d="M60.0748 198.062L12.6709 84.0244L0 89.1673L46.1368 200L60.0748 198.062Z" fill="#F20D5E"/>
<path fill-rule="evenodd" clip-rule="evenodd" d="M131.773 198.062L179.252 84.0244L191.923 89.1673L145.786 200L131.773 198.062Z" fill="#F20D5E"/>
<path d="M40.7045 90.429C35.6362 90.9508 30.9405 91.7706 26.543 93.0377C22.1454 94.3048 18.1206 95.721 14.3939 97.4352C10.6671 99.1495 17.4498 110.255 22.2945 108.764C27.1393 107.274 36.2325 105.41 42.1207 104.889C48.0089 104.292 53.4499 104.292 58.5183 104.814C63.5121 105.336 68.1332 106.23 72.3071 107.497C76.5556 108.764 80.3569 110.33 83.86 112.268C87.3631 114.131 90.4935 116.143 93.4004 118.305L100.481 108.914C99.2141 107.646 97.4998 106.305 95.4873 104.74C93.4749 103.174 91.0153 101.684 88.2575 100.118C85.4997 98.5533 82.4438 97.1371 79.0152 95.721C75.5866 94.3048 71.9345 93.1868 67.9096 92.2178C63.8847 91.2489 59.6363 90.5781 55.0897 90.2054C50.5431 89.8327 45.7729 89.9073 40.7045 90.3545V90.429Z" fill="#F20D5E"/>
<path d="M93.3209 118.467C93.3209 118.467 93.3209 118.467 93.2464 118.467C90.4141 116.305 87.2091 114.293 83.706 112.429C80.2774 110.566 76.4016 109.001 72.1532 107.659C67.9792 106.392 63.3581 105.498 58.3643 104.976C53.3705 104.454 47.9295 104.529 42.0412 105.051C35.9294 105.647 26.8362 107.51 22.2151 108.926C18.9356 109.895 14.9107 105.349 13.5691 101.771C12.7492 99.535 12.9728 97.8952 14.2399 97.299C17.9666 95.5847 22.066 94.094 26.4635 92.9014C30.8611 91.6343 35.6313 90.8145 40.6251 90.2927C45.6189 89.8455 50.4636 89.771 55.0102 90.1436C59.5568 90.5163 63.8798 91.1871 67.8302 92.1561C71.855 93.125 75.5817 94.243 78.9358 95.6592C82.3644 97.0753 85.4203 98.4915 88.1781 100.057C90.9358 101.622 93.3209 103.187 95.4079 104.678C97.4203 106.243 99.1346 107.585 100.402 108.852V109.001L93.3209 118.392C93.3209 118.392 93.3209 118.392 93.2464 118.392L93.3209 118.467ZM51.0599 104.305C53.5941 104.305 56.0537 104.454 58.4388 104.678C63.4326 105.2 68.0538 106.094 72.3022 107.361C76.4762 108.628 80.4265 110.268 83.8551 112.131C87.2836 113.995 90.4886 116.007 93.3209 118.094L100.253 108.926C98.9856 107.734 97.3458 106.392 95.3334 104.827C93.3209 103.262 90.8613 101.771 88.1781 100.206C85.4203 98.6406 82.3644 97.2244 78.9358 95.8083C75.5817 94.4666 71.7805 93.2741 67.8302 92.3051C63.8798 91.3362 59.5568 90.6654 55.0102 90.3672C50.4636 89.9946 45.6934 90.0691 40.6996 90.5163C35.7058 91.0381 30.9356 91.8579 26.5381 93.125C22.2151 94.3921 18.1157 95.8083 14.389 97.5226C12.8237 98.2679 13.4945 100.653 13.8672 101.622C14.538 103.485 15.8796 105.423 17.4449 106.839C19.1592 108.405 20.8735 109.001 22.2151 108.628C26.8362 107.212 35.9294 105.349 42.1158 104.752C45.2462 104.454 48.2276 104.305 51.1344 104.305H51.0599Z" fill="#F20D5E"/>
<path d="M153.087 136.716C148.019 137.238 143.249 137.238 138.702 136.865C134.155 136.492 129.907 135.822 125.882 134.853C121.857 133.884 118.205 132.766 114.776 131.35C111.348 129.933 108.292 128.517 105.534 126.952C102.776 125.387 100.391 123.896 98.3043 122.331C96.2919 120.766 94.5776 119.424 93.3105 118.157L100.391 108.766C103.298 110.927 106.429 112.94 109.932 114.803C113.435 116.666 117.236 118.232 121.485 119.573C125.733 120.84 130.28 121.735 135.273 122.256C140.267 122.778 145.708 122.704 151.671 122.182C157.559 121.586 162.926 120.617 167.77 119.126C172.615 117.635 171.646 132.766 167.249 134.033C162.851 135.3 158.156 136.12 153.162 136.642L153.087 136.716Z" fill="#F20D5E"/>
<path d="M144.739 137.3C142.652 137.3 140.64 137.225 138.702 137.076C134.155 136.703 129.832 136.032 125.882 135.064C121.857 134.095 118.131 132.977 114.776 131.56C111.348 130.144 108.292 128.728 105.534 127.163C102.776 125.598 100.391 124.032 98.3043 122.542C96.2919 120.977 94.5776 119.635 93.3105 118.368V118.219L100.391 108.827C100.391 108.827 100.54 108.827 100.615 108.827C103.447 110.989 106.652 113.001 110.155 114.865C113.584 116.728 117.46 118.293 121.708 119.635C125.882 120.902 130.503 121.796 135.497 122.318C140.491 122.84 145.932 122.765 151.82 122.244C157.708 121.647 163.075 120.678 167.845 119.188C168.59 118.964 169.261 119.113 169.783 119.635C171.423 121.2 171.572 125.821 170.677 129.324C170.006 132.157 168.814 133.946 167.398 134.393C163 135.66 158.23 136.48 153.236 137.001C150.404 137.3 147.572 137.449 144.888 137.449L144.739 137.3ZM93.5341 118.219C94.8012 119.411 96.441 120.753 98.4534 122.318C100.466 123.883 102.925 125.374 105.609 126.939C108.367 128.504 111.422 129.921 114.851 131.337C118.205 132.678 122.006 133.871 125.957 134.84C129.907 135.809 134.23 136.48 138.702 136.852C143.174 137.225 148.019 137.15 153.087 136.703C158.081 136.256 162.851 135.362 167.174 134.095C168.516 133.722 169.634 131.933 170.305 129.25C171.125 125.896 171.05 121.275 169.485 119.784C169.038 119.337 168.441 119.188 167.77 119.411C163 120.902 157.559 121.871 151.671 122.467C145.783 123.063 140.267 123.063 135.273 122.542C130.28 122.02 125.659 121.126 121.41 119.858C117.236 118.591 113.286 116.952 109.857 115.088C106.429 113.225 103.224 111.212 100.391 109.126L93.4596 118.293L93.5341 118.219Z" fill="#F20D5E"/>
<path fill-rule="evenodd" clip-rule="evenodd" d="M129.69 14.1662V0H62.6094V14.1662H129.69Z" fill="#F20D5E"/>
<path fill-rule="evenodd" clip-rule="evenodd" d="M114.784 29.0597V14.1528H77.5166V29.0597H114.784Z" fill="#F20D5E"/>
<defs>
<filter id="filter0_f_1864_18249" x="2.50586" y="15.5178" width="183.659" height="151.672" filterUnits="userSpaceOnUse" color-interpolation-filters="sRGB">
<feFlood flood-opacity="0" result="BackgroundImageFix"/>
<feBlend mode="normal" in="SourceGraphic" in2="BackgroundImageFix" result="shape"/>
<feGaussianBlur stdDeviation="2" result="effect1_foregroundBlur_1864_18249"/>
</filter>
</defs>
</svg>
