<?xml version="1.0" encoding="UTF-8" standalone="no"?>
<svg
   width="100%"
   height="100%"
   viewBox="0 0 500 500"
   version="1.1"
   xml:space="preserve"
   style="fill-rule:evenodd;clip-rule:evenodd;stroke-linejoin:round;stroke-miterlimit:2;"
   id="svg16"
   xmlns="http://www.w3.org/2000/svg"
   xmlns:svg="http://www.w3.org/2000/svg"><defs
   id="defs20">


















































            </defs>

<path
   id="path249"
   style="clip-rule:evenodd;fill:currentColor;fill-rule:evenodd;stroke-width:0.672539;stroke-linejoin:round;stroke-miterlimit:2"
   d="M 68.244141 0 L 68.244141 27.912109 L 12.417969 27.912109 L 12.417969 62.556641 L 68.244141 62.556641 L 68.244141 90.470703 L 102.89062 90.470703 L 102.89062 87.111328 L 109.61328 87.111328 L 109.61328 412.89258 L 102.89062 412.89258 L 102.89062 409.5293 L 68.244141 409.5293 L 68.244141 437.44727 L 12.417969 437.44727 L 12.417969 472.0918 L 68.244141 472.0918 L 68.244141 500 L 102.89062 500 L 102.89062 496.64062 L 397.11133 496.64062 L 397.11133 500 L 431.75586 500 L 431.75586 472.0918 L 487.58203 472.0918 L 487.58203 437.44727 L 431.75586 437.44727 L 431.75586 409.5293 L 397.11133 409.5293 L 397.11133 412.89258 L 390.38867 412.89258 L 390.38867 332.94141 L 357.18164 332.94141 L 357.18164 412.55664 L 358.58008 412.89258 L 141.42383 412.89258 L 142.82227 412.55664 L 142.82227 87.111328 L 357.18164 87.111328 L 357.18164 108.7793 L 390.38867 108.7793 L 390.38867 87.111328 L 397.11133 87.111328 L 397.11133 90.470703 L 431.75586 90.470703 L 431.75586 62.556641 L 487.58203 62.556641 L 487.58203 27.912109 L 431.75586 27.912109 L 431.75586 0 L 397.11133 0 L 397.11133 3.3632812 L 102.89062 3.3632812 L 102.89062 0 L 68.244141 0 z M 102.89062 38.009766 L 397.11133 38.009766 L 397.11133 52.466797 L 102.89062 52.466797 L 102.89062 38.009766 z M 403.17969 133.81836 C 398.06325 133.78298 392.72724 134.24237 387.13477 135.20508 C 381.54224 136.17501 376.34282 137.53032 371.53711 139.27734 C 366.76742 141.02464 362.35525 143.00024 358.30273 145.20703 C 354.25021 147.41381 350.59412 149.77297 347.33203 152.28125 L 347.29492 152.32422 C 344.03295 154.81808 341.13116 157.3001 338.66211 159.76758 C 336.12091 162.24531 334.01339 164.62167 332.23047 166.89258 L 331.97461 167.24414 L 220.61523 344.48828 L 241.89062 366.18359 L 271.47266 319.11328 C 271.47258 319.12409 271.50836 319.00429 271.6543 318.76758 C 278.94429 312.55335 285.46194 308.35914 291.93555 305.25195 C 295.51568 303.56405 299.45457 302.04036 303.7168 300.68555 C 309.85731 298.7325 315.63342 297.4576 321.04297 296.85742 C 322.4855 296.69906 323.89099 296.57745 325.29688 296.49805 L 325.58594 296.48242 C 329.29913 296.24766 332.90132 296.2812 336.32227 296.57031 C 341.07556 296.97406 345.50204 297.77173 349.63672 298.9707 C 352.29725 299.74767 354.85013 300.62221 357.29297 301.5957 L 453.11328 149.09766 C 452.03819 148.32196 450.85489 147.5092 449.49219 146.64844 C 447.08977 145.09873 444.29127 143.57458 441.0957 142.08008 C 437.90012 140.58918 434.30664 139.20719 430.38867 137.94141 C 429.0587 137.51329 427.69359 137.11441 426.29102 136.75781 L 426.00195 136.6875 C 423.34083 135.98981 420.57054 135.42052 417.69141 134.95898 C 413.12071 134.23593 408.29609 133.85736 403.17969 133.81836 z M 407.54688 166.00586 L 344.22461 266.81055 C 342.82179 266.48637 341.34732 266.19734 339.83594 265.93359 C 335.76964 265.21798 331.44747 264.8096 326.83594 264.7168 C 322.22444 264.62041 317.39432 264.90837 312.30859 265.57227 C 309.81982 265.89923 307.25815 266.35198 304.69531 266.94141 L 304.44336 267 L 304.18945 267.0625 L 359.99805 178.2207 L 360.17773 178.10938 C 363.94256 175.82834 368.10268 173.80201 372.72852 172.01758 C 377.78812 170.05269 383.49359 168.5216 389.84375 167.42773 C 396.19393 166.33027 402.10701 165.85631 407.54688 166.00586 z M 102.89062 447.53906 L 397.11133 447.53906 L 397.11133 461.99609 L 102.89062 461.99609 L 102.89062 447.53906 z " /></svg>
