<?xml version="1.0" encoding="UTF-8" standalone="no"?>
<svg
   width="100%"
   height="100%"
   viewBox="0 0 500 500"
   version="1.1"
   xml:space="preserve"
   style="fill-rule:evenodd;clip-rule:evenodd;stroke-linejoin:round;stroke-miterlimit:2;"
   id="svg16"
   sodipodi:docname="project-add.svg"
   inkscape:version="1.2.2 (b0a8486541, 2022-12-01)"
   xmlns:inkscape="http://www.inkscape.org/namespaces/inkscape"
   xmlns:sodipodi="http://sodipodi.sourceforge.net/DTD/sodipodi-0.dtd"
   xmlns="http://www.w3.org/2000/svg"
   xmlns:svg="http://www.w3.org/2000/svg"><sodipodi:namedview
   id="namedview5"
   pagecolor="#ffffff"
   bordercolor="#666666"
   borderopacity="1.0"
   inkscape:showpageshadow="2"
   inkscape:pageopacity="0.0"
   inkscape:pagecheckerboard="0"
   inkscape:deskcolor="#d1d1d1"
   showgrid="false"
   inkscape:zoom="0.87"
   inkscape:cx="492.52874"
   inkscape:cy="285.05747"
   inkscape:window-width="1920"
   inkscape:window-height="1043"
   inkscape:window-x="1920"
   inkscape:window-y="1080"
   inkscape:window-maximized="1"
   inkscape:current-layer="svg16" /><defs
   id="defs20">
        
    
            
            
            
            
            
            
            
            
            
            
            
            
            
            
        
                
            
                
            
                
            
                
            
                
            
                
            
                
            
                
            
                
            
                
            
                
            
                
            
                
            
                
            
        
    
            
        
                
            
        
    
            
            
            
            
            
            
            
            
            
            
            
            
            
            
        
                
            
                
            
                
            
                
            
                
            
                
            
                
            
                
            
                
            
                
            
                
            
                
            
                
            
                
            
            
        
                
            </defs>
    
<path
   id="path385"
   style="clip-rule:evenodd;fill:#f20d5e;fill-rule:evenodd;stroke-width:0.672539;stroke-linejoin:round;stroke-miterlimit:2"
   d="M 68.244141 0 L 68.244141 27.910156 L 12.417969 27.910156 L 12.417969 62.556641 L 68.244141 62.556641 L 68.244141 90.470703 L 102.89062 90.470703 L 102.89062 87.111328 L 109.61328 87.111328 L 109.61328 412.89258 L 102.89062 412.89258 L 102.89062 409.5293 L 68.244141 409.5293 L 68.244141 437.44727 L 12.417969 437.44727 L 12.417969 472.0918 L 68.244141 472.0918 L 68.244141 500 L 102.89062 500 L 102.89062 496.64062 L 397.11133 496.64062 L 397.11133 500 L 431.75586 500 L 431.75586 472.0918 L 487.58203 472.0918 L 487.58203 437.44727 L 431.75586 437.44727 L 431.75586 409.5293 L 397.11133 409.5293 L 397.11133 412.89258 L 390.38867 412.89258 L 390.38867 374.89453 A 121.16888 125.69518 0 0 1 357.18164 367.80469 L 357.18164 412.55469 L 358.58984 412.89258 L 141.41406 412.89258 L 142.82227 412.55469 L 142.82227 87.111328 L 357.18164 87.111328 L 357.18164 132.19531 A 121.16888 125.69518 0 0 1 390.38867 125.10547 L 390.38867 87.111328 L 397.11133 87.111328 L 397.11133 90.470703 L 431.75586 90.470703 L 431.75586 62.556641 L 487.58203 62.556641 L 487.58203 27.910156 L 431.75586 27.910156 L 431.75586 0 L 397.11133 0 L 397.11133 3.3632812 L 102.89062 3.3632812 L 102.89062 0 L 68.244141 0 z M 102.89062 38.007812 L 397.11133 38.007812 L 397.11133 52.464844 L 102.89062 52.464844 L 102.89062 38.007812 z M 377.15039 146.65039 L 377.15039 228.75 L 303.51953 228.75 L 294.89062 270.75 L 377.15039 270.75 L 377.15039 344.75 L 419.08984 353.34961 L 419.08984 270.75 L 492.91992 270.75 L 501.54883 228.75 L 419.08984 228.75 L 419.08984 155.34961 L 377.15039 146.65039 z M 102.89062 447.53711 L 397.11133 447.53711 L 397.11133 461.99414 L 102.89062 461.99414 L 102.89062 447.53711 z " /></svg>
