<?xml version="1.0" encoding="UTF-8" standalone="no"?>
<svg
   width="100%"
   height="100%"
   viewBox="0 0 492 501"
   version="1.1"
   xml:space="preserve"
   style="fill-rule:evenodd;clip-rule:evenodd;stroke-linejoin:round;stroke-miterlimit:2;"
   id="svg606"
   xmlns="http://www.w3.org/2000/svg"
   xmlns:svg="http://www.w3.org/2000/svg"><defs
   id="defs610" />
    <path
   id="path804"
   style="color:#000000;clip-rule:nonzero;fill-rule:nonzero;stroke-width:1.07233;stroke-linecap:round;-inkscape-stroke:none"
   d="m 276.31439,65.74843 c -95.10047,0 -174.88348,67.47458 -194.012067,156.99994 h 48.282057 c 17.92666,-63.65618 76.17698,-110.0562 145.73001,-110.0562 83.92642,0 151.45819,67.53177 151.45819,151.45819 0,83.9264 -67.53177,151.46027 -151.45819,151.46027 -48.20105,0 -90.96194,-22.30275 -118.65997,-57.16648 h -55.81769 c 33.63616,61.9207 99.27571,104.10813 174.47766,104.10813 109.29611,0 198.40193,-89.10583 198.40193,-198.40192 0,-109.29611 -89.10582,-198.40193 -198.40193,-198.40193 z" /><g
   transform="matrix(0.97151472,-0.45392728,0.45392728,0.97151472,-8636.4959,-8345.9122)"
   id="g604">
        <g
   transform="translate(2642.19,10244.9)"
   id="g602">
            <g
   transform="matrix(0.95197,0,0,0.95197,-2441.96,-9728.12)"
   id="g600">
                <path
   d="m 4060.65,10669.2 -29.99,-48.9 49.71,-69.2 -31.38,-54.3 -138.35,192.4 28.68,49.6 235.79,-23.8 -31.29,-54.1 z"
   id="path598" />
            </g>
        </g>
    </g>
</svg>
