<?xml version="1.0" encoding="UTF-8" standalone="no"?>
<!DOCTYPE svg PUBLIC "-//W3C//DTD SVG 1.1//EN" "http://www.w3.org/Graphics/SVG/1.1/DTD/svg11.dtd">
<svg width="100%" height="100%" viewBox="0 0 500 335" version="1.1" xmlns="http://www.w3.org/2000/svg" xmlns:xlink="http://www.w3.org/1999/xlink" xml:space="preserve" xmlns:serif="http://www.serif.com/" style="fill-rule:evenodd;clip-rule:evenodd;stroke-linejoin:round;stroke-miterlimit:2;">
    <g transform="matrix(1,0,0,1,-49931.4,-10578.5)">
        <g transform="matrix(1,0,0,1,48654.7,10231.2)">
            <g transform="matrix(5.08481e-16,-8.30413,25.7941,1.57943e-15,-72972.1,55091.4)">
                <g transform="matrix(-0.169158,-8.67362e-18,6.93889e-18,-0.0544586,6679.02,2930.93)">
                    <path d="M545.914,913.119L716.349,913.119L728.204,962.497L557.769,962.497L545.914,913.119Z" style="fill:currentColor;"/>
                </g>
                <g transform="matrix(7.78066e-18,-0.117584,0.365236,2.5049e-18,6411.75,2919.25)">
                    <path d="M250.068,427.749L346.403,384.33L346.403,407.021L275.395,439.056L275.395,439.508L346.403,471.616L346.403,494.233L250.068,450.815L250.068,427.749Z" style="fill:currentColor;fill-rule:nonzero;"/>
                </g>
            </g>
        </g>
        <g transform="matrix(1,0,0,1,48654.7,10231.2)">
            <g transform="matrix(-3.03288,-7.25129e-16,-7.25129e-16,3.03288,2535.03,-818.398)">
                <path d="M250.068,427.749L346.403,384.33L346.403,407.021L275.395,439.056L275.395,439.508L346.403,471.616L346.403,494.233L250.068,450.815L250.068,427.749Z" style="fill:currentColor;fill-rule:nonzero;"/>
            </g>
        </g>
    </g>
</svg>
