<?xml version="1.0" encoding="UTF-8" standalone="no"?>
<svg width="100%" height="100%" viewBox="0 0 500 500" version="1.1" xmlns="http://www.w3.org/2000/svg" xml:space="preserve" style="fill-rule:evenodd;clip-rule:evenodd;stroke-linejoin:round;stroke-miterlimit:2;">
    <g transform="matrix(1,0,0,1,-5130.72,-16535.3)">
        <g transform="matrix(1,0,0,1,3854.11,16270.8)">
            <g transform="matrix(1,0,0,1,-3854.11,-16270.8)">
                <path d="M5190.72,16975.3L5190.72,16878.6L5130.72,16878.6L5130.72,17035.3L5287.4,17035.3L5287.4,16975.3L5190.72,16975.3ZM5474.03,17035.3L5630.72,17035.3L5630.72,16878.6L5570.72,16878.6L5570.72,16975.3L5474.03,16975.3L5474.03,17035.3ZM5630.72,16815.3L5630.72,16755.3L5130.72,16755.3L5130.72,16815.3L5630.72,16815.3ZM5570.72,16595.3L5570.72,16692L5630.72,16692L5630.72,16535.3L5474.03,16535.3L5474.03,16595.3L5570.72,16595.3ZM5287.4,16535.3L5130.72,16535.3L5130.72,16692L5190.72,16692L5190.72,16595.3L5287.4,16595.3L5287.4,16535.3Z" style="fill:rgb(242,13,94);"/>
            </g>
        </g>
    </g>
</svg>
