<?xml version="1.0" encoding="UTF-8" standalone="no"?>
<!DOCTYPE svg PUBLIC "-//W3C//DTD SVG 1.1//EN" "http://www.w3.org/Graphics/SVG/1.1/DTD/svg11.dtd">
<svg width="100%" height="100%" viewBox="0 0 500 504" version="1.1" xmlns="http://www.w3.org/2000/svg" xmlns:xlink="http://www.w3.org/1999/xlink" xml:space="preserve" xmlns:serif="http://www.serif.com/" style="fill-rule:evenodd;clip-rule:evenodd;stroke-linejoin:round;stroke-miterlimit:2;">
    <g transform="matrix(1,0,0,1,-49931.4,-5496.29)">
        <g transform="matrix(1,0,0,1,48654.7,5231.23)">
            <g transform="matrix(0.774838,0,0,0.774838,-37355.8,-3936.93)">
                <path d="M49942.5,5506.86C49937.9,5510.9 49932.7,5516.11 49926.8,5522.52C49920.7,5529.1 49914.6,5536.9 49908.3,5545.92C49902.1,5554.93 49895.9,5565.12 49890,5576.49C49884,5587.85 49878.7,5600.32 49874.1,5613.88C49869.5,5627.44 49865.8,5642.06 49862.9,5657.73C49860.1,5673.41 49858.7,5690.03 49858.7,5707.59C49858.7,5725.3 49860.1,5741.96 49862.9,5757.56C49865.8,5773.15 49869.5,5787.73 49874.1,5801.3C49878.7,5814.86 49884,5827.32 49890,5838.68C49895.9,5850.05 49902.1,5860.24 49908.3,5869.25C49914.6,5878.27 49920.7,5886.07 49926.8,5892.65C49932.7,5899.06 49937.9,5904.28 49942.5,5908.31C49946.5,5912.92 49951.8,5918.16 49958.2,5924.03C49964.7,5930.06 49972.5,5936.22 49981.6,5942.49C49990.6,5948.76 50000.8,5954.87 50012.1,5960.83C50023.5,5966.79 50036,5972.08 50049.5,5976.7C50063.1,5981.33 50077.7,5985.05 50093.4,5987.87C50109.1,5990.69 50125.7,5992.11 50143.2,5992.11C50160.9,5992.11 50177.6,5990.69 50193.2,5987.87C50208.8,5985.05 50223.4,5981.33 50236.9,5976.7C50250.5,5972.08 50263,5966.79 50274.3,5960.83C50285.7,5954.87 50295.9,5948.76 50304.9,5942.49C50305.8,5941.85 50306.7,5941.22 50307.6,5940.58L50440.5,6073.46L50504,6034.52L50360.8,5891.36C50366.5,5885.05 50372.3,5877.69 50378.1,5869.25C50384.4,5860.24 50390.5,5850.05 50396.5,5838.68C50402.4,5827.32 50407.7,5814.86 50412.3,5801.3C50417,5787.73 50420.7,5773.11 50423.5,5757.44C50426.3,5741.76 50427.7,5725.14 50427.7,5707.59C50427.7,5689.87 50426.3,5673.21 50423.5,5657.61C50420.7,5642.02 50417,5627.44 50412.3,5613.88C50407.7,5600.32 50402.4,5587.85 50396.5,5576.49C50390.5,5565.12 50384.4,5554.93 50378.1,5545.92C50371.9,5536.9 50365.7,5529.1 50359.7,5522.52C50353.8,5516.11 50348.6,5510.9 50343.9,5506.86C50339.9,5502.25 50334.7,5497.01 50328.3,5491.14C50321.7,5485.11 50313.9,5478.95 50304.9,5472.68C50295.9,5466.41 50285.7,5460.3 50274.3,5454.34C50263,5448.38 50250.5,5443.09 50236.9,5438.47C50223.4,5433.84 50208.8,5430.12 50193.1,5427.3C50177.4,5424.48 50160.8,5423.07 50143.2,5423.07C50125.5,5423.07 50108.9,5424.48 50093.3,5427.3C50077.7,5430.12 50063.1,5433.84 50049.5,5438.47C50036,5443.09 50023.5,5448.38 50012.1,5454.34C50000.8,5460.3 49990.6,5466.41 49981.6,5472.68C49972.5,5478.95 49964.7,5485.11 49958.2,5491.14C49951.8,5497.01 49946.5,5502.25 49942.5,5506.86ZM49993.5,5857.33C50001.2,5864.25 50009.7,5870.87 50019.1,5877.18C50029.1,5883.88 50040.3,5889.79 50052.7,5894.92C50065.1,5900.05 50078.7,5904.11 50093.7,5907.12C50108.7,5910.13 50125.2,5911.63 50143.2,5911.63C50161.3,5911.63 50177.8,5910.13 50192.8,5907.12C50207.7,5904.11 50221.4,5900.05 50233.8,5894.92C50246.1,5889.79 50257.3,5883.88 50267.3,5877.18C50276.7,5870.87 50285.3,5864.25 50293,5857.33C50299.9,5849.62 50306.5,5841.07 50312.8,5831.66C50319.5,5821.68 50325.4,5810.51 50330.6,5798.13C50335.7,5785.76 50339.8,5772.09 50342.8,5757.11C50345.8,5742.14 50347.3,5725.63 50347.3,5707.59C50347.3,5689.54 50345.8,5673.03 50342.8,5658.06C50339.8,5643.09 50335.7,5629.41 50330.6,5617.04C50325.4,5604.66 50319.5,5593.49 50312.8,5583.51C50306.5,5574.1 50299.9,5565.55 50293,5557.84C50285.3,5550.92 50276.7,5544.31 50267.3,5537.99C50257.3,5531.29 50246.1,5525.38 50233.8,5520.25C50221.4,5515.12 50207.7,5511.06 50192.8,5508.05C50177.8,5505.04 50161.3,5503.54 50143.2,5503.54C50125.2,5503.54 50108.7,5505.04 50093.7,5508.05C50078.7,5511.06 50065.1,5515.12 50052.7,5520.25C50040.3,5525.38 50029.1,5531.29 50019.1,5537.99C50009.7,5544.31 50001.2,5550.92 49993.5,5557.84C49986.6,5565.55 49979.9,5574.1 49973.6,5583.51C49966.9,5593.49 49961,5604.66 49955.9,5617.04C49950.8,5629.41 49946.7,5643.09 49943.7,5658.06C49940.7,5673.03 49939.2,5689.54 49939.2,5707.59C49939.2,5725.63 49940.7,5742.14 49943.7,5757.11C49946.7,5772.09 49950.8,5785.76 49955.9,5798.13C49961,5810.51 49966.9,5821.68 49973.6,5831.66C49979.9,5841.07 49986.6,5849.62 49993.5,5857.33Z" style="fill:rgb(242,13,94);"/>
            </g>
        </g>
    </g>
</svg>
