<?xml version="1.0" encoding="UTF-8" standalone="no"?>
<!DOCTYPE svg PUBLIC "-//W3C//DTD SVG 1.1//EN" "http://www.w3.org/Graphics/SVG/1.1/DTD/svg11.dtd">
<svg width="100%" height="100%" viewBox="0 0 500 285" version="1.1" xmlns="http://www.w3.org/2000/svg" xmlns:xlink="http://www.w3.org/1999/xlink" xml:space="preserve" xmlns:serif="http://www.serif.com/" style="fill-rule:evenodd;clip-rule:evenodd;stroke-linejoin:round;stroke-miterlimit:2;">
    <g transform="matrix(1,0,0,1,-49931.4,-4603.61)">
        <g transform="matrix(1,0,0,1,48654.7,4231.23)">
            <g transform="matrix(1.19766,0,0,1.19766,-3977.85,-101.694)">
                <g transform="matrix(3.10425e-16,-2.15921,2.15921,3.10425e-16,3643.11,1580.56)">
                    <path d="M438.78,441.317C438.78,432.799 439.459,424.79 440.816,417.29C442.172,409.79 443.963,402.779 446.186,396.259C448.41,389.739 450.954,383.746 453.819,378.281C456.683,372.816 459.623,367.916 462.638,363.582C465.653,359.248 468.612,355.497 471.514,352.331C474.416,349.165 476.998,346.603 479.259,344.643L493.732,357.985C489.662,362.432 485.78,367.407 482.086,372.91C478.392,378.413 475.132,384.575 472.305,391.397C469.479,398.219 467.236,405.757 465.578,414.011C463.919,422.265 463.09,431.367 463.09,441.317C463.09,451.267 463.919,460.369 465.578,468.623C467.236,476.877 469.479,484.415 472.305,491.237C475.132,498.059 478.392,504.221 482.086,509.724C485.78,515.227 489.662,520.202 493.732,524.649L479.259,537.991C476.998,536.031 474.416,533.469 471.514,530.303C468.612,527.137 465.653,523.387 462.638,519.052C459.623,514.718 456.683,509.818 453.819,504.353C450.954,498.888 448.41,492.895 446.186,486.375C443.963,479.855 442.172,472.826 440.816,465.288C439.459,457.75 438.78,449.76 438.78,441.317Z" style="fill:currentColor;fill-rule:nonzero;"/>
                </g>
                <g transform="matrix(5.74852e-16,2.15921,2.15921,-5.74852e-16,3643.11,-551.586)">
                    <path d="M438.78,441.317C438.78,432.799 439.459,424.79 440.816,417.29C442.172,409.79 443.963,402.779 446.186,396.259C448.41,389.739 450.954,383.746 453.819,378.281C456.683,372.816 459.623,367.916 462.638,363.582C465.653,359.248 468.612,355.497 471.514,352.331C474.416,349.165 476.998,346.603 479.259,344.643L493.732,357.985C489.662,362.432 485.78,367.407 482.086,372.91C478.392,378.413 475.132,384.575 472.305,391.397C469.479,398.219 467.236,405.757 465.578,414.011C463.919,422.265 463.09,431.367 463.09,441.317C463.09,451.267 463.919,460.369 465.578,468.623C467.236,476.877 469.479,484.415 472.305,491.237C475.132,498.059 478.392,504.221 482.086,509.724C485.78,515.227 489.662,520.202 493.732,524.649L479.259,537.991C476.998,536.031 474.416,533.469 471.514,530.303C468.612,527.137 465.653,523.387 462.638,519.052C459.623,514.718 456.683,509.818 453.819,504.353C450.954,498.888 448.41,492.895 446.186,486.375C443.963,479.855 442.172,472.826 440.816,465.288C439.459,457.75 438.78,449.76 438.78,441.317Z" style="fill:currentColor;fill-rule:nonzero;"/>
                </g>
                <g transform="matrix(0.707107,0.707107,-0.707107,0.707107,4358.23,-501.237)">
                    <rect x="814.579" y="482.833" width="51.514" height="134.521" style="fill:currentColor;"/>
                    <g transform="matrix(1,0,0,1,92.041,0)">
                        <rect x="814.579" y="482.833" width="51.514" height="134.521" style="fill:currentColor;"/>
                    </g>
                </g>
                <g transform="matrix(-0.707107,0.707107,-0.707107,-0.707107,5611.73,276.713)">
                    <rect x="814.579" y="482.833" width="51.514" height="134.521" style="fill:currentColor;"/>
                    <g transform="matrix(1,0,0,1,92.041,0)">
                        <rect x="814.579" y="482.833" width="51.514" height="134.521" style="fill:currentColor;"/>
                    </g>
                </g>
            </g>
        </g>
    </g>
</svg>
