<?xml version="1.0" encoding="UTF-8" standalone="no"?><!DOCTYPE svg PUBLIC "-//W3C//DTD SVG 1.1//EN" "http://www.w3.org/Graphics/SVG/1.1/DTD/svg11.dtd"><svg width="100%" height="100%" viewBox="0 0 10 14" version="1.1" xmlns="http://www.w3.org/2000/svg" xmlns:xlink="http://www.w3.org/1999/xlink" xml:space="preserve" xmlns:serif="http://www.serif.com/" style="fill-rule:evenodd;clip-rule:evenodd;stroke-linejoin:round;stroke-miterlimit:2;"><path d="M0.912,11.295l-0.912,0.912l0.039,0.038l-0.039,0.039l1.717,1.716l0.039,-0.039l0.038,0.039l1.718,-1.716l-0.039,-0.039l0.039,-0.038l-0.922,-0.921c0.02,-0.06 0.042,-0.121 0.068,-0.182c0.061,-0.147 0.142,-0.296 0.243,-0.448c0.103,-0.155 0.234,-0.31 0.39,-0.466c0.156,-0.156 0.311,-0.286 0.466,-0.389c0.152,-0.101 0.301,-0.183 0.448,-0.244c0.143,-0.059 0.283,-0.102 0.419,-0.129c0.104,-0.021 0.206,-0.035 0.305,-0.044c0.112,0.008 0.229,0.024 0.349,0.047c0.136,0.027 0.276,0.071 0.419,0.13c0.147,0.061 0.296,0.142 0.448,0.243c0.155,0.103 0.31,0.234 0.466,0.39c0.156,0.155 0.286,0.31 0.39,0.466c0.101,0.151 0.182,0.3 0.243,0.447c0.025,0.061 0.047,0.121 0.067,0.18l-0.921,0.92l0.039,0.038l-0.039,0.039l1.717,1.716l0.039,-0.039l0.039,0.039l1.717,-1.716l-0.039,-0.039l0.039,-0.038l-0.913,-0.912c-0.007,-0.05 -0.015,-0.102 -0.024,-0.155c-0.028,-0.156 -0.07,-0.322 -0.125,-0.499c-0.055,-0.178 -0.129,-0.361 -0.221,-0.548c-0.091,-0.184 -0.201,-0.37 -0.331,-0.557c-0.131,-0.189 -0.286,-0.374 -0.466,-0.553l-0.156,-0.156l0.156,0.156c-0.181,-0.181 -0.366,-0.336 -0.554,-0.467c-0.186,-0.129 -0.372,-0.239 -0.556,-0.329c-0.174,-0.086 -0.345,-0.155 -0.512,-0.209c0.167,-0.055 0.338,-0.124 0.512,-0.21c0.184,-0.09 0.37,-0.2 0.557,-0.33c0.189,-0.132 0.374,-0.287 0.553,-0.466c0.181,-0.181 0.337,-0.366 0.467,-0.554c0.13,-0.186 0.239,-0.372 0.33,-0.556c0.092,-0.187 0.166,-0.37 0.221,-0.548c0.055,-0.177 0.097,-0.343 0.125,-0.499c0.029,-0.161 0.046,-0.309 0.051,-0.442c0.005,-0.109 0.005,-0.204 0.002,-0.287c0.003,-0.082 0.003,-0.177 -0.002,-0.286c-0.005,-0.133 -0.022,-0.281 -0.051,-0.442c-0.028,-0.156 -0.07,-0.322 -0.125,-0.499c-0.055,-0.178 -0.129,-0.361 -0.221,-0.549c-0.091,-0.184 -0.201,-0.37 -0.331,-0.557c-0.131,-0.189 -0.286,-0.373 -0.466,-0.552l0,-0c-0.181,-0.181 -0.366,-0.337 -0.554,-0.467c-0.186,-0.129 -0.372,-0.239 -0.556,-0.329c-0.187,-0.092 -0.371,-0.166 -0.549,-0.222c-0.177,-0.055 -0.343,-0.096 -0.499,-0.124c-0.162,-0.029 -0.309,-0.046 -0.443,-0.052c-0.081,-0.003 -0.155,-0.004 -0.222,-0.003c-0.089,-0.005 -0.195,-0.005 -0.318,-0l-0,-0c-0.134,0.006 -0.282,0.023 -0.443,0.052c-0.156,0.028 -0.322,0.069 -0.499,0.124c-0.179,0.056 -0.362,0.129 -0.549,0.221c-0.184,0.091 -0.37,0.201 -0.558,0.331c-0.189,0.131 -0.373,0.286 -0.552,0.465c-0.181,0.181 -0.337,0.366 -0.468,0.554c-0.129,0.187 -0.239,0.372 -0.329,0.556c-0.092,0.187 -0.166,0.37 -0.221,0.549c-0.056,0.176 -0.097,0.342 -0.125,0.498c-0.029,0.162 -0.046,0.309 -0.052,0.443c-0.004,0.108 -0.005,0.204 -0.001,0.286c-0.004,0.082 -0.003,0.178 0.001,0.286c0.006,0.134 0.023,0.281 0.052,0.443c0.028,0.155 0.069,0.322 0.125,0.498c0.055,0.179 0.129,0.362 0.221,0.549c0.091,0.184 0.201,0.37 0.331,0.557c0.131,0.189 0.286,0.373 0.466,0.553l-0,-0c0.181,0.181 0.366,0.336 0.554,0.466c0.186,0.13 0.372,0.239 0.556,0.33c0.174,0.085 0.345,0.155 0.512,0.209c-0.167,0.054 -0.338,0.124 -0.512,0.21c-0.184,0.09 -0.37,0.2 -0.558,0.33c-0.189,0.131 -0.373,0.286 -0.552,0.466c-0.181,0.181 -0.337,0.365 -0.468,0.554c-0.129,0.186 -0.239,0.371 -0.329,0.555c-0.092,0.188 -0.166,0.371 -0.221,0.549c-0.056,0.177 -0.097,0.343 -0.125,0.499c-0.01,0.054 -0.018,0.107 -0.025,0.158Zm4.017,-9.693c-0.099,0.008 -0.201,0.023 -0.305,0.044c-0.136,0.026 -0.276,0.07 -0.419,0.129c-0.147,0.061 -0.296,0.143 -0.448,0.243c-0.155,0.104 -0.31,0.234 -0.466,0.39c-0.156,0.155 -0.287,0.31 -0.39,0.466c-0.101,0.151 -0.182,0.3 -0.243,0.448c-0.06,0.142 -0.103,0.282 -0.13,0.418c-0.023,0.118 -0.039,0.232 -0.047,0.343c0.008,0.111 0.024,0.225 0.047,0.343c0.027,0.136 0.07,0.275 0.13,0.418c0.061,0.148 0.142,0.297 0.243,0.448c0.103,0.155 0.234,0.31 0.39,0.466c0.156,0.156 0.311,0.286 0.466,0.39c0.152,0.1 0.301,0.182 0.448,0.243c0.143,0.059 0.283,0.103 0.419,0.129c0.12,0.024 0.237,0.04 0.349,0.048c0.099,-0.009 0.201,-0.024 0.305,-0.044c0.136,-0.027 0.276,-0.07 0.419,-0.13c0.147,-0.061 0.296,-0.142 0.448,-0.243c0.155,-0.103 0.31,-0.233 0.466,-0.389c0.156,-0.156 0.286,-0.311 0.39,-0.466c0.101,-0.152 0.182,-0.301 0.243,-0.448c0.059,-0.143 0.103,-0.282 0.13,-0.419c0.023,-0.118 0.039,-0.232 0.047,-0.343c-0.008,-0.11 -0.024,-0.225 -0.047,-0.343c-0.027,-0.136 -0.071,-0.275 -0.13,-0.418c-0.061,-0.147 -0.142,-0.296 -0.243,-0.448c-0.104,-0.155 -0.234,-0.31 -0.39,-0.466c-0.156,-0.156 -0.311,-0.286 -0.466,-0.389c-0.152,-0.101 -0.301,-0.182 -0.448,-0.243c-0.143,-0.06 -0.283,-0.103 -0.419,-0.13c-0.12,-0.024 -0.237,-0.039 -0.349,-0.047Z" style="fill:#1a1a1a;"/></svg>