<?xml version="1.0" encoding="UTF-8" standalone="no"?>
<!DOCTYPE svg PUBLIC "-//W3C//DTD SVG 1.1//EN" "http://www.w3.org/Graphics/SVG/1.1/DTD/svg11.dtd">
<svg width="100%" height="100%" viewBox="0 0 492 501" version="1.1" xmlns="http://www.w3.org/2000/svg" xmlns:xlink="http://www.w3.org/1999/xlink" xml:space="preserve" xmlns:serif="http://www.serif.com/" style="fill-rule:evenodd;clip-rule:evenodd;stroke-linejoin:round;stroke-miterlimit:2;">
    <g transform="matrix(1,0,0,1,-3923.04,-10509.4)">
        <g transform="matrix(1,0,0,1,2642.19,10244.9)">
            <g transform="matrix(0.95197,0,0,0.95197,-2441.96,-9728.12)">
                <path d="M4276.94,10850C4174.45,10908.3 4051.68,10919.2 3940.47,10879.8L3934.01,10877.5L3914.87,10931.5L3921.33,10933.8C4048.83,10979 4189.65,10966.2 4306.93,10898.9L4257.22,10968.1L4288.6,11022.4L4426.95,10830L4398.27,10780.3L4162.48,10804.1L4193.77,10858.3L4276.94,10850ZM4060.65,10669.2C4163.14,10610.9 4285.91,10600 4397.11,10639.4L4403.58,10641.7L4422.72,10587.6L4416.26,10585.3C4288.76,10540.2 4147.94,10553 4030.66,10620.3L4080.37,10551.1L4048.99,10496.8L3910.64,10689.2L3939.32,10738.8L4175.11,10715L4143.82,10660.9L4060.65,10669.2Z"/>
            </g>
        </g>
    </g>
</svg>
