<?xml version="1.0" encoding="UTF-8" standalone="no"?><!DOCTYPE svg PUBLIC "-//W3C//DTD SVG 1.1//EN" "http://www.w3.org/Graphics/SVG/1.1/DTD/svg11.dtd"><svg width="100%" height="100%" viewBox="0 0 13 14" version="1.1" xmlns="http://www.w3.org/2000/svg" xmlns:xlink="http://www.w3.org/1999/xlink" xml:space="preserve" xmlns:serif="http://www.serif.com/" style="fill-rule:evenodd;clip-rule:evenodd;stroke-linejoin:round;stroke-miterlimit:2;"><path d="M8.209,0l-7.824,0l-0.385,1.603l1.281,0c-0,0 2.401,4.494 2.884,5.397c0,-0 -2.884,5.397 -2.884,5.397c-0,-0 -1.281,-0 -1.281,-0l0.385,1.603l11.657,0l0.384,-1.603l-1.28,-0c-0,-0 -2.885,-5.397 -2.885,-5.397c0.435,-0.813 2.427,-4.539 2.885,-5.397c-0,0 1.28,0 1.28,0l-0.384,-1.603l-3.833,0Zm0.871,11.933l0.248,0.464l-6.229,-0c-0,-0 0.248,-0.464 0.248,-0.464c0.08,-0.06 0.163,-0.12 0.25,-0.178c0.208,-0.14 0.441,-0.263 0.699,-0.37c0.261,-0.108 0.549,-0.193 0.864,-0.256c0.319,-0.064 0.67,-0.096 1.053,-0.096c0.384,0 0.735,0.032 1.053,0.096c0.316,0.063 0.604,0.148 0.864,0.256c0.258,0.107 0.492,0.23 0.7,0.37c0.086,0.058 0.17,0.118 0.25,0.178l-0,0Zm-1.254,-2.345c-0.182,-0.05 -0.373,-0.093 -0.572,-0.129c-0.327,-0.059 -0.674,-0.088 -1.041,-0.088c-0.37,-0 -0.718,0.03 -1.043,0.088c-0.198,0.036 -0.388,0.079 -0.57,0.129l1.384,-2.588l-2.885,-5.397l6.229,0l-2.885,5.397l1.383,2.588Z" style="fill:#1a1a1a;fill-rule:nonzero;"/></svg>