<?xml version="1.0" encoding="UTF-8" standalone="no"?>
<svg
   width="100%"
   height="100%"
   viewBox="0 0 500 422"
   version="1.1"
   xml:space="preserve"
   style="fill-rule:evenodd;clip-rule:evenodd;stroke-linejoin:round;stroke-miterlimit:2;"
   id="svg40"
   sodipodi:docname="unlock.svg"
   inkscape:version="1.2.2 (b0a8486541, 2022-12-01)"
   xmlns:inkscape="http://www.inkscape.org/namespaces/inkscape"
   xmlns:sodipodi="http://sodipodi.sourceforge.net/DTD/sodipodi-0.dtd"
   xmlns="http://www.w3.org/2000/svg"
   xmlns:svg="http://www.w3.org/2000/svg"><sodipodi:namedview
   id="namedview7757"
   pagecolor="#ffffff"
   bordercolor="#666666"
   borderopacity="1.0"
   inkscape:showpageshadow="2"
   inkscape:pageopacity="0.0"
   inkscape:pagecheckerboard="0"
   inkscape:deskcolor="#d1d1d1"
   showgrid="false"
   inkscape:zoom="0.36444485"
   inkscape:cx="430.79221"
   inkscape:cy="13.719497"
   inkscape:window-width="1920"
   inkscape:window-height="1043"
   inkscape:window-x="1920"
   inkscape:window-y="0"
   inkscape:window-maximized="1"
   inkscape:current-layer="svg40" /><defs
   id="defs44" />

<path
   id="path744"
   style="stroke-width:3.13834;stroke-linecap:round;stroke-linejoin:round;stop-color:#000000"
   d="m 190.89055,318.81285 c 9.01151,24.80535 24.10397,46.87197 43.90322,64.19059 65.86649,56.98947 166.11257,49.04017 223.90542,-17.75523 57.7924,-66.79574 51.24649,-167.14325 -14.62068,-224.13191 -19.87639,-17.17611 -43.78912,-29.04522 -69.56666,-34.5293 l -51.91603,60.00351 c 11.64294,21.1575 7.15822,49.98213 -11.09301,71.29805 -18.47036,21.12739 -46.35161,29.71047 -68.9639,21.23015 z m 153.12437,-52.59142 c 11.831,-13.67529 31.16029,-16.33416 43.17333,-5.94114 7.30198,6.33127 10.49782,16.41384 8.50588,26.84031 l 34.73792,30.05582 -23.56712,27.2384 -34.73792,-30.05582 c -10.03177,3.47032 -20.4692,1.75743 -27.78438,-4.55861 -12.01146,-10.39336 -12.15818,-29.90468 -0.32771,-43.57896 z"
   sodipodi:nodetypes="ccccccccccccccccc" /><path
   d="M 20.354513,101.02918 C 39.928084,36.905761 101.99435,-1.4665891 158.32373,15.727861 L 238.73287,44.176344 204.60183,89.911436 142.46071,67.695421 C 111.12511,56.492658 77.065313,78.732041 66.005539,114.96409 l -3.663596,12.00201 c -11.059782,36.23207 5.196027,72.19259 37.024177,81.90808 l 62.96529,19.66079 67.54124,29.9023 -34.88183,41.28729 c -0.0728,0.23852 -0.13877,0.4773 -0.20385,0.7161 -0.0651,0.23879 -0.12931,0.47761 -0.19865,0.71622 L 135.31436,274.93713 83.503107,260.84174 C 26.673397,245.38107 -2.8826538,177.15461 16.690919,113.03119 Z"
   style="stroke-width:3.13834;stroke-linecap:round;stroke-linejoin:round;stop-color:#000000"
   id="path7909"
   sodipodi:nodetypes="ssccsssscccsccsss" /></svg>
