<?xml version="1.0" encoding="UTF-8" standalone="no"?>
<svg
   width="100%"
   height="100%"
   viewBox="0 0 500 422"
   version="1.1"
   xml:space="preserve"
   style="fill-rule:evenodd;clip-rule:evenodd;stroke-linejoin:round;stroke-miterlimit:2;"
   id="svg40"
   xmlns="http://www.w3.org/2000/svg"
   xmlns:svg="http://www.w3.org/2000/svg"><defs
   id="defs44" />

<path
   id="path744"
   style="stroke-width:3.13834;stroke-linecap:round;stroke-linejoin:round;stop-color:#000000"
   d="m 243.72563,2.125 c -67.0443,0 -121.86515,48.159454 -121.86515,107.05469 v 17.24023 c 2.8158,-0.2194 5.66154,-0.34961 8.54441,-0.34961 h 45.79032 v -16.89062 c 0,-33.277952 29.64797,-59.324221 67.53042,-59.324221 h 12.54872 c 37.88247,0 67.53044,26.046269 67.53044,59.324221 v 73.63476 h 52.84729 c 0.49878,0 0.99052,0.0265 1.48743,0.0332 V 109.17969 C 378.1395,50.284454 323.31864,2.125 256.27434,2.125 Z m -133.838,185.60352 C 97.025285,210.77354 90.212895,236.62522 90.070725,262.92969 90.070205,350.02844 161.67313,420.63644 250,420.63672 c 88.32686,-2.9e-4 159.9298,-70.60828 159.92928,-157.70703 -0.0161,-26.26955 -6.68649,-52.11913 -19.4056,-75.20117 h -79.34542 c -8.38195,22.64819 -33.11442,38.11677 -61.17604,38.26171 -28.06244,-0.14413 -52.79605,-15.61286 -61.17826,-38.26171 z m 139.96118,81.38671 c 18.08276,-8.2e-4 32.74072,12.87689 32.74136,28.76172 -0.0102,9.66457 -5.54389,18.67843 -14.73206,23.99414 v 45.93555 h -36.0186 v -45.93555 c -9.1882,-5.3157 -14.7221,-14.32956 -14.73206,-23.99414 6.4e-4,-15.88386 14.65971,-28.76116 32.74136,-28.76172 z" /></svg>
