<?xml version="1.0" encoding="UTF-8" standalone="no"?>
<svg
   width="100%"
   height="100%"
   viewBox="0 0 500 422"
   version="1.1"
   xml:space="preserve"
   style="fill-rule:evenodd;clip-rule:evenodd;stroke-linejoin:round;stroke-miterlimit:2;"
   id="svg40"
   xmlns="http://www.w3.org/2000/svg"
   xmlns:svg="http://www.w3.org/2000/svg"><defs
   id="defs44" />

<path
   id="path744"
   style="stroke-width:2.94143;stroke-linecap:round;stroke-linejoin:round;stop-color:#000000"
   d="M 240.03906 2.125 C 181.14384 2.125 132.98633 50.284454 132.98633 109.17969 L 132.98633 126.41992 C 135.45987 126.20052 137.95972 126.07031 140.49219 126.07031 L 180.7168 126.07031 L 180.7168 109.17969 C 180.7168 75.901738 206.76112 49.855469 240.03906 49.855469 L 251.0625 49.855469 C 284.34044 49.855469 310.38477 75.901738 310.38477 109.17969 L 310.38477 182.81445 L 356.80859 182.81445 C 357.24675 182.81445 357.67872 182.84096 358.11523 182.84766 L 358.11523 109.17969 C 358.11523 50.284454 309.95772 2.125 251.0625 2.125 L 240.03906 2.125 z M 122.46875 187.72852 C 111.1698 210.77354 105.18544 236.62522 105.06055 262.92969 C 105.06009 350.02844 167.95985 420.63644 245.55078 420.63672 C 323.14171 420.63643 386.04148 350.02844 386.04102 262.92969 C 386.02692 236.66014 380.16727 210.81056 368.99414 187.72852 L 299.29297 187.72852 C 291.92982 210.37671 270.20353 225.84529 245.55273 225.99023 C 220.90122 225.8461 199.17392 210.37737 191.81055 187.72852 L 122.46875 187.72852 z M 245.41797 269.11523 C 261.30281 269.11441 274.17913 281.99212 274.17969 297.87695 C 274.17069 307.54152 269.30966 316.55538 261.23828 321.87109 L 261.23828 367.80664 L 229.59766 367.80664 L 229.59766 321.87109 C 221.52626 316.55539 216.665 307.54153 216.65625 297.87695 C 216.65681 281.99309 229.5341 269.11579 245.41797 269.11523 z " /></svg>
