<?xml version="1.0" encoding="UTF-8" standalone="no"?>
<!DOCTYPE svg PUBLIC "-//W3C//DTD SVG 1.1//EN" "http://www.w3.org/Graphics/SVG/1.1/DTD/svg11.dtd">
<svg width="100%" height="100%" viewBox="0 0 215 500" version="1.1" xmlns="http://www.w3.org/2000/svg" xmlns:xlink="http://www.w3.org/1999/xlink" xml:space="preserve" xmlns:serif="http://www.serif.com/" style="fill-rule:evenodd;clip-rule:evenodd;stroke-linejoin:round;stroke-miterlimit:2;">
    <g transform="matrix(1,0,0,1,-50074.2,-11495.7)">
        <g transform="matrix(1,0,0,1,48654.7,11231.2)">
            <g transform="matrix(-5.33837,-6.53761e-16,2.0307e-15,-16.5819,36611.4,48183.6)">
                <g transform="matrix(-0.169158,-8.67362e-18,6.93889e-18,-0.0544586,6679.02,2930.93)">
                    <path d="M545.914,913.119L716.349,913.119L728.204,962.497L557.769,962.497L545.914,913.119Z" style="fill:rgb(242,13,94);"/>
                </g>
                <g transform="matrix(7.78066e-18,-0.117584,0.365236,2.5049e-18,6411.75,2919.25)">
                    <path d="M250.068,427.749L346.403,384.33L346.403,407.021L275.395,439.056L275.395,439.508L346.403,471.616L346.403,494.233L250.068,450.815L250.068,427.749Z" style="fill:rgb(242,13,94);fill-rule:nonzero;"/>
                </g>
            </g>
        </g>
        <g transform="matrix(1,0,0,1,48654.7,11231.2)">
            <g transform="matrix(5.33837,1.30752e-15,-4.0614e-15,16.5819,-33558.2,-47154.6)">
                <g transform="matrix(-0.169158,-8.67362e-18,6.93889e-18,-0.0544586,6679.02,2930.93)">
                    <path d="M545.914,913.119L716.349,913.119L728.204,962.497L557.769,962.497L545.914,913.119Z" style="fill:rgb(242,13,94);"/>
                </g>
                <g transform="matrix(7.78066e-18,-0.117584,0.365236,2.5049e-18,6411.75,2919.25)">
                    <path d="M250.068,427.749L346.403,384.33L346.403,407.021L275.395,439.056L275.395,439.508L346.403,471.616L346.403,494.233L250.068,450.815L250.068,427.749Z" style="fill:rgb(242,13,94);fill-rule:nonzero;"/>
                </g>
            </g>
        </g>
    </g>
</svg>
