<?xml version="1.0" encoding="UTF-8" standalone="no"?>
<!DOCTYPE svg PUBLIC "-//W3C//DTD SVG 1.1//EN" "http://www.w3.org/Graphics/SVG/1.1/DTD/svg11.dtd">
<svg width="100%" height="100%" viewBox="0 0 322 500" version="1.1" xmlns="http://www.w3.org/2000/svg" xmlns:xlink="http://www.w3.org/1999/xlink" xml:space="preserve" xmlns:serif="http://www.serif.com/" style="fill-rule:evenodd;clip-rule:evenodd;stroke-linejoin:round;stroke-miterlimit:2;">
    <g transform="matrix(1,0,0,1,-3370.81,-4030.42)">
        <g transform="matrix(0.959048,0,0,0.959048,144.624,732.197)">
            <path d="M3414.07,3486.4C3411.31,3488.84 3408.2,3491.94 3404.73,3495.72C3401.06,3499.73 3397.3,3504.47 3393.48,3509.96C3389.76,3515.31 3386.12,3521.35 3382.58,3528.1C3379.02,3534.9 3375.85,3542.35 3373.08,3550.45C3370.35,3558.47 3368.14,3567.1 3366.47,3576.36C3364.8,3585.68 3363.95,3595.55 3363.95,3605.99C3363.95,3616.51 3364.8,3626.42 3366.48,3635.69C3368.14,3644.9 3370.35,3653.51 3373.08,3661.51C3375.85,3669.62 3379.02,3677.07 3382.58,3683.87C3386.12,3690.62 3389.76,3696.66 3393.48,3702.01C3397.3,3707.5 3401.06,3712.24 3404.73,3716.25C3407.83,3719.63 3410.65,3722.47 3413.18,3724.77C3415.47,3727.28 3418.3,3730.1 3421.68,3733.2C3425.69,3736.88 3430.43,3740.64 3435.92,3744.45C3441.27,3748.18 3447.32,3751.81 3454.06,3755.35C3460.86,3758.91 3468.31,3762.09 3476.42,3764.85C3484.43,3767.58 3493.06,3769.79 3502.32,3771.46C3507.02,3772.3 3511.86,3772.94 3516.84,3773.36C3512.32,3773.69 3507.44,3774.33 3502.19,3775.27C3495.77,3776.42 3488.93,3778.12 3481.66,3780.39C3474.33,3782.68 3466.82,3785.7 3459.13,3789.48C3451.54,3793.21 3443.87,3797.75 3436.14,3803.12C3428.37,3808.53 3420.79,3814.91 3413.41,3822.28C3405.96,3829.73 3399.56,3837.34 3394.19,3845.08C3388.86,3852.77 3384.33,3860.42 3380.6,3868.01C3376.82,3875.7 3373.8,3883.21 3371.51,3890.54C3369.24,3897.81 3367.54,3904.65 3366.39,3911.07C3365.21,3917.65 3364.51,3923.66 3364.28,3929.1C3364.04,3934.48 3364.32,3942.07 3364.59,3945.82L3365.63,3960.41L3697.43,3960.41L3698.47,3945.82C3698.74,3942.07 3698.99,3934.64 3698.75,3929.25C3698.51,3923.81 3697.82,3917.8 3696.64,3911.22C3695.49,3904.8 3693.78,3897.96 3691.51,3890.69C3689.23,3883.36 3686.2,3875.85 3682.43,3868.16C3678.69,3860.57 3674.15,3852.9 3668.78,3845.17C3663.38,3837.4 3657,3829.82 3649.62,3822.44C3642.17,3814.99 3634.57,3808.59 3626.83,3803.22C3619.14,3797.89 3611.49,3793.36 3603.89,3789.63C3596.21,3785.85 3588.69,3782.83 3581.37,3780.54C3574.1,3778.27 3567.25,3776.57 3560.84,3775.42C3555.38,3774.44 3550.31,3773.79 3545.64,3773.47C3551.17,3773.06 3556.51,3772.39 3561.65,3771.46C3570.86,3769.79 3579.47,3767.58 3587.48,3764.85C3595.59,3762.09 3603.04,3758.91 3609.83,3755.35C3616.58,3751.81 3622.62,3748.18 3627.97,3744.45C3633.46,3740.64 3638.2,3736.88 3642.22,3733.2C3644.78,3730.85 3647.03,3728.66 3648.96,3726.64C3651.71,3724.21 3654.83,3721.11 3658.3,3717.33C3661.97,3713.32 3665.73,3708.58 3669.55,3703.09C3673.27,3697.74 3676.91,3691.7 3680.45,3684.95C3684.01,3678.15 3687.18,3670.7 3689.95,3662.6C3692.68,3654.59 3694.89,3645.95 3696.55,3636.69C3698.23,3627.38 3699.08,3617.5 3699.08,3607.07C3699.08,3596.53 3698.23,3586.64 3696.55,3577.36C3694.89,3568.15 3692.68,3559.54 3689.95,3551.54C3687.18,3543.43 3684.01,3535.98 3680.45,3529.18C3676.91,3522.43 3673.27,3516.39 3669.55,3511.04C3665.73,3505.55 3661.97,3500.81 3658.3,3496.8C3655.2,3493.42 3652.38,3490.59 3649.85,3488.28C3647.56,3485.77 3644.73,3482.95 3641.35,3479.85C3637.34,3476.17 3632.6,3472.41 3627.1,3468.6C3621.75,3464.87 3615.71,3461.24 3608.97,3457.7C3602.17,3454.14 3594.72,3450.97 3586.61,3448.2C3578.6,3445.47 3569.97,3443.26 3560.71,3441.59C3551.39,3439.91 3541.51,3439.06 3531.08,3439.06C3520.55,3439.06 3510.65,3439.92 3501.38,3441.59C3492.16,3443.26 3483.56,3445.47 3475.55,3448.2C3467.44,3450.97 3459.99,3454.14 3453.2,3457.7C3446.45,3461.24 3440.41,3464.87 3435.06,3468.6C3429.57,3472.41 3424.82,3476.17 3420.81,3479.85C3418.25,3482.2 3416,3484.39 3414.07,3486.4ZM3636,3903.38L3426.97,3903.38C3429.64,3897.3 3433.06,3891.16 3437.2,3884.94C3441.89,3877.89 3447.8,3870.84 3454.88,3863.76C3461.96,3856.68 3469.01,3850.77 3476.07,3846.08C3483.01,3841.46 3489.85,3837.73 3496.61,3834.93C3503.23,3832.19 3509.7,3830.18 3516.01,3828.94C3520.98,3827.97 3525.8,3827.28 3530.48,3826.89L3530.49,3826.89C3535.82,3827.24 3541.32,3827.97 3547.02,3829.09C3553.33,3830.33 3559.8,3832.34 3566.42,3835.09C3573.18,3837.88 3580.02,3841.61 3586.96,3846.23C3594.01,3850.92 3601.07,3856.83 3608.15,3863.91C3615.23,3870.99 3621.13,3878.04 3625.83,3885.1C3629.93,3891.26 3633.33,3897.35 3636,3903.38ZM3611.91,3526.24C3615.36,3530.17 3618.66,3534.51 3621.82,3539.22C3625.41,3544.56 3628.56,3550.56 3631.31,3557.18C3634.11,3563.94 3636.31,3571.41 3637.95,3579.58C3639.62,3587.89 3640.43,3597.05 3640.43,3607.07C3640.43,3617.08 3639.62,3626.24 3637.95,3634.55C3636.31,3642.72 3634.11,3650.2 3631.31,3656.95C3628.56,3663.58 3625.41,3669.57 3621.82,3674.91C3619,3679.11 3616.08,3683.01 3613.04,3686.59C3609.03,3690.12 3604.61,3693.49 3599.79,3696.73C3594.45,3700.32 3588.46,3703.47 3581.83,3706.21C3575.08,3709.01 3567.61,3711.21 3559.43,3712.86C3551.12,3714.52 3541.96,3715.33 3531.95,3715.33C3521.93,3715.33 3512.77,3714.52 3504.47,3712.86C3496.29,3711.21 3488.82,3709.01 3482.06,3706.21C3475.44,3703.47 3469.45,3700.32 3464.1,3696.73C3459.39,3693.56 3455.06,3690.26 3451.12,3686.82C3447.67,3682.88 3444.37,3678.55 3441.2,3673.83C3437.62,3668.49 3434.47,3662.49 3431.72,3655.87C3428.92,3649.11 3426.72,3641.64 3425.08,3633.47C3423.41,3625.16 3422.6,3616 3422.6,3605.99C3422.6,3595.97 3423.41,3586.81 3425.08,3578.5C3426.72,3570.33 3428.92,3562.86 3431.72,3556.1C3434.47,3549.47 3437.62,3543.48 3441.2,3538.14C3444.02,3533.94 3446.95,3530.04 3449.99,3526.46C3454,3522.93 3458.42,3519.56 3463.24,3516.32C3468.58,3512.74 3474.57,3509.59 3481.19,3506.84C3487.95,3504.04 3495.42,3501.84 3503.6,3500.2C3511.9,3498.53 3521.07,3497.72 3531.08,3497.72C3541.09,3497.72 3550.26,3498.53 3558.56,3500.2C3566.74,3501.84 3574.21,3504.04 3580.97,3506.84C3587.59,3509.59 3593.58,3512.74 3598.93,3516.32C3603.64,3519.49 3607.97,3522.79 3611.91,3526.23L3611.91,3526.24Z" />
        </g>
    </g>
</svg>
