<?xml version="1.0" encoding="UTF-8" standalone="no"?>
<!DOCTYPE svg PUBLIC "-//W3C//DTD SVG 1.1//EN" "http://www.w3.org/Graphics/SVG/1.1/DTD/svg11.dtd">
<svg width="100%" height="100%" viewBox="0 0 500 500" version="1.1" xmlns="http://www.w3.org/2000/svg" xmlns:xlink="http://www.w3.org/1999/xlink" xml:space="preserve" xmlns:serif="http://www.serif.com/" style="fill-rule:evenodd;clip-rule:evenodd;stroke-linejoin:round;stroke-miterlimit:2;">
    <g transform="matrix(1,0,0,1,-3899.43,-4030.42)">
        <g transform="matrix(0.959048,0,0,0.959048,673.244,732.197)">
            <path d="M3414.07,3486.4C3411.31,3488.84 3408.2,3491.94 3404.73,3495.72C3401.06,3499.73 3397.3,3504.47 3393.48,3509.96C3389.76,3515.31 3386.12,3521.35 3382.58,3528.1C3379.02,3534.9 3375.85,3542.35 3373.08,3550.45C3370.35,3558.47 3368.14,3567.1 3366.47,3576.36C3364.8,3585.68 3363.95,3595.55 3363.95,3605.99C3363.95,3616.51 3364.8,3626.42 3366.48,3635.69C3368.14,3644.9 3370.35,3653.51 3373.08,3661.51C3375.85,3669.62 3379.02,3677.07 3382.58,3683.87C3386.12,3690.62 3389.76,3696.66 3393.48,3702.01C3397.3,3707.5 3401.06,3712.24 3404.73,3716.25C3407.83,3719.63 3410.65,3722.47 3413.18,3724.77C3415.47,3727.28 3418.3,3730.1 3421.68,3733.2C3425.69,3736.88 3430.43,3740.64 3435.92,3744.45C3441.27,3748.18 3447.32,3751.81 3454.06,3755.35C3460.86,3758.91 3468.31,3762.09 3476.42,3764.85C3484.43,3767.58 3493.06,3769.79 3502.32,3771.46C3507.02,3772.3 3511.86,3772.94 3516.84,3773.36C3512.32,3773.69 3507.44,3774.33 3502.19,3775.27C3495.77,3776.42 3488.93,3778.12 3481.66,3780.39C3474.33,3782.68 3466.82,3785.7 3459.13,3789.48C3451.54,3793.21 3443.87,3797.75 3436.14,3803.12C3428.37,3808.53 3420.79,3814.91 3413.41,3822.28C3405.96,3829.73 3399.56,3837.34 3394.19,3845.08C3388.86,3852.77 3384.33,3860.42 3380.6,3868.01C3376.82,3875.7 3373.8,3883.21 3371.51,3890.54C3369.24,3897.81 3367.54,3904.65 3366.39,3911.07C3365.21,3917.65 3364.51,3923.66 3364.28,3929.1C3364.04,3934.48 3364.32,3942.07 3364.59,3945.82L3365.63,3960.41L3697.43,3960.41L3698.47,3945.82C3698.74,3942.07 3698.99,3934.64 3698.75,3929.25C3698.51,3923.81 3697.82,3917.8 3696.64,3911.22C3695.49,3904.8 3693.78,3897.96 3691.51,3890.69C3689.23,3883.36 3686.2,3875.85 3682.43,3868.16C3678.69,3860.57 3674.15,3852.9 3668.78,3845.17C3663.38,3837.4 3657,3829.82 3649.62,3822.44C3642.17,3814.99 3634.57,3808.59 3626.83,3803.22C3619.14,3797.89 3611.49,3793.36 3603.89,3789.63C3596.21,3785.85 3588.69,3782.83 3581.37,3780.54C3574.1,3778.27 3567.25,3776.57 3560.84,3775.42C3555.38,3774.44 3550.31,3773.79 3545.64,3773.47C3551.17,3773.06 3556.51,3772.39 3561.65,3771.46C3570.86,3769.79 3579.47,3767.58 3587.48,3764.85C3595.59,3762.09 3603.04,3758.91 3609.83,3755.35C3616.58,3751.81 3622.62,3748.18 3627.97,3744.45C3633.46,3740.64 3638.2,3736.88 3642.22,3733.2C3644.78,3730.85 3647.03,3728.66 3648.96,3726.64C3651.71,3724.21 3654.83,3721.11 3658.3,3717.33C3661.97,3713.32 3665.73,3708.58 3669.55,3703.09C3673.27,3697.74 3676.91,3691.7 3680.45,3684.95C3684.01,3678.15 3687.18,3670.7 3689.95,3662.6C3692.68,3654.59 3694.89,3645.95 3696.55,3636.69C3698.23,3627.38 3699.08,3617.5 3699.08,3607.07C3699.08,3596.53 3698.23,3586.64 3696.55,3577.36C3694.89,3568.15 3692.68,3559.54 3689.95,3551.54C3687.18,3543.43 3684.01,3535.98 3680.45,3529.18C3676.91,3522.43 3673.27,3516.39 3669.55,3511.04C3665.73,3505.55 3661.97,3500.81 3658.3,3496.8C3655.2,3493.42 3652.38,3490.59 3649.85,3488.28C3647.56,3485.77 3644.73,3482.95 3641.35,3479.85C3637.34,3476.17 3632.6,3472.41 3627.1,3468.6C3621.75,3464.87 3615.71,3461.24 3608.97,3457.7C3602.17,3454.14 3594.72,3450.97 3586.61,3448.2C3578.6,3445.47 3569.97,3443.26 3560.71,3441.59C3551.39,3439.91 3541.51,3439.06 3531.08,3439.06C3520.55,3439.06 3510.65,3439.92 3501.38,3441.59C3492.16,3443.26 3483.56,3445.47 3475.55,3448.2C3467.44,3450.97 3459.99,3454.14 3453.2,3457.7C3446.45,3461.24 3440.41,3464.87 3435.06,3468.6C3429.57,3472.41 3424.82,3476.17 3420.81,3479.85C3418.25,3482.2 3416,3484.39 3414.07,3486.4ZM3636,3903.38L3426.97,3903.38C3429.64,3897.3 3433.06,3891.16 3437.2,3884.94C3441.89,3877.89 3447.8,3870.84 3454.88,3863.76C3461.96,3856.68 3469.01,3850.77 3476.07,3846.08C3483.01,3841.46 3489.85,3837.73 3496.61,3834.93C3503.23,3832.19 3509.7,3830.18 3516.01,3828.94C3520.98,3827.97 3525.8,3827.28 3530.48,3826.89L3530.49,3826.89C3535.82,3827.24 3541.32,3827.97 3547.02,3829.09C3553.33,3830.33 3559.8,3832.34 3566.42,3835.09C3573.18,3837.88 3580.02,3841.61 3586.96,3846.23C3594.01,3850.92 3601.07,3856.83 3608.15,3863.91C3615.23,3870.99 3621.13,3878.04 3625.83,3885.1C3629.93,3891.26 3633.33,3897.35 3636,3903.38ZM3611.91,3526.24C3615.36,3530.17 3618.66,3534.51 3621.82,3539.22C3625.41,3544.56 3628.56,3550.56 3631.31,3557.18C3634.11,3563.94 3636.31,3571.41 3637.95,3579.58C3639.62,3587.89 3640.43,3597.05 3640.43,3607.07C3640.43,3617.08 3639.62,3626.24 3637.95,3634.55C3636.31,3642.72 3634.11,3650.2 3631.31,3656.95C3628.56,3663.58 3625.41,3669.57 3621.82,3674.91C3619,3679.11 3616.08,3683.01 3613.04,3686.59C3609.03,3690.12 3604.61,3693.49 3599.79,3696.73C3594.45,3700.32 3588.46,3703.47 3581.83,3706.21C3575.08,3709.01 3567.61,3711.21 3559.43,3712.86C3551.12,3714.52 3541.96,3715.33 3531.95,3715.33C3521.93,3715.33 3512.77,3714.52 3504.47,3712.86C3496.29,3711.21 3488.82,3709.01 3482.06,3706.21C3475.44,3703.47 3469.45,3700.32 3464.1,3696.73C3459.39,3693.56 3455.06,3690.26 3451.12,3686.82C3447.67,3682.88 3444.37,3678.55 3441.2,3673.83C3437.62,3668.49 3434.47,3662.49 3431.72,3655.87C3428.92,3649.11 3426.72,3641.64 3425.08,3633.47C3423.41,3625.16 3422.6,3616 3422.6,3605.99C3422.6,3595.97 3423.41,3586.81 3425.08,3578.5C3426.72,3570.33 3428.92,3562.86 3431.72,3556.1C3434.47,3549.47 3437.62,3543.48 3441.2,3538.14C3444.02,3533.94 3446.95,3530.04 3449.99,3526.46C3454,3522.93 3458.42,3519.56 3463.24,3516.32C3468.58,3512.74 3474.57,3509.59 3481.19,3506.84C3487.95,3504.04 3495.42,3501.84 3503.6,3500.2C3511.9,3498.53 3521.07,3497.72 3531.08,3497.72C3541.09,3497.72 3550.26,3498.53 3558.56,3500.2C3566.74,3501.84 3574.21,3504.04 3580.97,3506.84C3587.59,3509.59 3593.58,3512.74 3598.93,3516.32C3603.64,3519.49 3607.97,3522.79 3611.91,3526.23L3611.91,3526.24Z" style="fill:rgb(242,13,94);"/>
        </g>
        <path d="M4173.74,4053.51C4177.35,4051.97 4181.12,4050.53 4185.05,4049.18C4192.73,4046.57 4200.99,4044.45 4209.82,4042.85C4218.71,4041.24 4228.21,4040.42 4238.31,4040.42C4248.32,4040.42 4257.78,4041.24 4266.72,4042.85C4275.6,4044.45 4283.88,4046.56 4291.56,4049.18C4299.34,4051.84 4306.48,4054.88 4313,4058.3C4319.47,4061.69 4325.27,4065.18 4330.4,4068.74C4335.66,4072.41 4340.21,4076.01 4344.06,4079.54C4347.3,4082.51 4350.02,4085.21 4352.21,4087.63C4354.64,4089.83 4357.34,4092.55 4360.31,4095.79C4363.84,4099.64 4367.44,4104.19 4371.11,4109.45C4374.68,4114.58 4378.16,4120.38 4381.56,4126.85C4384.97,4133.37 4388.02,4140.51 4390.67,4148.29C4393.29,4155.97 4395.4,4164.22 4397,4173.06C4398.61,4181.95 4399.43,4191.44 4399.43,4201.54C4399.43,4211.55 4398.61,4221.02 4397,4229.96C4395.41,4238.84 4393.29,4247.12 4390.67,4254.8C4388.02,4262.58 4384.97,4269.72 4381.56,4276.24C4378.16,4282.71 4374.68,4288.51 4371.11,4293.64C4367.44,4298.9 4363.84,4303.45 4360.31,4307.3C4356.99,4310.92 4354,4313.89 4351.36,4316.23C4349.51,4318.16 4347.35,4320.26 4344.89,4322.51C4341.04,4326.04 4336.5,4329.64 4331.23,4333.31C4326.1,4336.88 4320.3,4340.36 4313.84,4343.76C4307.32,4347.17 4300.17,4350.22 4292.4,4352.87C4284.72,4355.49 4279.56,4355.74 4286.54,4357.91C4293.56,4360.11 4300.77,4363.01 4308.14,4366.63C4315.42,4370.21 4322.76,4374.55 4330.13,4379.67C4337.56,4384.82 4344.85,4390.95 4351.99,4398.1C4359.07,4405.17 4365.19,4412.44 4370.37,4419.9C4375.52,4427.31 4379.88,4434.66 4383.45,4441.95C4387.08,4449.32 4389.98,4456.53 4392.17,4463.55C4394.35,4470.52 4395.98,4477.09 4397.09,4483.24C4398.22,4489.55 4398.88,4495.32 4399.11,4500.53C4399.34,4505.7 4399.1,4512.83 4398.84,4516.43L4397.84,4530.42L4236.8,4530.42L4237.71,4517.67C4238,4513.62 4238.26,4505.6 4238,4499.77C4237.75,4493.86 4237.01,4487.31 4235.72,4480.15C4235.46,4478.69 4235.17,4477.22 4234.86,4475.72L4338.93,4475.72C4336.37,4469.94 4333.11,4464.1 4329.17,4458.19C4324.67,4451.42 4319.01,4444.66 4312.22,4437.87C4305.43,4431.08 4298.66,4425.41 4291.9,4420.91C4285.24,4416.48 4278.68,4412.91 4272.2,4410.23C4265.85,4407.6 4259.65,4405.67 4253.59,4404.48C4248.13,4403.4 4242.85,4402.7 4237.74,4402.37L4237.74,4402.37C4233.24,4402.74 4228.62,4403.4 4223.86,4404.33C4218.05,4405.48 4212.12,4407.29 4206.04,4409.76C4200.32,4401.54 4193.58,4393.52 4185.78,4385.72C4179.21,4379.15 4172.52,4373.35 4165.72,4368.31C4166.92,4367.68 4168.11,4367.07 4169.31,4366.49C4176.68,4362.86 4183.89,4359.96 4190.91,4357.77C4197.88,4355.59 4193.57,4355.49 4185.88,4352.87C4178.11,4350.22 4170.96,4347.17 4164.44,4343.76C4162.38,4342.67 4160.38,4341.58 4158.45,4340.48C4159.89,4339.55 4161.28,4338.61 4162.64,4337.67C4168.61,4333.52 4173.76,4329.41 4178.13,4325.41C4180.68,4323.07 4182.95,4320.87 4184.92,4318.84C4187.79,4316.26 4191.04,4313.03 4194.62,4309.12C4197.04,4306.49 4199.49,4303.57 4201.96,4300.36C4205.41,4301.37 4209.02,4302.24 4212.78,4303C4220.75,4304.6 4229.54,4305.38 4239.14,4305.38C4248.74,4305.38 4257.53,4304.6 4265.5,4303C4273.34,4301.43 4280.5,4299.31 4286.98,4296.63C4293.34,4294 4299.08,4290.97 4304.21,4287.53C4308.83,4284.43 4313.06,4281.2 4316.91,4277.81C4319.82,4274.38 4322.63,4270.64 4325.33,4266.61C4328.77,4261.49 4331.8,4255.74 4334.43,4249.39C4337.11,4242.91 4339.23,4235.74 4340.8,4227.9C4342.4,4219.94 4343.18,4211.15 4343.18,4201.54C4343.18,4191.94 4342.4,4183.15 4340.8,4175.19C4339.23,4167.35 4337.11,4160.18 4334.43,4153.7C4331.8,4147.35 4328.77,4141.6 4325.33,4136.48C4322.3,4131.95 4319.13,4127.8 4315.83,4124.02L4315.82,4124.02C4312.05,4120.72 4307.9,4117.55 4303.37,4114.52C4298.25,4111.08 4292.5,4108.06 4286.15,4105.42C4279.67,4102.74 4272.5,4100.63 4264.66,4099.05C4256.7,4097.45 4247.91,4096.67 4238.31,4096.67C4229.1,4096.67 4220.64,4097.39 4212.94,4098.86C4210.95,4095.53 4208.93,4092.4 4206.88,4089.46C4202.73,4083.48 4198.62,4078.33 4194.62,4073.97C4191.48,4070.55 4188.6,4067.64 4186,4065.24C4183.62,4062.66 4180.72,4059.78 4177.29,4056.64C4176.16,4055.6 4174.98,4054.56 4173.74,4053.51Z" style="fill:rgb(242,13,94);"/>
    </g>
</svg>
