<?xml version="1.0" encoding="UTF-8" standalone="no"?>
<!DOCTYPE svg PUBLIC "-//W3C//DTD SVG 1.1//EN" "http://www.w3.org/Graphics/SVG/1.1/DTD/svg11.dtd">
<svg width="100%" height="100%" viewBox="0 0 379 500" version="1.1" xmlns="http://www.w3.org/2000/svg" xmlns:xlink="http://www.w3.org/1999/xlink" xml:space="preserve" xmlns:serif="http://www.serif.com/" style="fill-rule:evenodd;clip-rule:evenodd;stroke-linejoin:round;stroke-miterlimit:2;">
    <g transform="matrix(1,0,0,1,-7454.4,-20886.6)">
        <g transform="matrix(1,0,0,1,6088.5,20622.1)">
            <g transform="matrix(1,0,0,1,-6088.5,-20622.1)">
                <path d="M7747.19,21140.2C7743.63,21145.3 7740.12,21149.7 7736.69,21153.4C7733.37,21157.1 7730.38,21160 7727.74,21162.4C7725.89,21164.3 7723.73,21166.4 7721.27,21168.7C7717.42,21172.2 7712.88,21175.8 7707.61,21179.4C7702.48,21183 7696.68,21186.5 7690.21,21189.9C7683.69,21193.3 7676.55,21196.4 7668.77,21199C7661.09,21201.6 7652.84,21203.7 7644.01,21205.3C7639.07,21206.2 7633.95,21206.9 7628.65,21207.3C7633.13,21207.6 7637.99,21208.2 7643.23,21209.1C7649.38,21210.2 7655.94,21211.9 7662.92,21214.1C7669.94,21216.2 7677.14,21219.1 7684.52,21222.8C7691.8,21226.4 7699.14,21230.7 7706.51,21235.8C7713.94,21241 7721.23,21247.1 7728.37,21254.2C7735.45,21261.3 7741.57,21268.6 7746.75,21276C7751.9,21283.5 7756.25,21290.8 7759.83,21298.1C7763.46,21305.5 7766.36,21312.7 7768.55,21319.7C7770.73,21326.7 7772.36,21333.2 7773.46,21339.4C7774.6,21345.7 7775.26,21351.5 7775.49,21356.7C7775.71,21361.8 7775.48,21369 7775.22,21372.6L7774.22,21386.6L7456.02,21386.6L7455.02,21372.6C7454.76,21369 7454.49,21361.7 7454.72,21356.5C7454.94,21351.3 7455.61,21345.5 7456.74,21339.2C7457.85,21333.1 7459.48,21326.5 7461.65,21319.5C7463.85,21312.5 7466.75,21305.3 7470.37,21297.9C7473.95,21290.7 7478.29,21283.3 7483.4,21276C7488.56,21268.5 7494.69,21261.2 7501.83,21254.1C7508.91,21247 7516.18,21240.9 7523.64,21235.7C7531.05,21230.6 7538.4,21226.2 7545.69,21222.6C7553.06,21219 7560.26,21216.1 7567.29,21213.9C7574.26,21211.7 7580.83,21210.1 7586.98,21209C7592.01,21208.1 7596.69,21207.5 7601.03,21207.2C7596.25,21206.8 7591.61,21206.2 7587.11,21205.3C7578.22,21203.7 7569.94,21201.6 7562.26,21199C7554.49,21196.4 7547.34,21193.3 7540.82,21189.9C7534.35,21186.5 7528.56,21183 7523.43,21179.4C7518.16,21175.8 7513.61,21172.2 7509.77,21168.7C7506.53,21165.7 7503.81,21163 7501.61,21160.6C7499.19,21158.4 7496.49,21155.6 7493.51,21152.4C7489.99,21148.6 7486.38,21144 7482.72,21138.7C7479.15,21133.6 7475.66,21127.8 7472.27,21121.3C7468.85,21114.8 7465.81,21107.7 7463.16,21099.9C7460.54,21092.2 7458.42,21084 7456.82,21075.1C7455.22,21066.2 7454.4,21056.7 7454.4,21046.6C7454.4,21036.6 7455.21,21027.2 7456.82,21018.2C7458.42,21009.4 7460.54,21001.1 7463.16,20993.4C7465.81,20985.6 7468.85,20978.5 7472.27,20972C7475.66,20965.5 7479.15,20959.7 7482.72,20954.6C7486.38,20949.3 7489.99,20944.7 7493.51,20940.9C7496.83,20937.3 7499.82,20934.3 7502.47,20932C7504.32,20930 7506.48,20927.9 7508.93,20925.7C7512.78,20922.2 7517.33,20918.5 7522.59,20914.9C7527.73,20911.3 7533.52,20907.8 7539.99,20904.4C7546.51,20901 7553.65,20898 7561.43,20895.3C7569.11,20892.7 7577.36,20890.6 7586.2,20889C7595.09,20887.4 7604.59,20886.6 7614.69,20886.6C7624.69,20886.6 7634.16,20887.4 7643.1,20889C7651.98,20890.6 7660.26,20892.7 7667.94,20895.3C7673.99,20897.4 7679.65,20899.7 7684.93,20902.2C7664.83,20911.6 7647.63,20926.1 7635.06,20944.2C7628.73,20943.3 7621.94,20942.8 7614.69,20942.8C7605.08,20942.8 7596.3,20943.6 7588.33,20945.2C7580.49,20946.8 7573.32,20948.9 7566.84,20951.6C7560.49,20954.2 7554.74,20957.2 7549.62,20960.7C7545,20963.8 7540.77,20967 7536.92,20970.4C7534,20973.8 7531.19,20977.6 7528.49,20981.6C7525.05,20986.7 7522.03,20992.5 7519.4,20998.8C7516.71,21005.3 7514.6,21012.5 7513.02,21020.3C7511.42,21028.3 7510.65,21037 7510.65,21046.6C7510.65,21056.3 7511.42,21065 7513.02,21073C7514.6,21080.8 7516.71,21088 7519.4,21094.5C7522.03,21100.8 7525.05,21106.6 7528.49,21111.7C7531.53,21116.2 7534.69,21120.4 7538,21124.2C7541.78,21127.5 7545.93,21130.6 7550.45,21133.7C7555.58,21137.1 7561.32,21140.1 7567.68,21142.8C7574.15,21145.5 7581.32,21147.6 7589.16,21149.1C7597.13,21150.7 7605.91,21151.5 7615.52,21151.5C7625.12,21151.5 7633.91,21150.7 7641.88,21149.1C7649.72,21147.6 7656.88,21145.5 7663.36,21142.8C7669.71,21140.1 7675.46,21137.1 7680.59,21133.7C7682.58,21132.3 7684.51,21131 7686.36,21129.6C7702.01,21136.6 7719.37,21140.6 7737.65,21140.6C7740.86,21140.6 7744.03,21140.4 7747.19,21140.2ZM7715.31,21331.9L7514.84,21331.9C7517.4,21326 7520.68,21320.2 7524.65,21314.2C7529.15,21307.4 7534.82,21300.7 7541.61,21293.9C7548.4,21287.1 7555.16,21281.4 7561.93,21276.9C7568.58,21272.5 7575.14,21268.9 7581.62,21266.2C7587.98,21263.6 7594.18,21261.7 7600.23,21260.5C7605,21259.5 7609.62,21258.9 7614.11,21258.5L7614.12,21258.5C7619.23,21258.8 7624.51,21259.5 7629.97,21260.6C7636.03,21261.8 7642.23,21263.7 7648.58,21266.4C7655.06,21269.1 7661.62,21272.6 7668.28,21277.1C7675.04,21281.6 7681.81,21287.2 7688.6,21294C7695.39,21300.8 7701.05,21307.6 7705.55,21314.3C7709.49,21320.2 7712.75,21326.1 7715.31,21331.9Z" style="fill:rgb(242,13,94);"/>
            </g>
        </g>
        <g transform="matrix(1,0,0,1,6088.5,20622.1)">
            <g transform="matrix(1,0,0,1,-7211.69,-20627.1)">
                <path d="M8831.77,20990.3L8758.14,20990.3L8749.51,21032.3L8831.77,21032.3L8831.77,21106.3L8873.71,21114.9L8873.71,21032.3L8947.54,21032.3L8956.17,20990.3L8873.71,20990.3L8873.71,20916.9L8831.77,20908.2L8831.77,20990.3Z" style="fill:rgb(242,13,94);"/>
            </g>
        </g>
    </g>
</svg>
