<?xml version="1.0" encoding="UTF-8" standalone="no"?>
<!DOCTYPE svg PUBLIC "-//W3C//DTD SVG 1.1//EN" "http://www.w3.org/Graphics/SVG/1.1/DTD/svg11.dtd">
<svg width="100%" height="100%" viewBox="0 0 379 500" version="1.1" xmlns="http://www.w3.org/2000/svg" xmlns:xlink="http://www.w3.org/1999/xlink" xml:space="preserve" xmlns:serif="http://www.serif.com/" style="fill-rule:evenodd;clip-rule:evenodd;stroke-linejoin:round;stroke-miterlimit:2;">
    <g transform="matrix(1,0,0,1,-8571.59,-20886.6)">
        <g transform="matrix(1,0,0,1,7205.69,20622.1)">
            <g transform="matrix(1,0,0,1,-7205.69,-20622.1)">
                <path d="M8885.38,21097.5C8885.01,21098.6 8884.63,21099.8 8884.24,21101C8881.58,21108.7 8878.54,21115.9 8875.13,21122.4C8871.73,21128.9 8868.24,21134.7 8864.68,21139.8C8861.01,21145 8857.41,21149.6 8853.89,21153.4C8850.56,21157.1 8847.57,21160 8844.93,21162.4C8843.08,21164.3 8840.92,21166.4 8838.46,21168.7C8834.61,21172.2 8830.06,21175.8 8824.8,21179.4C8819.67,21183 8813.87,21186.5 8807.4,21189.9C8800.89,21193.3 8793.74,21196.4 8785.97,21199C8778.28,21201.6 8770.03,21203.7 8761.19,21205.4C8756.26,21206.2 8751.14,21206.9 8745.84,21207.3C8750.32,21207.6 8755.18,21208.2 8760.42,21209.1C8766.57,21210.3 8773.13,21211.9 8780.11,21214.1C8787.13,21216.3 8794.34,21219.2 8801.7,21222.8C8808.99,21226.4 8816.33,21230.7 8823.7,21235.8C8831.13,21241 8838.42,21247.1 8845.56,21254.2C8852.64,21261.3 8858.76,21268.6 8863.94,21276C8869.09,21283.5 8873.44,21290.8 8877.03,21298.1C8880.64,21305.5 8883.55,21312.7 8885.74,21319.7C8887.91,21326.7 8889.55,21333.2 8890.66,21339.4C8891.79,21345.7 8892.45,21351.5 8892.68,21356.7C8892.91,21361.8 8892.67,21369 8892.41,21372.6L8891.41,21386.6L8573.2,21386.6L8572.2,21372.6C8571.94,21369 8571.68,21361.7 8571.91,21356.5C8572.13,21351.3 8572.8,21345.6 8573.93,21339.2C8575.03,21333.1 8576.66,21326.5 8578.84,21319.6C8581.04,21312.5 8583.93,21305.3 8587.56,21297.9C8591.14,21290.7 8595.48,21283.3 8600.59,21276C8605.74,21268.5 8611.88,21261.2 8619.02,21254.1C8626.1,21247 8633.37,21240.9 8640.82,21235.7C8648.24,21230.6 8655.59,21226.2 8662.87,21222.6C8670.25,21219 8677.45,21216.1 8684.48,21213.9C8691.45,21211.7 8698.01,21210.1 8704.17,21209C8709.2,21208.1 8713.88,21207.5 8718.22,21207.2C8713.44,21206.8 8708.8,21206.2 8704.29,21205.4C8695.41,21203.7 8687.14,21201.6 8679.45,21199C8671.68,21196.4 8664.53,21193.3 8658.01,21189.9C8651.55,21186.5 8645.74,21183 8640.61,21179.4C8635.35,21175.8 8630.8,21172.2 8626.96,21168.7C8623.71,21165.7 8621,21163 8618.8,21160.6C8616.38,21158.4 8613.67,21155.6 8610.7,21152.4C8607.18,21148.6 8603.57,21144 8599.91,21138.7C8596.34,21133.6 8592.85,21127.8 8589.46,21121.3C8586.04,21114.8 8583,21107.7 8580.35,21099.9C8577.73,21092.2 8575.61,21084 8574.02,21075.1C8572.41,21066.3 8571.59,21056.7 8571.59,21046.7C8571.59,21036.6 8572.41,21027.2 8574.01,21018.2C8575.61,21009.4 8577.73,21001.1 8580.35,20993.4C8583,20985.6 8586.04,20978.5 8589.46,20972C8592.85,20965.5 8596.34,20959.7 8599.91,20954.6C8603.57,20949.3 8607.18,20944.7 8610.7,20940.9C8614.03,20937.3 8617.01,20934.3 8619.66,20932C8621.51,20930 8623.67,20927.9 8626.12,20925.7C8629.97,20922.2 8634.52,20918.5 8639.79,20914.9C8644.92,20911.3 8650.71,20907.8 8657.18,20904.4C8663.7,20901 8670.84,20898 8678.62,20895.3C8686.3,20892.7 8694.55,20890.6 8703.39,20889C8712.28,20887.4 8721.78,20886.6 8731.88,20886.6C8741.88,20886.6 8751.35,20887.4 8760.29,20889C8769.17,20890.6 8777.45,20892.7 8785.13,20895.3C8792.91,20898 8800.05,20901 8806.58,20904.4C8813.04,20907.8 8818.83,20911.3 8823.96,20914.9C8825.76,20916.1 8827.46,20917.4 8829.09,20918.6C8803.2,20922.6 8780.25,20932.5 8762.95,20946.2C8761.41,20945.9 8759.83,20945.5 8758.23,20945.2C8750.27,20943.6 8741.48,20942.8 8731.88,20942.8C8722.28,20942.8 8713.48,20943.6 8705.52,20945.2C8697.68,20946.8 8690.51,20948.9 8684.03,20951.6C8677.68,20954.2 8671.93,20957.2 8666.81,20960.7C8662.19,20963.8 8657.95,20967 8654.11,20970.4C8651.19,20973.8 8648.38,20977.6 8645.68,20981.6C8642.24,20986.7 8639.22,20992.5 8636.59,20998.8C8633.9,21005.3 8631.79,21012.5 8630.22,21020.3C8628.61,21028.3 8627.84,21037 8627.84,21046.7C8627.84,21056.3 8628.61,21065 8630.22,21073C8631.79,21080.8 8633.9,21088 8636.59,21094.5C8639.22,21100.8 8642.24,21106.6 8645.68,21111.7C8648.72,21116.2 8651.88,21120.4 8655.19,21124.2C8658.97,21127.5 8663.12,21130.6 8667.64,21133.7C8672.77,21137.1 8678.51,21140.1 8684.86,21142.8C8691.35,21145.5 8698.51,21147.6 8706.35,21149.2C8714.32,21150.7 8723.1,21151.5 8732.71,21151.5C8742.31,21151.5 8751.09,21150.7 8759.07,21149.2C8766.91,21147.6 8774.07,21145.5 8780.55,21142.8C8786.91,21140.1 8792.65,21137.1 8797.77,21133.7C8802.39,21130.6 8806.63,21127.3 8810.48,21124C8813.4,21120.5 8816.19,21116.8 8818.9,21112.8C8821.9,21108.3 8824.59,21103.3 8826.97,21097.9C8835.94,21099.4 8845.26,21100.2 8854.84,21100.2C8865.38,21100.2 8875.61,21099.3 8885.38,21097.5ZM8832.5,21331.9L8632.03,21331.9C8634.59,21326 8637.87,21320.1 8641.84,21314.2C8646.34,21307.4 8652.01,21300.7 8658.8,21293.9C8665.59,21287.1 8672.35,21281.4 8679.12,21276.9C8685.77,21272.5 8692.33,21268.9 8698.82,21266.2C8705.17,21263.6 8711.37,21261.7 8717.42,21260.5C8722.19,21259.5 8726.81,21258.9 8731.3,21258.5L8731.31,21258.5C8736.42,21258.8 8741.7,21259.5 8747.16,21260.6C8753.21,21261.8 8759.42,21263.7 8765.77,21266.4C8772.25,21269.1 8778.81,21272.6 8785.47,21277.1C8792.23,21281.6 8799,21287.2 8805.79,21294C8812.58,21300.8 8818.24,21307.6 8822.75,21314.3C8826.68,21320.2 8829.94,21326.1 8832.5,21331.9Z" style="fill:currentColor;"/>
            </g>
        </g>
        <g transform="matrix(1,0,0,1,7205.69,20622.1)">
            <g transform="matrix(1,0,0,1,-7211.69,-20627.1)">
                <path d="M8956.17,20990.3L8758.14,20990.3L8749.51,21032.3L8947.54,21032.3L8956.17,20990.3Z" style="fill:currentColor;"/>
            </g>
        </g>
    </g>
</svg>
